<svg width="194" height="135" viewBox="0 0 194 135" fill="none" xmlns="http://www.w3.org/2000/svg">
<g clip-path="url(#clip0)">
<path opacity="0.1" d="M10.9276 69.2947C11.4732 74.4972 14.9545 79.2066 17.0789 84.1611C20.084 91.1976 20.3675 98.8618 17.8883 106.044C17.3827 107.52 16.7588 109.001 16.7588 110.513C16.7588 115.725 23.7668 119.184 30.1346 121.485C46.3201 127.307 63.2014 131.629 80.4839 134.374C86.135 135.279 93.194 135.669 96.7698 132.268C98.4868 130.634 98.9015 128.502 100.162 126.669C103.376 121.995 111.197 120.18 118.218 119.14C126.682 117.887 135.225 117.053 143.803 116.645C152.439 116.233 162.245 115.874 167.969 111.071C171.606 108.016 172.665 103.802 172.81 99.8212C173.285 86.7624 165.92 72.631 175.373 61.3213C179.336 56.578 185.808 53.1137 189.742 48.3565C195.437 41.4634 194.946 32.7087 191.09 25.3626C187.234 18.0164 180.404 11.7706 173.672 5.64955C171.446 3.62616 169.071 1.5211 165.728 0.582599C162.248 -0.394423 158.303 0.0540212 154.573 0.516334C137.603 2.61524 119.989 4.90214 105.757 12.1111C98.6887 15.691 92.7847 20.3342 86.477 24.6044C72.8556 33.8306 57.0753 42.3526 39.0888 45.9956C24.4762 48.956 9.61439 56.9401 10.9276 69.2947Z" fill="#6C63FF"/>
<path d="M134.133 119.2C134.426 115.776 134.336 113.15 133.951 112.881C133.787 112.766 133.636 112.35 133.516 111.911C133.929 111.649 134.151 111.342 134.051 110.986C133.567 109.275 125.913 96.682 124.682 96.4524C123.451 96.2228 123.705 77.5607 123.705 77.5607L125.502 63.3246H125.477C125.623 62.5534 125.871 61.7986 126.217 61.0747C126.286 60.9313 126.359 60.7927 126.432 60.6555C127.92 60.7002 129.342 60.1408 130.571 58.6691C131.91 57.0664 133.154 55.6409 134.282 54.3912C136.945 52.6344 140.222 49.9221 141.173 46.7769C142.856 41.2168 135.171 35.5273 135.171 35.5273L132.78 34.1634C132.749 34.0864 132.721 34.0093 132.696 33.9323C132.67 33.8552 132.649 33.7782 132.629 33.7073C133.181 33.6521 133.724 33.5456 134.249 33.3898C134.487 33.5279 134.762 33.6114 135.049 33.6322C135.336 33.653 135.624 33.6104 135.886 33.5085L135.919 33.4931C136.008 33.474 136.095 33.4482 136.179 33.416C136.441 33.2953 136.688 33.1534 136.917 32.9922C137.852 32.4097 138.969 32.0876 139.989 31.6222C141.726 30.8317 143.243 29.5295 143.685 27.8975C143.809 27.3685 143.875 26.831 143.884 26.2918C143.932 25.9029 143.894 25.5098 143.771 25.1329C143.651 24.837 143.427 24.5797 143.287 24.29C142.983 23.6612 143.105 22.9523 143.089 22.2727C143.067 20.9921 142.543 19.6977 141.485 18.7807C140.426 17.8638 138.842 17.3722 137.368 17.6388C136.974 17.7163 136.587 17.8194 136.212 17.947C136.043 17.9994 135.875 18.0549 135.708 18.1011C135.048 18.3061 134.389 18.4617 133.707 18.3277C132.89 18.1659 132.179 17.5849 131.343 17.6681C131.168 17.6879 130.999 17.7316 130.841 17.7975C130.54 17.8792 130.259 18.0043 130.009 18.1674C129.631 18.3956 129.273 18.647 128.938 18.9194C128.512 19.2662 128.105 19.6822 128.045 20.18C128.03 20.386 128.064 20.5924 128.144 20.7873C128.224 20.9822 128.348 21.1618 128.511 21.3157C127.539 21.6986 126.673 22.2492 125.967 22.9323C125.261 23.6154 124.732 24.4159 124.412 25.2825C124.093 26.1491 123.991 27.0627 124.112 27.9647C124.234 28.8667 124.577 29.7372 125.119 30.5204C125.104 30.5913 125.089 30.6632 125.073 30.7361C124.955 31.2808 124.803 31.8199 124.618 32.3512C124.624 32.2523 124.641 32.1541 124.671 32.0584C124.549 32.0352 124.424 32.0152 124.295 31.9967H124.236C124.122 31.9803 124.007 31.9659 123.891 31.9536H123.862C122.114 31.7671 119.98 31.932 118.769 32.5191C116.782 33.4888 115.228 34.988 114.351 36.7832C113.074 37.875 112.094 39.1898 111.479 40.6358C110.584 40.2776 109.602 40.1054 108.612 40.1334C107.139 37.6678 104.353 34.5949 100.701 37.8789C96.8573 41.3354 101.577 42.3479 104.813 42.6453C104.92 42.962 105.087 43.2618 105.308 43.533C105.542 43.8334 105.799 44.1207 106.077 44.3929C105.973 44.4207 105.863 44.4255 105.757 44.4067C105.013 44.2311 105.068 50.6695 108.394 52.5481C107.842 53.7224 107.125 54.8363 106.259 55.8659C105.034 57.3469 104.07 58.9713 103.398 60.6879C103.054 61.5832 102.809 62.4354 102.878 62.9224C102.885 62.9783 102.898 63.0335 102.918 63.0873C102.926 63.1099 102.937 63.132 102.949 63.1535C102.96 63.1734 102.973 63.1925 102.989 63.2106C103.003 63.2267 103.019 63.2416 103.036 63.2552C103.052 63.268 103.07 63.2794 103.089 63.2891C103.108 63.2985 103.128 63.3062 103.149 63.3123C103.17 63.3174 103.192 63.321 103.214 63.323H103.225C103.249 63.3245 103.274 63.3245 103.298 63.323H103.312C103.339 63.3213 103.366 63.3182 103.392 63.3138H103.411L103.492 63.2953H103.52L103.603 63.2676L103.64 63.2552L103.731 63.2183L103.771 63.2013L103.874 63.1504L103.913 63.132L104.042 63.0626L104.067 63.0487L104.233 62.9486C104.073 63.2136 103.887 63.5018 103.674 63.7992C102.623 65.254 100.895 66.9399 98.3487 67.4145C93.6197 68.2945 81.4498 81.4734 81.4498 81.4734C81.4498 81.4734 77.6976 81.2531 79.2181 91.387C80.7387 101.521 81.026 107.021 81.026 107.021L81.0933 107.056C79.6674 108.431 76.759 110.9 74.2308 110.929C70.7241 110.969 68.6579 112.923 70.324 114.145C71.99 115.367 90.1494 113.442 90.1494 113.442C90.1494 113.442 90.2694 109.422 89.4055 107.574C89.5506 107.466 89.6868 107.349 89.8129 107.224L88.9162 86.8995C88.9162 86.8995 100.253 78.6657 105.781 77.8674C105.744 77.8505 105.708 77.8351 105.673 77.8196C106.023 77.7733 106.378 77.7676 106.73 77.8027C111.561 78.359 115.228 97.018 115.228 97.018C115.228 97.018 116.117 99.9552 118.773 102.219C121.428 104.483 127.321 113.228 127.321 113.228L127.567 113.205L127.599 113.253C127.599 114.578 127.361 116.568 126.144 118.119C124.144 120.674 129.758 121.664 129.758 121.664C129.758 121.664 133.842 122.624 134.133 119.2Z" fill="url(#paint0_linear)"/>
<path d="M82.7885 106.212C82.7885 106.212 78.5633 110.917 75.0675 110.958C71.5717 111 69.5109 112.94 71.1734 114.154C72.8358 115.369 90.9515 113.461 90.9515 113.461C90.9515 113.461 91.1225 107.679 89.5547 106.834C87.9868 105.99 82.7885 106.212 82.7885 106.212Z" fill="#444176"/>
<path d="M128.16 111.86C128.16 111.86 128.807 115.586 126.81 118.127C124.813 120.668 130.415 121.648 130.415 121.648C130.415 121.648 134.484 122.608 134.78 119.204C135.077 115.8 134.98 113.194 134.598 112.917C134.216 112.639 133.898 110.724 133.898 110.724L128.16 111.86Z" fill="#444176"/>
<path d="M127.981 113.27C127.981 113.27 122.096 104.572 119.447 102.328C116.799 100.085 115.91 97.1566 115.91 97.1566C115.91 97.1566 112.247 78.604 107.428 78.0477C102.61 77.4914 89.3927 87.0628 89.3927 87.0628L90.3349 107.263C87.4666 110.08 81.8391 107.084 81.8391 107.084C81.8391 107.084 81.5499 101.604 80.033 91.5272C78.516 81.4503 82.2538 81.6645 82.2538 81.6645C82.2538 81.6645 94.38 68.5657 99.0981 67.6903C101.644 67.2203 103.358 65.5437 104.407 64.0982C104.939 63.3699 105.376 62.5948 105.71 61.7866L125.868 63.6128L124.082 77.7672C124.082 77.7672 123.834 96.3214 125.064 96.551C126.294 96.7806 133.929 109.305 134.413 111.004C134.897 112.704 127.981 113.27 127.981 113.27Z" fill="#1205A9"/>
<g opacity="0.1">
<path opacity="0.1" d="M106.484 78.1001C106.266 77.9908 106.024 77.9181 105.773 77.8859C100.955 77.3311 87.7374 86.901 87.7374 86.901L88.6814 107.106C87.821 107.95 86.7116 108.272 85.5893 108.309C87.2936 108.645 89.267 108.617 90.6221 107.281L89.6708 87.072C89.6708 87.072 100.973 78.8937 106.484 78.1001Z" fill="black"/>
<path opacity="0.1" d="M134.687 111.032C134.204 109.337 126.568 96.8082 125.339 96.5786C124.109 96.349 124.356 77.7949 124.356 77.7949L126.142 63.6404L124.209 63.4647L122.423 77.6192C122.423 77.6192 122.176 96.1733 123.405 96.4029C124.635 96.6325 132.27 109.157 132.754 110.856C133.081 112.008 130.026 112.635 128.005 112.92L128.258 113.29C128.258 113.29 135.171 112.732 134.687 111.032Z" fill="black"/>
</g>
<path d="M137.819 39.7327C137.819 39.7327 118.756 39.1887 122.241 37.0205C124.391 35.6813 125.32 33.0631 125.719 31.2524C125.863 30.6125 125.959 29.9655 126.006 29.3153C126.006 29.3153 136.168 28.4616 133.669 31.6654C133.014 32.5068 132.987 33.4607 133.305 34.41C134.202 37.0852 137.819 39.7327 137.819 39.7327Z" fill="#FFBEC7"/>
<path d="M117.083 35.8431C117.083 35.8431 112.47 38.0283 111.561 43.0337C110.651 48.039 109.904 42.8796 109.904 42.8796C109.904 42.8796 107.261 45.0062 106.448 44.8151C105.635 44.624 105.779 52.3262 110.124 53.3124C114.469 54.2987 117.901 38.1624 117.901 38.1624L117.083 35.8431Z" fill="#DFE5EE"/>
<path opacity="0.05" d="M117.083 35.8431C117.083 35.8431 112.47 38.0283 111.561 43.0337C110.651 48.039 109.904 42.8796 109.904 42.8796C109.904 42.8796 107.261 45.0062 106.448 44.8151C105.635 44.624 105.779 52.3262 110.124 53.3124C114.469 54.2987 117.901 38.1624 117.901 38.1624L117.083 35.8431Z" fill="black"/>
<path d="M110.469 42.9334C110.469 42.9334 106.926 33.3789 101.415 38.3272C95.9041 43.2755 108.063 43.1892 108.063 43.1892L110.469 42.9334Z" fill="#FFBEC7"/>
<path opacity="0.1" d="M133.671 31.6669C133.016 32.5083 132.989 33.4622 133.307 34.4115C131.816 34.5763 130.3 34.3645 128.95 33.8025C127.6 33.2405 126.476 32.3534 125.719 31.2524C125.863 30.6125 125.959 29.9655 126.006 29.3153C126.006 29.3153 136.17 28.4615 133.671 31.6669Z" fill="black"/>
<path d="M139.898 28.6807C140.501 25.1436 137.606 21.8621 133.431 21.3511C129.256 20.8402 125.383 23.2933 124.78 26.8303C124.177 30.3674 127.072 33.6489 131.247 34.1598C135.422 34.6708 139.295 32.2177 139.898 28.6807Z" fill="#FFBEC7"/>
<path opacity="0.1" d="M125.868 63.6158L125.606 65.6855C123.381 65.1815 108.121 61.8328 104.891 63.8454C104.738 63.9427 104.576 64.0297 104.407 64.1059C104.939 63.3776 105.375 62.6025 105.709 61.7943L125.868 63.6158Z" fill="black"/>
<path d="M141.766 47.1899C140.75 50.5447 137.07 53.3957 134.335 55.1201C133.328 55.7606 132.277 56.3483 131.186 56.8799C131.186 56.8799 128.354 58.2777 126.855 61.4014C126.285 62.5974 125.977 63.8717 125.946 65.1615C125.946 65.1615 108.445 61.0916 104.96 63.2599C103.129 64.4003 103.418 62.7883 104.105 61.0038C104.775 59.2972 105.735 57.6826 106.955 56.2111C107.918 55.0384 109.125 53.3201 109.489 51.719C109.971 49.5924 113.243 41.5034 114.764 37.8049C115.579 35.7805 117.235 34.0764 119.424 33.0107C120.835 32.3342 123.476 32.2217 125.317 32.5654C125.317 32.5654 124.724 34.2374 127.448 34.5363C127.743 34.5687 128.036 34.6134 128.325 34.6704C129.416 34.8877 132.106 35.3207 133.3 34.5903L135.775 35.9973C135.775 35.9973 143.442 41.6621 141.766 47.1899Z" fill="#DFE5EE"/>
<path opacity="0.1" d="M133.713 24.857C133.885 24.5827 133.76 24.2283 133.512 23.9971C133.247 23.7807 132.932 23.6124 132.587 23.5025L130.926 22.8645C130.367 22.6772 129.846 22.4172 129.382 22.0939C128.938 21.7518 128.618 21.2572 128.678 20.7532C128.738 20.2493 129.144 19.844 129.569 19.5004C129.903 19.2296 130.26 18.9798 130.637 18.753C130.938 18.5472 131.295 18.4084 131.675 18.3492C132.507 18.266 133.216 18.8439 134.031 19.0057C135.259 19.2492 136.439 18.5295 137.669 18.3076C139.138 18.0425 140.726 18.5326 141.774 19.4434C142.821 20.3541 143.352 21.6424 143.374 22.9153C143.387 23.5918 143.271 24.3023 143.573 24.9187C143.711 25.2068 143.936 25.4627 144.055 25.757C144.177 26.1318 144.216 26.5229 144.167 26.9097C144.162 27.4478 144.098 27.9842 143.976 28.5124C143.536 30.1351 142.023 31.428 140.291 32.2109C139.273 32.6732 138.16 32.9937 137.228 33.5716C137.002 33.7313 136.759 33.8721 136.501 33.9923C136.241 34.0925 135.954 34.1343 135.669 34.1135C135.385 34.0927 135.111 34.0101 134.875 33.8737C134.71 33.784 134.573 33.661 134.478 33.5158C134.383 33.3706 134.332 33.2076 134.329 33.0415C134.347 32.7117 134.609 32.4328 134.811 32.1508C135.339 31.4157 135.462 30.374 134.76 29.7498C134.453 29.4771 134.033 29.3168 133.729 29.0379C133.241 28.5756 133.183 27.9098 133.167 27.2934C133.12 26.1423 133.085 24.9433 133.653 23.9031" fill="black"/>
<path d="M133.805 23.9047C133.54 23.6882 133.225 23.5199 132.879 23.41L131.219 22.772C130.66 22.5847 130.139 22.3248 129.675 22.0015C129.231 21.6594 128.911 21.1647 128.971 20.6608C129.031 20.1569 129.436 19.7516 129.862 19.4079C130.196 19.1371 130.553 18.8873 130.93 18.6605C131.231 18.4547 131.588 18.316 131.968 18.2567C132.799 18.1735 133.509 18.7514 134.324 18.9132C135.551 19.1567 136.732 18.437 137.961 18.2151C139.431 17.9501 141.019 18.4401 142.067 19.3509C143.114 20.2616 143.645 21.55 143.667 22.8229C143.68 23.4994 143.563 24.2098 143.865 24.8262C144.004 25.1144 144.229 25.3702 144.347 25.6645C144.47 26.0393 144.508 26.4304 144.46 26.8172C144.452 27.3534 144.387 27.8878 144.264 28.4138C143.824 30.0365 142.31 31.3294 140.579 32.1123C139.56 32.5746 138.447 32.8951 137.516 33.473C137.29 33.6326 137.046 33.7735 136.788 33.8937C136.528 33.9939 136.242 34.0356 135.957 34.0148C135.672 33.9941 135.398 33.9115 135.162 33.775C134.997 33.6854 134.861 33.5624 134.766 33.4172C134.67 33.272 134.619 33.109 134.616 32.9429C134.635 32.6131 134.897 32.3342 135.098 32.0522C135.626 31.3171 135.75 30.2753 135.048 29.6512C134.74 29.3784 134.32 29.2182 134.016 28.9392C133.529 28.4769 133.471 27.8112 133.454 27.1948C133.407 26.0436 133.176 24.9587 133.743 23.9124" fill="#88455E"/>
<path opacity="0.1" d="M139.025 50.2195C137.907 51.3152 136.297 52.9487 134.34 55.12C133.334 55.7605 132.282 56.3482 131.192 56.8799C131.192 56.8799 128.36 58.2776 126.861 61.4013C120.901 61.6664 113.696 51.628 113.696 51.628L118.414 47.441L126.457 52.3107L129.076 47.5566C129.771 46.2941 130.842 45.2069 132.184 44.4022C133.526 43.5974 135.092 43.1029 136.728 42.9673L136.854 42.9581C138.529 42.8287 139.497 43.6762 140.053 44.7488C140.508 45.65 140.653 46.6418 140.471 47.6098C140.29 48.5779 139.788 49.4826 139.025 50.2195Z" fill="black"/>
<g opacity="0.05">
<path opacity="0.05" d="M124.074 32.4528C124.074 32.4528 123.481 34.1249 126.206 34.4238C126.501 34.4562 126.793 34.5009 127.083 34.5579C127.894 34.7226 128.72 34.8283 129.552 34.8738C129.063 34.8091 128.63 34.732 128.325 34.6704C128.019 34.6088 127.743 34.5687 127.448 34.5363C124.72 34.2374 125.317 32.5653 125.317 32.5653C124.781 32.4689 124.236 32.4102 123.689 32.3896C123.821 32.4097 123.951 32.4297 124.074 32.4528Z" fill="black"/>
<path opacity="0.05" d="M135.777 35.9988L133.301 34.5918C133.116 34.7012 132.911 34.785 132.694 34.8399L134.534 35.8863C134.534 35.8863 142.199 41.5496 140.524 47.0773C139.507 50.4322 135.828 53.2831 133.092 55.0075C132.086 55.648 131.035 56.2357 129.944 56.7674C129.944 56.7674 127.112 58.1651 125.613 61.2888C125.07 62.4328 124.767 63.6485 124.718 64.881C125.495 65.0489 125.951 65.1553 125.951 65.1553C125.982 63.8654 126.29 62.5912 126.861 61.3951C128.359 58.2714 131.191 56.8737 131.191 56.8737C132.282 56.3421 133.334 55.7543 134.34 55.1139C137.068 53.391 140.755 50.5385 141.772 47.1837C143.441 41.6621 135.777 35.9988 135.777 35.9988Z" fill="black"/>
<path opacity="0.05" d="M103.723 63.1473L103.592 63.2244C103.661 63.7113 104.047 63.8315 104.965 63.2598C106.057 62.5849 108.492 62.514 111.331 62.7374C107.974 62.3938 104.962 62.3768 103.723 63.1473Z" fill="black"/>
</g>
<path opacity="0.05" d="M108.62 53.8394C108.62 53.8394 110.026 56.9215 111.977 58.0388C113.929 59.156 116.485 61.05 116.485 61.05" fill="black"/>
<path d="M135.206 109.369L132.274 98.6406C131.023 96.8792 129.737 95.933 128.658 95.4291C127.269 94.7048 126.163 94.7094 125.814 94.7356L125.421 94.3843C123.926 92.5951 123.133 87.9119 123.133 87.9119C123.054 85.7159 121.412 84.2288 119.298 83.2241C115.737 81.4164 110.63 81.0666 109.544 81.0126L108.678 79.5533L108.445 79.5055L108.391 79.413C108.209 79.3714 108.003 79.336 107.805 79.3021L109.337 52.6744L109.351 52.4171L115.399 52.6667C115.872 52.6711 116.329 52.52 116.674 52.245C117.019 51.9701 117.225 51.5927 117.248 51.1921C117.272 50.7914 117.111 50.3986 116.8 50.096C116.489 49.7935 116.052 49.6047 115.581 49.5692L108.5 49.2764V49.147L109.162 37.6415V37.5121C109.477 37.3031 109.736 37.0386 109.919 36.7369C110.102 36.4353 110.207 36.1035 110.224 35.7646C110.248 35.4657 110.202 35.1658 110.087 34.8824C109.973 34.5989 109.793 34.3377 109.558 34.1139C109.323 33.8901 109.037 33.7083 108.719 33.579C108.4 33.4498 108.053 33.3757 107.7 33.3612C107.347 33.3466 106.994 33.3919 106.662 33.4943C106.33 33.5967 106.025 33.7542 105.765 33.9577C105.506 34.1611 105.297 34.4063 105.15 34.679C105.004 34.9516 104.923 35.2463 104.913 35.5457C104.892 35.8845 104.957 36.2231 105.105 36.5383C105.253 36.8535 105.48 37.1379 105.77 37.3719V37.5013L105.104 49.0083V49.1377L98.016 48.8542C97.5426 48.8498 97.0855 49.0009 96.7407 49.2758C96.396 49.5508 96.1902 49.9281 96.1667 50.3288C96.1432 50.7295 96.3037 51.1223 96.6146 51.4248C96.9254 51.7274 97.3625 51.9162 97.8342 51.9517L103.587 52.189L103.573 52.4463L102.021 79.4146C99.7972 79.6514 97.5991 80.0385 95.4478 80.5719L92.9451 88.0999L85.6351 89.2218L81.8265 96.3106L78.2761 101.586C77.8996 101.703 77.534 101.828 77.1847 101.955C63.9526 106.686 63.416 118.435 63.416 118.435C67.1029 123.761 85.7206 121.426 85.7206 121.426C96.3463 129.497 117.467 124.808 117.467 124.808C122.56 125.871 126.59 126.332 129.77 126.435C138.635 126.722 140.865 124.22 140.865 124.22C144.055 117.366 135.206 109.369 135.206 109.369Z" fill="url(#paint1_linear)"/>
<path d="M105.873 37.3068L104.172 50.7881L107.562 51.095L109.262 37.6137L105.873 37.3068Z" fill="#1205A9"/>
<path d="M102.751 51.4171L98.9405 81.6251L104.686 82.1454L108.497 51.9374L102.751 51.4171Z" fill="#F0F5FA"/>
<path opacity="0.05" d="M108.505 51.9371L105.706 51.6836L101.895 81.8916L104.695 82.1451L108.505 51.9371Z" fill="black"/>
<path opacity="0.1" d="M102.752 51.4183L102.595 52.6671L108.34 53.1874L108.498 51.9385L102.752 51.4183Z" fill="black"/>
<path opacity="0.1" d="M104.345 49.416L104.172 50.7889L107.562 51.0958L107.735 49.7228L104.345 49.416Z" fill="black"/>
<path d="M114.796 50.4851L97.2657 48.8978C96.2888 48.8094 95.4123 49.4083 95.308 50.2355C95.2036 51.0627 95.911 51.8051 96.8878 51.8935L114.418 53.4808C115.395 53.5693 116.272 52.9704 116.376 52.1431C116.48 51.3159 115.773 50.5736 114.796 50.4851Z" fill="#1205A9"/>
<path d="M64.2816 118.898C64.2816 118.898 64.1343 106.847 78.2085 101.946L81.4679 96.6742L84.8764 89.644L92.1372 88.2571L94.2107 80.8508C94.2107 80.8508 102.214 78.4653 107.397 79.3437L108.434 80.8508C108.434 80.8508 121.77 80.726 122.361 86.8763C122.361 86.8763 123.694 92.5257 125.62 93.5305C125.62 93.5305 128.88 92.9033 132.139 96.9208L135.695 107.215C135.695 107.215 145.029 114.621 142.214 121.4C142.214 121.4 138.361 126.045 118.803 122.907C118.803 122.907 97.9121 128.301 86.7917 120.904C86.8044 120.906 68.2831 123.918 64.2816 118.898Z" fill="#3F3D56"/>
<path opacity="0.1" d="M73.616 117.015C73.616 117.015 76.5789 113.499 76.4316 110.989C76.2842 108.479 77.13 102.352 77.13 102.352" stroke="black" stroke-miterlimit="10"/>
<path opacity="0.1" d="M84.4327 107.599C84.4327 107.599 87.3956 102.954 87.0991 100.444C87.0991 100.444 90.2111 95.6664 92.5811 96.0501" stroke="black" stroke-miterlimit="10"/>
<path opacity="0.1" d="M100.731 94.4181C100.731 94.4181 108.88 91.9078 109.325 89.8983" stroke="black" stroke-miterlimit="10"/>
<path opacity="0.1" d="M103.694 100.192C103.694 100.192 112.288 96.9347 112.288 96.0501H116.585C116.585 96.0501 122.807 102.954 122.067 105.968" stroke="black" stroke-miterlimit="10"/>
<path opacity="0.1" d="M113.771 105.213C113.771 105.213 105.473 104.711 102.51 106.72C99.5473 108.73 94.2126 109.733 94.2126 109.733C94.2126 109.733 91.1006 115.383 89.9165 116.387C88.7324 117.392 86.8045 120.907 86.8045 120.907" stroke="black" stroke-miterlimit="10"/>
<path opacity="0.1" d="M113.771 111.867C113.771 111.867 114.653 114.503 115.844 116.01C117.036 117.517 118.807 122.914 118.807 122.914" stroke="black" stroke-miterlimit="10"/>
<path opacity="0.1" d="M127.698 119.525C127.698 119.525 129.578 123.958 131.232 123.994" stroke="black" stroke-miterlimit="10"/>
<path opacity="0.1" d="M115.38 100.495C115.38 100.495 120.266 101.613 122.308 104.324C124.351 107.035 130.597 109.494 130.597 109.494" stroke="black" stroke-miterlimit="10"/>
<path opacity="0.1" d="M117.474 87.1367C117.474 87.1367 117.474 92.911 119.4 92.911C121.326 92.911 125.624 93.5444 125.624 93.5444" stroke="black" stroke-miterlimit="10"/>
<path opacity="0.1" d="M108.04 80.2838C108.04 80.2838 107.547 90.2589 105.029 92.8402" stroke="black" stroke-miterlimit="10"/>
<g opacity="0.05">
<path opacity="0.05" d="M135.402 107.096L131.846 96.8022C128.587 92.7847 125.328 93.4119 125.328 93.4119C123.402 92.4087 122.068 86.7638 122.068 86.7638C121.475 80.612 108.141 80.7383 108.141 80.7383L107.105 79.2312C105.792 79.0093 104.298 78.9954 102.801 79.1002C103.165 79.131 103.509 79.1742 103.845 79.2312L104.882 80.7383C104.882 80.7383 118.218 80.6135 118.809 86.7638C118.809 86.7638 120.142 92.4133 122.068 93.418C122.068 93.418 125.328 92.7908 128.587 96.8083L132.143 107.103C132.143 107.103 141.477 114.503 138.662 121.283C138.662 121.283 136.761 123.575 128.853 123.851C139.513 124.182 141.921 121.283 141.921 121.283C144.737 114.503 135.402 107.096 135.402 107.096Z" fill="black"/>
<path opacity="0.05" d="M83.2468 120.781C80.11 121.256 76.9383 121.547 73.7542 121.651C77.4647 121.772 81.3261 121.433 83.8143 121.141C83.6239 121.024 83.4347 120.904 83.2468 120.781Z" fill="black"/>
<path opacity="0.05" d="M115.251 122.789C110.689 123.873 105.993 124.502 101.259 124.663C108.089 124.872 114.558 123.667 117.226 123.088C116.586 122.997 115.926 122.898 115.251 122.789Z" fill="black"/>
</g>
<path opacity="0.05" d="M109.206 37.5446L107.437 37.3844L105.894 49.6168L107.663 49.777L109.206 37.5446Z" fill="black"/>
<path opacity="0.1" d="M109.267 37.6184L109.144 38.5985C108.625 38.89 108.003 39.0187 107.384 38.9625C106.765 38.9062 106.189 38.6684 105.755 38.2903L105.879 37.3102L109.267 37.6184Z" fill="black"/>
<path d="M110.329 36.8281C110.486 35.5875 109.425 34.4742 107.961 34.3416C106.497 34.2091 105.183 35.1073 105.027 36.348C104.87 37.5886 105.93 38.7018 107.395 38.8344C108.859 38.967 110.173 38.0688 110.329 36.8281Z" fill="#1205A9"/>
<path opacity="0.05" d="M110.335 36.834C110.259 37.4294 109.907 37.9749 109.356 38.3505C108.806 38.7262 108.102 38.9013 107.399 38.8374L107.967 34.3437C108.315 34.3752 108.653 34.4646 108.961 34.6069C109.269 34.7491 109.54 34.9414 109.76 35.1727C109.98 35.404 110.144 35.6698 110.243 35.9549C110.341 36.24 110.373 36.5387 110.335 36.834Z" fill="black"/>
<path d="M119.473 47.891L117.614 50.4445L115.835 49.1362L113.398 47.3424C113.398 47.3424 108.891 47.6506 106.006 43.9521C104.769 42.3695 105.731 41.4633 107.232 40.9471C108.474 40.5298 109.841 40.4619 111.131 40.7532C112.422 41.0446 113.568 41.6798 114.4 42.5652L119.473 47.891Z" fill="#FFBEC7"/>
<path opacity="0.1" d="M119.473 47.891L117.616 50.4445L115.837 49.1346L118.451 46.8169L119.473 47.891Z" fill="black"/>
<path d="M129.687 47.139L127.068 51.8916L119.018 47.0219L114.307 51.2089C114.307 51.2089 125.115 66.268 131.204 59.0096C134.898 54.6007 137.874 51.531 139.64 49.8004C140.404 49.0639 140.906 48.1594 141.089 47.1913C141.271 46.2231 141.126 45.231 140.671 44.3297C140.115 43.2509 139.147 42.4111 137.472 42.539L137.347 42.5497C135.709 42.6842 134.141 43.1783 132.798 43.9831C131.455 44.7879 130.383 45.8757 129.687 47.139Z" fill="#DFE5EE"/>
<path d="M167.187 101.766C167.187 101.766 164.775 94.8311 167.64 89.7241C168.857 87.5893 169.224 85.1776 168.685 82.8511C168.42 81.7485 168.036 80.6689 167.538 79.6257" stroke="#535461" stroke-width="2" stroke-miterlimit="10"/>
<path d="M169.317 76.3987C169.317 77.2494 167.498 79.7135 167.498 79.7135C167.498 79.7135 165.679 77.2478 165.679 76.3987C165.679 75.99 165.87 75.598 166.212 75.309C166.553 75.02 167.015 74.8577 167.498 74.8577C167.98 74.8577 168.443 75.02 168.784 75.309C169.125 75.598 169.317 75.99 169.317 76.3987Z" fill="#6C63FF"/>
<path d="M172.321 81.1065C171.775 81.82 168.669 83.0528 168.669 83.0528C168.669 83.0528 168.725 80.1465 169.271 79.433C169.543 79.1102 169.951 78.8888 170.411 78.8147C170.871 78.7406 171.347 78.8195 171.74 79.0351C172.133 79.2506 172.412 79.5862 172.521 79.972C172.629 80.3579 172.557 80.7642 172.321 81.1065Z" fill="#6C63FF"/>
<path d="M172.188 89.1539C171.292 89.5361 167.876 89.2726 167.876 89.2726C167.876 89.2726 169.657 86.7884 170.551 86.4063C170.766 86.3047 171.002 86.241 171.246 86.2188C171.49 86.1967 171.737 86.2166 171.971 86.2774C172.206 86.3382 172.424 86.4386 172.611 86.5726C172.799 86.7066 172.953 86.8714 173.063 87.057C173.174 87.2427 173.239 87.4453 173.255 87.6529C173.27 87.8604 173.236 88.0684 173.154 88.2645C173.073 88.4605 172.945 88.6405 172.779 88.7937C172.613 88.9468 172.412 89.0699 172.188 89.1555V89.1539Z" fill="#6C63FF"/>
<path d="M170.471 95.2242C169.664 95.7296 166.244 95.9577 166.244 95.9577C166.244 95.9577 167.503 93.2547 168.311 92.7492C168.501 92.6171 168.722 92.5192 168.958 92.4614C169.195 92.4036 169.443 92.3871 169.687 92.413C169.932 92.4389 170.167 92.5065 170.38 92.6118C170.593 92.7171 170.778 92.858 170.924 93.0257C171.071 93.1935 171.176 93.3847 171.232 93.5878C171.289 93.7909 171.296 94.0016 171.254 94.2071C171.211 94.4127 171.12 94.6088 170.986 94.7837C170.851 94.9585 170.676 95.1083 170.471 95.2242Z" fill="#6C63FF"/>
<path d="M164.853 83.2194C165.581 83.8111 168.925 84.426 168.925 84.426C168.925 84.426 168.105 81.6044 167.385 81.0126C167.217 80.8588 167.014 80.7355 166.789 80.6502C166.563 80.565 166.319 80.5197 166.072 80.517C165.825 80.5143 165.58 80.5543 165.351 80.6345C165.123 80.7148 164.916 80.8336 164.744 80.9837C164.572 81.1339 164.438 81.3122 164.349 81.5078C164.261 81.7034 164.221 81.9122 164.231 82.1214C164.241 82.3306 164.302 82.5359 164.409 82.7246C164.515 82.9134 164.667 83.0818 164.853 83.2194Z" fill="#6C63FF"/>
<path d="M162.952 90.3375C163.849 90.7196 167.265 90.4561 167.265 90.4561C167.265 90.4561 165.484 87.972 164.589 87.5898C164.375 87.4883 164.139 87.4245 163.895 87.4024C163.651 87.3802 163.404 87.4002 163.169 87.461C162.935 87.5218 162.717 87.6222 162.529 87.7562C162.342 87.8901 162.188 88.0549 162.077 88.2406C161.967 88.4262 161.902 88.6289 161.886 88.8364C161.87 89.0439 161.904 89.2519 161.986 89.448C162.068 89.644 162.196 89.8241 162.362 89.9772C162.528 90.1303 162.729 90.2534 162.952 90.339V90.3375Z" fill="#6C63FF"/>
<path d="M162.223 97.4726C163.031 97.978 166.45 98.2061 166.45 98.2061C166.45 98.2061 165.191 95.5031 164.384 94.9976C163.995 94.778 163.522 94.6934 163.062 94.7615C162.601 94.8295 162.19 95.0449 161.912 95.3631C161.634 95.6813 161.512 96.0778 161.569 96.4705C161.627 96.8632 161.861 97.222 162.223 97.4726Z" fill="#6C63FF"/>
<path d="M13.5723 77.9598C13.5723 77.9598 21.1824 84.4075 16.8862 93.9743C12.5901 103.541 24.2562 119.451 24.2562 119.451C24.2562 119.451 24.1307 119.435 23.8924 119.401C8.26309 117.064 0.498431 101.92 9.18888 90.6687C12.421 86.4848 15.0728 81.5781 13.5723 77.9598Z" fill="#6C63FF"/>
<path opacity="0.1" d="M13.5723 78.0662C13.5723 78.0662 21.1824 84.5139 16.8862 94.0807C12.5901 103.648 24.2562 119.557 24.2562 119.557C24.2562 119.557 24.1307 119.542 23.8924 119.508C8.26491 117.17 0.500257 102.02 9.19071 90.7706C12.421 86.5928 15.0729 81.6784 13.5723 78.0662Z" fill="black"/>
<path d="M13.5722 77.9598C13.5722 77.9598 17.8683 85.8622 13.5722 92.3099C9.27612 98.7577 12.8447 116.851 24.2507 119.451" stroke="#535461" stroke-miterlimit="10"/>
<path d="M0.0200453 104.036C0.0200453 104.036 8.70322 102.865 9.49442 109.457C10.2856 116.05 26.1914 116.968 26.1914 116.968L25.8931 117.133C12.7611 124.438 0.205568 121.786 2.09899 112.086C2.79379 108.482 2.74468 104.86 0.0200453 104.036Z" fill="#6C63FF"/>
<path d="M0.0200453 104.036C0.0200453 104.036 6.76069 105.289 6.20412 110.482C5.64756 115.675 16.2151 121.9 26.1914 116.968" stroke="#535461" stroke-miterlimit="10"/>
<path d="M159.782 100.294C159.782 100.294 163.858 100.188 165.086 99.4466C166.313 98.7053 171.355 97.8208 171.659 99.0089C171.963 100.197 177.783 104.919 173.183 104.951C168.583 104.984 162.492 104.344 161.266 103.718C160.04 103.093 159.782 100.294 159.782 100.294Z" fill="#3F3D56"/>
<path opacity="0.2" d="M173.265 104.538C168.663 104.569 162.574 103.931 161.348 103.305C160.415 102.823 160.042 101.095 159.918 100.297H159.782C159.782 100.297 160.04 103.082 161.266 103.715C162.492 104.349 168.582 104.987 173.183 104.948C174.511 104.939 174.969 104.538 174.946 103.946C174.76 104.307 174.253 104.53 173.265 104.538Z" fill="black"/>
<path d="M32.9248 117.514C32.9248 117.514 26.0841 116.352 24.2562 114.811C22.4282 113.27 14.2252 110.562 13.314 112.499C12.4027 114.436 1.00766 120.99 8.75959 122.149C16.5115 123.308 26.9972 123.69 29.2762 122.92C31.5552 122.149 32.9248 117.514 32.9248 117.514Z" fill="#3F3D56"/>
<path opacity="0.2" d="M8.75959 121.437C16.5115 122.596 26.9972 122.978 29.2762 122.208C31.0132 121.619 32.2191 118.793 32.6956 117.477L32.923 117.517C32.923 117.517 31.5552 122.152 29.2762 122.924C26.9972 123.696 16.5097 123.311 8.75959 122.154C6.5224 121.819 5.88217 121.034 6.12408 120.04C6.31324 120.684 7.09352 121.183 8.75959 121.437Z" fill="black"/>
</g>
<defs>
<linearGradient id="paint0_linear" x1="101.58" y1="119.142" x2="111.004" y2="15.0723" gradientUnits="userSpaceOnUse">
<stop stop-color="#808080" stop-opacity="0.25"/>
<stop offset="0.54" stop-color="#808080" stop-opacity="0.12"/>
<stop offset="1" stop-color="#808080" stop-opacity="0.1"/>
</linearGradient>
<linearGradient id="paint1_linear" x1="43739.2" y1="79378.3" x2="46192.3" y2="23209.4" gradientUnits="userSpaceOnUse">
<stop stop-color="#808080" stop-opacity="0.25"/>
<stop offset="0.54" stop-color="#808080" stop-opacity="0.12"/>
<stop offset="1" stop-color="#808080" stop-opacity="0.1"/>
</linearGradient>
<clipPath id="clip0">
<rect width="194" height="135" fill="white"/>
</clipPath>
</defs>
</svg>
