<svg width="191" height="148" viewBox="0 0 191 148" fill="none" xmlns="http://www.w3.org/2000/svg">
<g clip-path="url(#clip0)">
<path opacity="0.1" d="M178.962 83.7805C171.925 94.438 173.706 109.251 177.249 120.985C178.442 124.912 179.791 129.063 178.99 133.404C178.01 138.713 174.014 142.802 169.919 145.091C162.455 149.266 153.791 148.923 147.364 144.201C141.809 140.119 138.034 133.154 132.365 129.272C122.89 122.8 110.238 126.263 99.3126 131.826C91.583 135.757 83.0967 140.771 75.7711 137.626C70.6169 135.412 67.2762 129.451 65.6161 123.015C64.815 119.907 64.29 116.522 62.5822 114.125C61.5595 112.7 60.196 111.722 58.783 110.928C45.8788 103.594 28.8533 109.015 16.3683 100.768C7.94332 95.2084 2.9306 84.031 1.05914 72.1656C-0.812327 60.3001 0.109769 47.6796 1.36082 35.2599C2.24883 26.4351 3.52203 16.9942 8.41204 9.9195C13.585 2.43645 21.9759 -0.749977 29.3765 0.14744C36.7771 1.04486 43.2846 5.48904 48.9485 10.8547C56.027 17.5467 62.4765 26.0335 71.464 28.3569C77.5846 29.9441 84.1807 28.4547 90.6132 27.6705C101.368 26.375 112.026 27.0957 122.612 27.9519C132.748 28.7721 142.949 29.7347 152.469 33.2317C159.205 35.7061 164.458 40.6341 170.773 43.9115C174.889 46.0478 179.474 46.4219 183.331 49.2308C188.083 52.6884 192.282 58.9583 190.631 66.7056C189.061 74.0822 182.697 78.118 178.962 83.7805Z" fill="#6C63FF"/>
<path opacity="0.1" d="M157.096 43.9992H150.126V54.6206H157.096V43.9992Z" fill="#6C63FF"/>
<path opacity="0.1" d="M156.417 45.0322H150.803V53.5877H156.417V45.0322Z" fill="#6C63FF"/>
<path opacity="0.1" d="M146.683 36.6208H135.979V47.2422H146.683V36.6208Z" fill="#6C63FF"/>
<path opacity="0.1" d="M145.642 37.6537H137.019V46.2092H145.642V37.6537Z" fill="#6C63FF"/>
<path opacity="0.1" d="M43.7305 20.8174H11.014V21.6942H43.7305V20.8174Z" fill="#6C63FF"/>
<path opacity="0.1" d="M43.7305 25.1053H11.014V25.9822H43.7305V25.1053Z" fill="#6C63FF"/>
<path d="M69.5475 77.6669H66.2051V115.269H69.5475V77.6669Z" fill="#D6D6E3"/>
<path d="M167.177 81.6151V46.9299C167.178 45.9631 167.559 45.0361 168.238 44.3526C168.918 43.6692 169.839 43.2853 170.799 43.2853C171.758 43.2871 172.677 43.6718 173.355 44.3551C174.033 45.0383 174.414 45.9643 174.414 46.9299V88.9077C174.414 89.8748 174.032 90.8022 173.353 91.486C172.674 92.1698 171.753 92.554 170.792 92.554H148.36C147.4 92.554 146.478 92.1698 145.799 91.486C145.12 90.8022 144.738 89.8748 144.738 88.9077C144.738 87.9406 145.12 87.0132 145.799 86.3294C146.478 85.6456 147.4 85.2614 148.36 85.2614H163.555C164.516 85.2614 165.437 84.8772 166.116 84.1934C166.795 83.5096 167.177 82.5822 167.177 81.6151Z" fill="#AEBEE1"/>
<path d="M167.177 81.6151V46.9299C167.178 45.9631 167.559 45.0361 168.238 44.3526C168.918 43.6692 169.839 43.2853 170.799 43.2853C171.758 43.2871 172.677 43.6718 173.355 44.3551C174.033 45.0383 174.414 45.9643 174.414 46.9299V88.9077C174.414 89.8748 174.032 90.8022 173.353 91.486C172.674 92.1698 171.753 92.554 170.792 92.554H148.36C147.4 92.554 146.478 92.1698 145.799 91.486C145.12 90.8022 144.738 89.8748 144.738 88.9077C144.738 87.9406 145.12 87.0132 145.799 86.3294C146.478 85.6456 147.4 85.2614 148.36 85.2614H163.555C164.516 85.2614 165.437 84.8772 166.116 84.1934C166.795 83.5096 167.177 82.5822 167.177 81.6151Z" fill="#535461"/>
<path d="M144.743 88.7121C144.793 87.7802 145.196 86.903 145.869 86.2611C146.542 85.6191 147.433 85.2614 148.36 85.2614H163.555C164.516 85.2614 165.437 84.8772 166.116 84.1934C166.796 83.5096 167.177 82.5821 167.177 81.6151V46.9299C167.177 45.9927 167.534 45.0912 168.176 44.4126C168.818 43.734 169.695 43.3303 170.625 43.2853V88.7121H144.743Z" fill="#D6D6E3"/>
<path d="M32.8102 82.7854V48.1002C32.8102 47.1346 32.4297 46.2084 31.7523 45.5249C31.075 44.8413 30.1559 44.4561 29.1968 44.4539C28.2362 44.4539 27.3149 44.838 26.6357 45.5218C25.9565 46.2056 25.5749 47.1331 25.5749 48.1002V90.078C25.5737 90.5576 25.6666 91.0326 25.8481 91.476C26.0296 91.9194 26.2962 92.3224 26.6327 92.6619C26.9691 93.0014 27.3688 93.2707 27.8088 93.4545C28.2488 93.6383 28.7204 93.7329 29.1968 93.7329H51.6271C52.5876 93.7329 53.5089 93.3487 54.1881 92.6649C54.8674 91.9811 55.249 91.0536 55.249 90.0866C55.249 89.1195 54.8674 88.1921 54.1881 87.5083C53.5089 86.8244 52.5876 86.4403 51.6271 86.4403H36.4338C35.9573 86.4405 35.4854 86.3461 35.0452 86.1624C34.6051 85.9787 34.2052 85.7094 33.8686 85.3699C33.532 85.0304 33.2652 84.6273 33.0836 84.1838C32.902 83.7403 32.809 83.2651 32.8102 82.7854Z" fill="#AEBEE1"/>
<path d="M32.8102 82.7854V48.1002C32.8102 47.1346 32.4297 46.2084 31.7523 45.5249C31.075 44.8413 30.1559 44.4561 29.1968 44.4539C28.2362 44.4539 27.3149 44.838 26.6357 45.5218C25.9565 46.2056 25.5749 47.1331 25.5749 48.1002V90.078C25.5737 90.5576 25.6666 91.0326 25.8481 91.476C26.0296 91.9194 26.2962 92.3224 26.6327 92.6619C26.9691 93.0014 27.3688 93.2707 27.8088 93.4545C28.2488 93.6383 28.7204 93.7329 29.1968 93.7329H51.6271C52.5876 93.7329 53.5089 93.3487 54.1881 92.6649C54.8674 91.9811 55.249 91.0536 55.249 90.0866C55.249 89.1195 54.8674 88.1921 54.1881 87.5083C53.5089 86.8244 52.5876 86.4403 51.6271 86.4403H36.4338C35.9573 86.4405 35.4854 86.3461 35.0452 86.1624C34.6051 85.9787 34.2052 85.7094 33.8686 85.3699C33.532 85.0304 33.2652 84.6273 33.0836 84.1838C32.902 83.7403 32.809 83.2651 32.8102 82.7854Z" fill="#535461"/>
<path d="M55.2439 89.8823C55.1942 88.9505 54.7914 88.0733 54.1186 87.4313C53.4458 86.7894 52.5541 86.4316 51.6271 86.4317H36.4338C35.9581 86.4319 35.4869 86.3377 35.0473 86.1546C34.6076 85.9715 34.2082 85.7029 33.8717 85.3643C33.5352 85.0257 33.2682 84.6236 33.0861 84.1811C32.904 83.7386 32.8102 83.2643 32.8102 82.7854V48.1001C32.81 47.1644 32.4525 46.2645 31.8117 45.5868C31.1708 44.909 30.2956 44.5052 29.3673 44.459V89.8823H55.2439Z" fill="#D6D6E3"/>
<path d="M135.674 77.6669H132.332V116.146H135.674V77.6669Z" fill="#D6D6E3"/>
<path opacity="0.1" d="M69.5475 77.6669H66.2051V80.4467H69.5475V77.6669Z" fill="black"/>
<path opacity="0.1" d="M135.674 77.6669H132.332V80.4467H135.674V77.6669Z" fill="black"/>
<path opacity="0.1" d="M78.143 54.7681C78.0896 55.3607 78.022 55.9613 77.9402 56.5698H77.468V54.7681H78.143Z" fill="black"/>
<path d="M91.8381 73.4852C91.8483 74.0944 91.412 74.5937 90.8717 74.5937H80.6707V73.523H89.1587C89.5252 73.523 89.7536 73.0768 89.5695 72.7199L81.8723 56.9593C81.8178 56.8458 81.7334 56.7495 81.6281 56.6811C81.5229 56.6127 81.401 56.5748 81.2757 56.5715H77.468V54.7698H82.2762C82.3639 54.7721 82.4492 54.7985 82.5228 54.8464C82.5965 54.8942 82.6557 54.9615 82.6938 55.041L91.5176 72.2C91.721 72.598 91.8306 73.0377 91.8381 73.4852Z" fill="#535461"/>
<path d="M73.1029 70.6266L72.9631 70.8633L71.6558 69.9848L75.7004 38.6747H76.7419C76.7419 38.6747 76.7845 38.8189 76.8543 39.0934C77.5515 41.7994 80.9757 57.1241 73.1029 70.6266Z" fill="#535461"/>
<path opacity="0.1" d="M76.8526 39.0934L73.1029 70.6266L72.9631 70.8633L71.6558 69.9848L75.7004 38.6747H76.7419C76.7419 38.6747 76.7828 38.824 76.8526 39.0934Z" fill="black"/>
<path d="M74.3099 38.3508L70.4731 70.6005L72.927 70.8964L76.7638 38.6466L74.3099 38.3508Z" fill="#D6D6E3"/>
<path d="M62.0633 73.4973C62.0629 73.575 62.032 73.6494 61.9775 73.7043C61.9229 73.7592 61.849 73.7903 61.7719 73.7907H61.3355C61.2582 73.7907 61.1841 73.7598 61.1295 73.7048C61.0748 73.6498 61.0441 73.5751 61.0441 73.4973C61.0427 73.4859 61.0427 73.4744 61.0441 73.463C61.0528 73.3922 61.0868 73.327 61.1399 73.2796C61.1929 73.2322 61.2612 73.2059 61.3321 73.2056H61.7685C61.8332 73.2063 61.8959 73.2286 61.9468 73.2689C61.9977 73.3093 62.0339 73.3655 62.0497 73.4287C62.0572 73.4509 62.0617 73.474 62.0633 73.4973Z" fill="#E3EDF9"/>
<path d="M63.3707 73.4972C63.3703 73.5748 63.3394 73.6492 63.2849 73.7041C63.2303 73.7591 63.1564 73.7901 63.0793 73.7906H62.6429C62.5656 73.7906 62.4915 73.7597 62.4368 73.7046C62.3822 73.6496 62.3515 73.575 62.3515 73.4972C62.3516 73.4698 62.3557 73.4427 62.3634 73.4165C62.3763 73.3689 62.4016 73.3257 62.4367 73.2912C62.4634 73.2639 62.4952 73.2422 62.5303 73.2275C62.5655 73.2128 62.6032 73.2053 62.6412 73.2054H63.0776C63.1338 73.2052 63.189 73.2212 63.2364 73.2516C63.2839 73.2821 63.3216 73.3256 63.3452 73.377C63.3618 73.4149 63.3705 73.4558 63.3707 73.4972Z" fill="#E3EDF9"/>
<path d="M64.5331 73.4972C64.5327 73.5749 64.5019 73.6493 64.4473 73.7042C64.3927 73.7591 64.3188 73.7902 64.2417 73.7906H63.8054C63.7281 73.7906 63.6539 73.7597 63.5993 73.7047C63.5446 73.6497 63.5139 73.575 63.5139 73.4972C63.5132 73.4552 63.5219 73.4135 63.5395 73.3754C63.5631 73.3247 63.6004 73.2818 63.6471 73.2515C63.6938 73.2211 63.7481 73.2046 63.8037 73.2038H64.24C64.2783 73.2036 64.3163 73.211 64.3518 73.2257C64.3873 73.2403 64.4195 73.2619 64.4466 73.2892C64.4737 73.3165 64.4951 73.349 64.5097 73.3847C64.5243 73.4204 64.5317 73.4586 64.5314 73.4972H64.5331Z" fill="#E3EDF9"/>
<path d="M65.8421 73.4972C65.8417 73.5748 65.8108 73.6492 65.7563 73.7041C65.7017 73.7591 65.6278 73.7901 65.5507 73.7906H65.1143C65.061 73.7905 65.0088 73.7758 64.9632 73.7479C64.9177 73.7201 64.8806 73.6802 64.856 73.6326C64.8314 73.585 64.8202 73.5316 64.8237 73.478C64.8272 73.4245 64.8452 73.373 64.8757 73.329L64.9098 73.2912C64.9365 73.2639 64.9683 73.2422 65.0034 73.2275C65.0386 73.2128 65.0763 73.2053 65.1143 73.2054H65.5507C65.5904 73.2059 65.6296 73.2146 65.666 73.2308C65.7023 73.247 65.735 73.2705 65.762 73.2998C65.8132 73.3526 65.842 73.4234 65.8421 73.4972Z" fill="#E3EDF9"/>
<path opacity="0.1" d="M62.0548 73.4269C62.0607 73.4499 62.0636 73.4736 62.0633 73.4973C62.0629 73.575 62.032 73.6493 61.9775 73.7043C61.9229 73.7592 61.849 73.7902 61.7719 73.7907H61.3355C61.2582 73.7907 61.1841 73.7598 61.1295 73.7048C61.0748 73.6497 61.0441 73.5751 61.0441 73.4973C61.0427 73.4859 61.0427 73.4744 61.0441 73.463L62.0548 73.4269Z" fill="black"/>
<path opacity="0.1" d="M63.3469 73.3805C63.3622 73.4169 63.3703 73.4559 63.3707 73.4955C63.3703 73.5731 63.3394 73.6475 63.2849 73.7024C63.2303 73.7574 63.1564 73.7884 63.0793 73.7889H62.6429C62.5656 73.7889 62.4915 73.758 62.4368 73.7029C62.3822 73.6479 62.3515 73.5733 62.3515 73.4955C62.3516 73.4681 62.3557 73.441 62.3634 73.4148L63.3469 73.3805Z" fill="black"/>
<path opacity="0.1" d="M64.4905 73.3411C64.5192 73.3875 64.5346 73.4409 64.5349 73.4956C64.5344 73.5732 64.5036 73.6476 64.449 73.7025C64.3944 73.7575 64.3206 73.7885 64.2434 73.789H63.8071C63.7298 73.789 63.6556 73.7581 63.601 73.703C63.5463 73.648 63.5156 73.5734 63.5156 73.4956C63.5149 73.4535 63.5236 73.4119 63.5412 73.3737L64.4905 73.3411Z" fill="black"/>
<path opacity="0.1" d="M65.8421 73.4973C65.8417 73.5749 65.8108 73.6493 65.7562 73.7042C65.7017 73.7592 65.6278 73.7902 65.5507 73.7907H65.1143C65.061 73.7906 65.0088 73.7759 64.9632 73.7481C64.9177 73.7202 64.8806 73.6803 64.856 73.6327C64.8314 73.5851 64.8202 73.5317 64.8237 73.4781C64.8272 73.4246 64.8452 73.3731 64.8757 73.3291L65.762 73.2982C65.8136 73.3514 65.8424 73.4229 65.8421 73.4973Z" fill="black"/>
<path d="M68.4566 74.6675H60.0282V74.2814C60.0281 74.11 60.0942 73.9453 60.2125 73.822C60.3308 73.6987 60.4921 73.6266 60.6622 73.6208L67.422 73.3857C67.5563 73.3811 67.6902 73.4037 67.8156 73.4523C67.9411 73.5008 68.0555 73.5743 68.1522 73.6682C68.2489 73.7622 68.3258 73.8748 68.3784 73.9993C68.431 74.1238 68.4582 74.2577 68.4583 74.3929L68.4566 74.6675Z" fill="#D6D6E3"/>
<path d="M110.04 73.4852C110.03 74.0944 110.466 74.5937 111.006 74.5937H121.212V73.523H112.714C112.348 73.523 112.119 73.0768 112.303 72.7199L120 56.9593C120.055 56.8458 120.139 56.7495 120.245 56.6811C120.35 56.6127 120.472 56.5748 120.597 56.5715H124.406V54.7698H119.602C119.515 54.7731 119.432 54.7999 119.359 54.8474C119.287 54.8948 119.229 54.9611 119.191 55.0392L110.367 72.1983C110.161 72.5962 110.049 73.0366 110.04 73.4852Z" fill="#535461"/>
<path d="M128.776 70.6266L128.916 70.8633L130.223 69.9848L126.179 38.6747H125.137C125.137 38.6747 125.095 38.8189 125.025 39.0934C124.326 41.7994 120.895 57.1241 128.776 70.6266Z" fill="#535461"/>
<path opacity="0.1" d="M125.025 39.0934L128.775 70.6266L128.915 70.8633L130.222 69.9848L126.179 38.6747H125.137C125.137 38.6747 125.095 38.824 125.025 39.0934Z" fill="black"/>
<path d="M127.571 38.3476L125.117 38.6435L128.954 70.8933L131.408 70.5974L127.571 38.3476Z" fill="#D6D6E3"/>
<path d="M139.814 73.4973C139.815 73.575 139.846 73.6494 139.9 73.7043C139.955 73.7592 140.029 73.7903 140.106 73.7907H140.542C140.619 73.7907 140.694 73.7598 140.748 73.7048C140.803 73.6498 140.834 73.5751 140.834 73.4973C140.835 73.4859 140.835 73.4744 140.834 73.463C140.825 73.3922 140.791 73.327 140.738 73.2796C140.685 73.2322 140.616 73.2059 140.546 73.2056H140.109C140.044 73.2063 139.982 73.2286 139.931 73.2689C139.88 73.3093 139.844 73.3655 139.828 73.4287C139.821 73.4509 139.816 73.474 139.814 73.4973Z" fill="#E3EDF9"/>
<path d="M138.507 73.4972C138.507 73.5748 138.538 73.6492 138.593 73.7041C138.647 73.7591 138.721 73.7901 138.798 73.7906H139.235C139.273 73.7906 139.311 73.783 139.346 73.7682C139.382 73.7535 139.414 73.7319 139.441 73.7046C139.468 73.6774 139.489 73.645 139.504 73.6094C139.519 73.5738 139.526 73.5357 139.526 73.4972C139.526 73.4698 139.522 73.4427 139.514 73.4165C139.501 73.3689 139.476 73.3257 139.441 73.2912C139.414 73.2639 139.383 73.2422 139.347 73.2275C139.312 73.2128 139.275 73.2053 139.236 73.2054H138.792C138.735 73.2052 138.68 73.2212 138.633 73.2516C138.585 73.2821 138.548 73.3256 138.524 73.377C138.51 73.4155 138.505 73.4564 138.507 73.4972Z" fill="#E3EDF9"/>
<path d="M137.345 73.4972C137.345 73.5749 137.376 73.6493 137.43 73.7042C137.485 73.7591 137.559 73.7902 137.636 73.7906H138.072C138.15 73.7906 138.224 73.7597 138.278 73.7047C138.333 73.6497 138.364 73.575 138.364 73.4972C138.365 73.4552 138.356 73.4135 138.338 73.3754C138.315 73.3247 138.277 73.2818 138.231 73.2515C138.184 73.2211 138.13 73.2046 138.074 73.2038H137.638C137.599 73.2036 137.561 73.211 137.526 73.2257C137.49 73.2403 137.458 73.2619 137.431 73.2892C137.404 73.3165 137.383 73.349 137.368 73.3847C137.353 73.4204 137.346 73.4586 137.346 73.4972H137.345Z" fill="#E3EDF9"/>
<path d="M136.035 73.4972C136.036 73.5748 136.067 73.6492 136.121 73.7041C136.176 73.7591 136.25 73.7901 136.327 73.7906H136.763C136.816 73.7905 136.869 73.7758 136.914 73.7479C136.96 73.7201 136.997 73.6802 137.021 73.6326C137.046 73.585 137.057 73.5316 137.054 73.478C137.05 73.4245 137.032 73.373 137.002 73.329L136.968 73.2912C136.941 73.2639 136.909 73.2422 136.874 73.2275C136.839 73.2128 136.801 73.2053 136.763 73.2054H136.327C136.287 73.2059 136.248 73.2146 136.212 73.2308C136.175 73.247 136.143 73.2705 136.116 73.2998C136.064 73.3526 136.036 73.4234 136.035 73.4972Z" fill="#E3EDF9"/>
<path opacity="0.1" d="M139.823 73.4269C139.817 73.4499 139.814 73.4736 139.814 73.4973C139.815 73.575 139.846 73.6493 139.9 73.7043C139.955 73.7592 140.029 73.7902 140.106 73.7907H140.542C140.62 73.7907 140.694 73.7598 140.748 73.7048C140.803 73.6497 140.834 73.5751 140.834 73.4973C140.835 73.4859 140.835 73.4744 140.834 73.463L139.823 73.4269Z" fill="black"/>
<path opacity="0.1" d="M138.531 73.3805C138.516 73.4169 138.507 73.4559 138.507 73.4955C138.508 73.5731 138.538 73.6475 138.593 73.7024C138.647 73.7574 138.721 73.7884 138.799 73.7889H139.235C139.273 73.7889 139.311 73.7813 139.346 73.7665C139.382 73.7518 139.414 73.7302 139.441 73.7029C139.468 73.6757 139.489 73.6433 139.504 73.6077C139.519 73.5721 139.526 73.534 139.526 73.4955C139.526 73.4681 139.522 73.441 139.514 73.4148L138.531 73.3805Z" fill="black"/>
<path opacity="0.1" d="M137.387 73.3411C137.359 73.3875 137.343 73.4409 137.343 73.4956C137.343 73.5732 137.374 73.6476 137.429 73.7025C137.483 73.7575 137.557 73.7885 137.634 73.789H138.071C138.148 73.789 138.222 73.7581 138.277 73.703C138.332 73.648 138.362 73.5734 138.362 73.4956C138.363 73.4535 138.354 73.4119 138.337 73.3737L137.387 73.3411Z" fill="black"/>
<path opacity="0.1" d="M136.035 73.4973C136.036 73.5749 136.067 73.6493 136.121 73.7042C136.176 73.7592 136.25 73.7902 136.327 73.7907H136.763C136.816 73.7906 136.869 73.7759 136.914 73.7481C136.96 73.7202 136.997 73.6803 137.022 73.6327C137.046 73.5851 137.057 73.5317 137.054 73.4781C137.05 73.4246 137.032 73.3731 137.002 73.3291L136.116 73.2982C136.064 73.3514 136.035 73.4229 136.035 73.4973Z" fill="black"/>
<path d="M133.421 74.6675H141.849V74.2814C141.849 74.11 141.783 73.9453 141.665 73.822C141.547 73.6987 141.385 73.6266 141.215 73.6208L134.456 73.3857C134.321 73.3811 134.187 73.4037 134.062 73.4523C133.937 73.5008 133.822 73.5743 133.725 73.6682C133.629 73.7622 133.552 73.8748 133.499 73.9993C133.447 74.1238 133.419 74.2577 133.419 74.3929L133.421 74.6675Z" fill="#D6D6E3"/>
<path d="M168.699 79.3193C172.631 72.605 171.206 59.0614 171.365 58.8023C171.506 58.5741 170.964 52.196 167.351 50.638C166.698 49.3356 166.056 47.8685 166.056 47.8685C165.992 47.9283 165.923 47.9807 165.848 48.0247C165.819 47.9469 165.791 47.868 165.764 47.7879C165.718 47.6523 165.676 47.5133 165.633 47.3744C165.734 47.4069 165.837 47.4332 165.941 47.4533C166.217 47.521 166.507 47.4951 166.766 47.3795C166.855 47.3317 166.935 47.2697 167.003 47.1959C167.288 47.0054 167.445 46.6623 167.578 46.338L168.629 43.8019C169.103 42.6573 169.58 41.506 169.833 40.2928C170.208 38.4672 170.063 36.5719 169.413 34.826C169.165 34.1602 168.82 33.4944 168.236 33.0963C167.065 32.2967 165.435 32.8492 164.097 32.3808C163.658 32.2264 163.26 31.9656 162.821 31.8077C161.871 31.4645 160.799 31.6481 159.886 32.0754C158.972 32.5026 158.232 33.1821 157.433 33.7913C157.039 34.095 156.41 34.409 155.947 34.8208C155.497 35.1743 155.151 35.6016 155.217 36.1644C155.292 36.8078 155.965 37.1939 156.593 37.3449C156.697 37.3689 156.804 37.3878 156.91 37.4067C156.165 38.1659 155.629 39.1063 155.353 40.1363C155.076 41.1663 155.07 42.2507 155.334 43.2839C155.598 44.3172 156.123 45.2641 156.858 46.0323C157.593 46.8006 158.514 47.364 159.529 47.6678C159.849 48.2724 160.126 48.8992 160.358 49.5433C160.388 49.6313 160.419 49.72 160.448 49.8092C159.415 50.1044 158.607 50.3497 158.445 50.4853C157.956 50.8937 158.981 54.4696 158.981 54.4696C158.72 54.8025 158.454 55.1817 158.185 55.5884C156.142 58.7112 154.849 62.2693 154.408 65.9816C154.237 67.3389 154.016 68.727 153.734 70.0466L141.519 67.5808L141.493 67.8845L141.202 67.8125L140.285 67.5843L140.249 67.7919L140.109 67.725C137.837 66.6525 134.009 65.2832 131.417 66.6954C128.681 68.178 134.585 70.1478 138.374 71.1962C137.118 71.258 135.916 71.5617 134.965 72.2721C132.218 74.3449 139.988 75.4242 143.658 75.8069L143.806 75.8223V75.9012L145.078 76.0196L145.376 76.0471L145.405 76.5035C145.405 76.5035 147.225 76.8038 149.657 77.1676C146.881 77.8659 143.45 78.3498 141.067 78.633C138.541 78.9315 136.39 80.7023 135.712 83.1715C135.492 83.8796 135.471 84.6347 135.65 85.3541C136.359 87.8473 135.494 106.189 135.298 110.139L130.806 112.742C130.806 112.742 123.818 113.6 128.473 115.249C128.892 115.393 129.321 115.507 129.756 115.592C129.143 115.99 129.196 116.51 131.004 117.148C135.662 118.792 146.491 117.076 146.491 117.076C146.491 117.076 146.254 115.144 145.868 113.538L145.988 113.548C145.988 113.548 144.87 109.36 146.566 107.247C148.261 105.135 146.281 89.0588 146.281 89.0588C146.281 89.0588 149.25 87.8216 158.125 87.741C165.284 89.5907 168.773 82.969 168.723 79.5458C168.708 79.4686 168.704 79.3897 168.699 79.3193Z" fill="url(#paint0_linear)"/>
<path d="M142.243 68.9141L141.485 72.0027C141.485 72.0027 140.803 71.8483 139.78 71.5841C136.317 70.6815 129.012 68.5143 131.94 66.9237C134.464 65.551 138.181 66.8859 140.389 67.9275C141.197 68.3101 141.803 68.6533 142.074 68.8146C142.188 68.8798 142.243 68.9141 142.243 68.9141Z" fill="#F8B9BF"/>
<path opacity="0.1" d="M142.03 69.7858L141.485 72.0164C141.485 72.0164 140.803 71.862 139.78 71.5977L140.396 67.9412C141.204 68.3238 141.81 68.667 142.081 68.8283L142.03 69.7858Z" fill="black"/>
<path d="M142.032 72.2275L139.915 71.7007L140.573 67.7953L142.265 68.2157L142.032 72.2275Z" fill="#D9DFE8"/>
<path opacity="0.1" d="M142.032 72.2275L141.118 72.001L141.463 68.0167L142.265 68.2157L142.032 72.2275Z" fill="black"/>
<path d="M162.458 56.0517C162.458 56.0517 158.393 53.6872 156.586 60.4701C154.779 67.253 154.609 70.3777 154.609 70.3777L141.771 67.7935L141.364 72.514C141.364 72.514 155.089 76.9753 156.816 76.651C158.542 76.3267 164.145 66.8704 164.145 66.8704C164.145 66.8704 169.238 59.5418 162.458 56.0517Z" fill="#6C63FF"/>
<g opacity="0.1">
<path opacity="0.1" d="M142.243 68.9141L141.485 72.0027C141.485 72.0027 140.803 71.8483 139.78 71.584C136.317 70.6814 129.012 68.5143 131.94 66.9236C134.464 65.5509 138.181 66.8859 140.389 67.9274C141.197 68.3101 141.803 68.6532 142.074 68.8145C142.188 68.8797 142.243 68.9141 142.243 68.9141Z" fill="black"/>
<path opacity="0.1" d="M142.03 69.7858L141.485 72.0164C141.485 72.0164 140.803 71.862 139.78 71.5977L140.396 67.9412C141.203 68.3238 141.81 68.667 142.081 68.8283L142.03 69.7858Z" fill="black"/>
<path opacity="0.1" d="M142.032 72.2274L139.915 71.7007L140.573 67.7953L142.265 68.2157L142.032 72.2274Z" fill="black"/>
<path opacity="0.1" d="M142.032 72.2274L141.118 72.0009L141.462 68.0166L142.265 68.2156L142.032 72.2274Z" fill="black"/>
<path opacity="0.1" d="M162.458 56.2232C162.458 56.2232 158.392 53.8587 156.586 60.6417C154.779 67.4246 154.609 70.5493 154.609 70.5493L141.771 67.9651L141.364 72.6856C141.364 72.6856 155.089 77.1469 156.816 76.8226C158.542 76.4983 164.145 67.042 164.145 67.042C164.145 67.042 169.238 59.7134 162.458 56.2232Z" fill="#1205A9"/>
</g>
<path d="M136.602 108.61L131.36 111.649C131.36 111.649 124.57 112.486 129.094 114.082C133.617 115.678 144.133 114.011 144.133 114.011C144.133 114.011 143.549 109.255 142.734 108.591C141.919 107.927 136.602 108.61 136.602 108.61Z" fill="#68739D"/>
<path d="M157.029 74.5148C157.029 74.5148 154.421 75.8875 149.788 77.0732C147.073 77.7596 143.675 78.2469 141.326 78.5248C140.124 78.6566 138.987 79.1449 138.061 79.9279C137.135 80.7109 136.461 81.7533 136.124 82.9227C135.91 83.6128 135.889 84.3492 136.064 85.0504C136.837 87.7667 135.684 109.847 135.684 109.847L143.644 110.588C143.644 110.588 142.558 106.52 144.206 104.469C145.855 102.419 143.93 86.8109 143.93 86.8109C143.93 86.8109 146.814 85.6098 155.432 85.5309C163.415 87.5899 166.705 78.7925 165.473 76.3268C164.24 73.861 157.029 74.5148 157.029 74.5148Z" fill="#6394E2"/>
<g opacity="0.1">
<path opacity="0.1" d="M136.602 108.61L131.36 111.649C131.36 111.649 124.57 112.486 129.094 114.082C133.617 115.677 144.133 114.011 144.133 114.011C144.133 114.011 143.549 109.255 142.734 108.591C141.919 107.927 136.602 108.61 136.602 108.61Z" fill="black"/>
<path opacity="0.1" d="M157.029 74.5148C157.029 74.5148 154.421 75.8875 149.789 77.0732C147.074 77.7596 143.675 78.2469 141.326 78.5248C140.124 78.6566 138.988 79.1449 138.061 79.9279C137.135 80.7109 136.461 81.7533 136.124 82.9227C135.91 83.6128 135.889 84.3492 136.065 85.0504C136.837 87.7667 135.685 109.847 135.685 109.847L143.644 110.588C143.644 110.588 142.559 106.52 144.207 104.469C145.855 102.419 143.931 86.8109 143.931 86.8109C143.931 86.8109 146.815 85.6098 155.432 85.5309C163.416 87.5899 166.705 78.7925 165.473 76.3268C164.241 73.861 157.029 74.5148 157.029 74.5148Z" fill="black"/>
</g>
<path d="M139.059 110.454L133.818 113.493C133.818 113.493 127.031 114.324 131.551 115.926C136.071 117.529 146.591 115.856 146.591 115.856C146.591 115.856 146.006 111.1 145.192 110.436C144.377 109.771 139.059 110.454 139.059 110.454Z" fill="#68739D"/>
<path d="M157.881 87.3754C149.264 87.4544 146.38 88.6555 146.38 88.6555C146.38 88.6555 148.304 104.27 146.656 106.314C145.008 108.357 146.093 112.433 146.093 112.433L138.134 111.691C138.134 111.691 138.147 111.431 138.17 110.964C138.36 107.127 139.201 89.3161 138.51 86.895C138.336 86.196 138.357 85.4621 138.57 84.7741C138.905 83.6031 139.578 82.5589 140.504 81.774C141.43 80.9891 142.567 80.499 143.77 80.366C146.117 80.0897 149.516 79.6093 152.231 78.9143L152.364 78.88C156.915 77.7029 159.472 76.3559 159.472 76.3559C159.472 76.3559 166.683 75.7039 167.915 78.1696C168.089 78.5606 168.175 78.9854 168.167 79.4137C168.229 82.7408 164.837 89.172 157.881 87.3754Z" fill="#6394E2"/>
<path d="M145.877 72.7628L145.586 75.9372C145.586 75.9372 144.885 75.8874 143.844 75.7776C140.286 75.4053 132.741 74.3586 135.408 72.3458C137.703 70.6162 141.575 71.3712 143.912 72.0713C144.764 72.3286 145.418 72.5774 145.71 72.6958C145.817 72.737 145.877 72.7628 145.877 72.7628Z" fill="#F8B9BF"/>
<path d="M167.048 52.009C167.048 52.009 165.981 52.8498 164.677 53.773C163.247 54.099 161.587 54.3684 160.39 54.5434C160.818 53.1707 160.56 51.6264 160.078 50.2725C159.553 48.8579 158.833 47.5247 157.939 46.3122L165.152 44.0455C164.586 45.4886 164.842 47.1342 165.323 48.5652C165.747 49.7835 166.327 50.9412 167.048 52.009Z" fill="#F8B9BF"/>
<path opacity="0.1" d="M145.795 73.6568L145.586 75.9372C145.586 75.9372 144.885 75.8875 143.844 75.7776L143.912 72.0696C144.764 72.327 145.419 72.5758 145.71 72.6942L145.795 73.6568Z" fill="black"/>
<path d="M146.158 76.0711L143.987 75.8686L144.058 71.9083L145.795 72.0696L146.158 76.0711Z" fill="#D9DFE8"/>
<path opacity="0.1" d="M167.048 52.009C167.048 52.009 165.981 52.8498 164.677 53.773C163.247 54.099 161.587 54.3684 160.39 54.5434C160.818 53.1707 160.561 51.6264 160.078 50.2725C161.841 49.7578 164.362 49.092 165.325 48.5566C165.748 49.7778 166.327 50.9384 167.048 52.009Z" fill="black"/>
<path d="M165.606 48.6425C165.606 48.6425 166.812 51.3999 167.572 52.6457C168.333 53.8914 158.74 55.0479 158.74 55.0479C158.74 55.0479 157.745 51.5767 158.22 51.1786C158.696 50.7805 164.803 49.4489 165.606 48.6425Z" fill="#D9DFE8"/>
<path opacity="0.1" d="M168.181 79.4154C167.777 80.132 167.275 80.7871 166.688 81.3612C162.451 85.4141 155.505 81.1896 152.371 78.88C156.922 77.7029 159.478 76.3559 159.478 76.3559C159.478 76.3559 166.69 75.7039 167.922 78.1696C168.098 78.5606 168.187 78.986 168.181 79.4154Z" fill="black"/>
<path d="M166.715 81.0712C161.899 85.6767 153.591 79.5784 151.352 77.7818C150.989 77.4901 150.786 77.31 150.786 77.31C151.67 76.476 152.448 74.7087 153.063 72.5466C153.636 70.4781 154.051 68.3681 154.302 66.2355C154.731 62.6299 155.987 59.174 157.97 56.1409C158.231 55.7462 158.481 55.3773 158.742 55.0547C160.561 52.7262 163.617 51.2471 163.617 51.2471C170.066 49.3493 170.934 58.9807 170.762 59.2587C170.59 59.5366 172.314 75.7159 166.715 81.0712Z" fill="#1205A9"/>
<path opacity="0.1" d="M167.339 67.9051C167.339 67.9051 163.192 78.0976 161.534 78.6793C160.585 79.0105 155.514 78.3824 151.352 77.7836C150.989 77.4919 150.786 77.3117 150.786 77.3117C151.67 76.4778 152.448 74.7104 153.063 72.5484L158.423 72.8057C158.423 72.8057 158.125 69.6931 158.912 62.7128C159.7 55.7325 164.065 57.4621 164.065 57.4621C171.287 59.897 167.339 67.9051 167.339 67.9051Z" fill="black"/>
<path opacity="0.1" d="M146.158 76.0711L145.221 75.9836L144.972 71.9941L145.795 72.0696L146.158 76.0711Z" fill="black"/>
<path d="M163.961 57.0125C163.961 57.0125 159.596 55.2846 158.808 62.2632C158.021 69.2418 158.319 72.3561 158.319 72.3561L145.241 71.7264L145.536 76.4554C145.536 76.4554 159.77 78.8079 161.428 78.2279C163.086 77.648 167.233 67.4538 167.233 67.4538C167.233 67.4538 171.176 59.4457 163.961 57.0125Z" fill="#1205A9"/>
<path opacity="0.1" d="M164.254 46.6794C164.063 45.6362 165.146 45.6499 165.534 44.6684L158.321 46.9351C158.822 47.6118 159.269 48.3273 159.657 49.0748C160.032 49.1867 160.416 49.2614 160.804 49.2979C162.524 49.4626 163.061 47.7587 164.254 46.6794Z" fill="black"/>
<path d="M166.899 43.2506C167.202 39.9516 164.791 37.0301 161.514 36.7252C158.237 36.4203 155.335 38.8475 155.032 42.1465C154.729 45.4455 157.14 48.367 160.417 48.6719C163.694 48.9768 166.596 46.5496 166.899 43.2506Z" fill="#F8B9BF"/>
<path opacity="0.1" d="M155.086 37.2797C155.159 37.9043 155.814 38.2852 156.422 38.4259C157.031 38.5666 157.69 38.5735 158.224 38.9012C159.076 39.4297 159.306 40.6034 159.199 41.6123C159.139 42.182 159.054 42.8804 159.518 43.2116C159.663 43.3013 159.826 43.3598 159.995 43.3832C160.478 43.4817 160.975 43.4991 161.464 43.4346C161.75 43.3969 162.045 43.3317 162.316 43.4123C162.763 43.5427 163.027 44.0163 163.114 44.4745C163.201 44.9326 163.153 45.4096 163.223 45.8712C163.32 46.4492 163.589 46.9838 163.995 47.4047C164.4 47.8256 164.923 48.1129 165.493 48.2289C165.761 48.2944 166.043 48.2691 166.294 48.1568C166.618 47.9852 166.784 47.6197 166.923 47.2782L167.946 44.8142C168.406 43.704 168.87 42.5835 169.115 41.4064C169.48 39.6335 169.338 37.793 168.708 36.0974C168.466 35.4523 168.132 34.8054 167.564 34.4176C166.427 33.6403 164.837 34.1773 163.545 33.7312C163.117 33.5819 162.732 33.328 162.306 33.1753C161.384 32.8441 160.343 33.0191 159.455 33.4361C158.567 33.853 157.849 34.5102 157.068 35.1091C156.392 35.6393 154.958 36.2004 155.086 37.2797Z" fill="black"/>
<path d="M155.243 37.1476C155.316 37.7721 155.971 38.1531 156.579 38.2938C157.188 38.4345 157.847 38.4413 158.381 38.7691C159.233 39.2976 159.463 40.4713 159.356 41.4802C159.296 42.0499 159.211 42.7483 159.674 43.0794C159.82 43.1692 159.982 43.2276 160.152 43.251C160.635 43.3496 161.132 43.367 161.621 43.3025C161.907 43.2647 162.202 43.1995 162.473 43.2802C162.92 43.4106 163.184 43.8842 163.271 44.3423C163.358 44.8005 163.31 45.2775 163.38 45.7391C163.477 46.317 163.746 46.8517 164.151 47.2726C164.557 47.6934 165.079 47.9808 165.65 48.0967C165.918 48.1622 166.199 48.1369 166.451 48.0246C166.775 47.8531 166.94 47.4876 167.08 47.1461L168.103 44.6821C168.563 43.5719 169.026 42.4514 169.272 41.2743C169.636 39.5014 169.495 37.6608 168.865 35.9653C168.623 35.3201 168.288 34.6732 167.721 34.2854C166.584 33.5081 164.994 34.0452 163.702 33.5991C163.274 33.4498 162.889 33.1958 162.463 33.0431C161.541 32.712 160.499 32.887 159.611 33.3039C158.723 33.7209 158.006 34.3781 157.225 34.9769C156.55 35.5072 155.117 36.0683 155.243 37.1476Z" fill="#B96B6B"/>
<path opacity="0.1" d="M160.179 60.8459C160.179 60.8459 157.903 69.7446 155.638 70.5682C153.373 71.3919 154.374 71.6252 154.374 71.6252" fill="black"/>
<path d="M160.286 93.4446H157.813V109.809H160.286V93.4446Z" fill="#D6D6E3"/>
<path opacity="0.1" d="M160.286 93.4446H157.813V94.6577H160.286V93.4446Z" fill="black"/>
<path d="M152.865 93.3588V93.702C152.865 93.8076 152.886 93.9123 152.926 94.0099C152.966 94.1076 153.025 94.1963 153.099 94.271C153.173 94.3457 153.262 94.405 153.359 94.4454C153.456 94.4859 153.559 94.5067 153.664 94.5067H164.433C164.538 94.5067 164.642 94.4859 164.739 94.4454C164.836 94.405 164.924 94.3457 164.998 94.271C165.073 94.1963 165.131 94.1076 165.172 94.0099C165.212 93.9123 165.232 93.8076 165.232 93.702V93.3588C165.232 93.2531 165.212 93.1484 165.172 93.0508C165.131 92.9532 165.073 92.8644 164.998 92.7897C164.924 92.715 164.836 92.6557 164.739 92.6153C164.642 92.5748 164.538 92.554 164.433 92.554H153.664C153.559 92.554 153.456 92.5748 153.359 92.6153C153.262 92.6557 153.173 92.715 153.099 92.7897C153.025 92.8644 152.966 92.9532 152.926 93.0508C152.886 93.1484 152.865 93.2531 152.865 93.3588Z" fill="#D6D6E3"/>
<path opacity="0.1" d="M153.049 92.8474H165.05C164.975 92.7555 164.881 92.6815 164.775 92.6308C164.668 92.58 164.551 92.5538 164.433 92.554H153.665C153.547 92.5541 153.431 92.5804 153.324 92.6312C153.218 92.6819 153.124 92.7558 153.049 92.8474Z" fill="black"/>
<path d="M168.273 108.919H149.829C149.312 108.919 148.892 109.341 148.892 109.862V109.931C148.892 110.452 149.312 110.875 149.829 110.875H168.273C168.791 110.875 169.21 110.452 169.21 109.931V109.862C169.21 109.341 168.791 108.919 168.273 108.919Z" fill="#D6D6E3"/>
<path d="M168.062 113.366C168.745 113.366 169.299 112.808 169.299 112.12C169.299 111.432 168.745 110.875 168.062 110.875C167.378 110.875 166.824 111.432 166.824 112.12C166.824 112.808 167.378 113.366 168.062 113.366Z" fill="#535461"/>
<path d="M150.039 113.366C150.723 113.366 151.277 112.808 151.277 112.12C151.277 111.432 150.723 110.875 150.039 110.875C149.356 110.875 148.802 111.432 148.802 112.12C148.802 112.808 149.356 113.366 150.039 113.366Z" fill="#535461"/>
<path d="M159.05 113.366C159.734 113.366 160.288 112.808 160.288 112.12C160.288 111.432 159.734 110.875 159.05 110.875C158.367 110.875 157.813 111.432 157.813 112.12C157.813 112.808 158.367 113.366 159.05 113.366Z" fill="#535461"/>
<path d="M174.409 73.3445H157.871C157.071 73.3445 156.422 73.9975 156.422 74.8031V74.9094C156.422 75.715 157.071 76.368 157.871 76.368H174.409C175.209 76.368 175.858 75.715 175.858 74.9094V74.8031C175.858 73.9975 175.209 73.3445 174.409 73.3445Z" fill="#D6D6E3"/>
<path opacity="0.1" d="M160.286 108.919C160.286 108.919 159.315 109.885 157.813 108.919H160.286Z" fill="black"/>
<path opacity="0.1" d="M175.858 74.8871V75.1256C175.858 75.4555 175.728 75.7719 175.496 76.0052C175.264 76.2385 174.95 76.3696 174.622 76.3696H157.658C157.33 76.3696 157.016 76.2385 156.784 76.0052C156.552 75.7719 156.422 75.4555 156.422 75.1256V74.8871H175.858Z" fill="black"/>
<path d="M143.521 77.6669H140.179V120.54H143.521V77.6669Z" fill="#D6D6E3"/>
<path opacity="0.1" d="M143.521 77.6669H140.179V80.4467H143.521V77.6669Z" fill="black"/>
<path d="M42.1761 94.6149H39.703V110.979H42.1761V94.6149Z" fill="#D6D6E3"/>
<path opacity="0.1" d="M42.1761 94.6149H39.703V95.828H42.1761V94.6149Z" fill="black"/>
<path d="M47.1223 94.5307V94.8739C47.1223 95.0874 47.0381 95.292 46.8882 95.443C46.7383 95.5939 46.535 95.6787 46.323 95.6787H35.5544C35.3424 95.6787 35.139 95.5939 34.9891 95.443C34.8392 95.292 34.755 95.0874 34.755 94.8739V94.5307C34.7568 94.3185 34.8418 94.1156 34.9915 93.9661C35.1413 93.8167 35.3436 93.7328 35.5544 93.7328H46.323C46.4279 93.7328 46.5319 93.7537 46.6289 93.7941C46.7259 93.8345 46.814 93.8938 46.8882 93.9686C46.9624 94.0433 47.0213 94.132 47.0615 94.2296C47.1017 94.3273 47.1223 94.4319 47.1223 94.5376V94.5307Z" fill="#D6D6E3"/>
<path opacity="0.1" d="M46.9399 94.0177H34.9373C35.0129 93.9274 35.1075 93.855 35.2141 93.8058C35.3208 93.7565 35.437 93.7316 35.5543 93.7329H46.3229C46.4403 93.7316 46.5564 93.7565 46.6631 93.8058C46.7697 93.855 46.8643 93.9274 46.9399 94.0177Z" fill="black"/>
<path d="M50.1614 110.089H31.7177C31.2 110.089 30.7803 110.511 30.7803 111.033V111.101C30.7803 111.623 31.2 112.045 31.7177 112.045H50.1614C50.6791 112.045 51.0988 111.623 51.0988 111.101V111.033C51.0988 110.511 50.6791 110.089 50.1614 110.089Z" fill="#D6D6E3"/>
<path d="M31.9292 114.537C32.6126 114.537 33.1666 113.979 33.1666 113.291C33.1666 112.603 32.6126 112.045 31.9292 112.045C31.2457 112.045 30.6917 112.603 30.6917 113.291C30.6917 113.979 31.2457 114.537 31.9292 114.537Z" fill="#535461"/>
<path d="M49.95 114.537C50.6334 114.537 51.1874 113.979 51.1874 113.291C51.1874 112.603 50.6334 112.045 49.95 112.045C49.2666 112.045 48.7126 112.603 48.7126 113.291C48.7126 113.979 49.2666 114.537 49.95 114.537Z" fill="#535461"/>
<path d="M40.9387 114.537C41.6221 114.537 42.1761 113.979 42.1761 113.291C42.1761 112.603 41.6221 112.045 40.9387 112.045C40.2553 112.045 39.7013 112.603 39.7013 113.291C39.7013 113.979 40.2553 114.537 40.9387 114.537Z" fill="#535461"/>
<path opacity="0.1" d="M39.7031 110.089C39.7031 110.089 40.6746 111.055 42.1762 110.089H39.7031Z" fill="black"/>
<path d="M102.796 60.8254C102.796 60.8254 100.021 55.748 101.035 51.3347C101.472 49.4863 101.302 47.5451 100.549 45.8026C100.188 44.9784 99.7529 44.1893 99.2489 43.4449" stroke="#535461" stroke-width="2" stroke-miterlimit="10"/>
<path d="M99.8642 40.6583C100.009 41.3241 99.2335 43.5187 99.2335 43.5187C99.2335 43.5187 97.616 41.8543 97.4695 41.1885C97.4204 41.0258 97.4053 40.8546 97.4251 40.6857C97.4449 40.5168 97.4991 40.3539 97.5845 40.2071C97.6698 40.0603 97.7843 39.9329 97.9209 39.8328C98.0574 39.7327 98.2131 39.6621 98.378 39.6255C98.543 39.5888 98.7137 39.5869 98.8794 39.6198C99.0451 39.6528 99.2023 39.7198 99.341 39.8168C99.4798 39.9138 99.5971 40.0386 99.6857 40.1834C99.7742 40.3282 99.8321 40.4899 99.8557 40.6583H99.8642Z" fill="#6C63FF"/>
<path d="M102.648 43.9066C102.411 44.5449 100.575 45.9657 100.575 45.9657C100.575 45.9657 100.115 43.6835 100.353 43.0486C100.405 42.8905 100.487 42.7445 100.595 42.6192C100.704 42.494 100.837 42.3921 100.985 42.3197C101.134 42.2474 101.296 42.206 101.461 42.1981C101.626 42.1902 101.79 42.216 101.945 42.2738C102.1 42.3317 102.242 42.4204 102.362 42.5348C102.481 42.6491 102.577 42.7866 102.643 42.9391C102.709 43.0916 102.743 43.2559 102.744 43.4222C102.745 43.5884 102.713 43.7532 102.649 43.9066H102.648Z" fill="#6C63FF"/>
<path d="M103.936 50.2244C103.411 50.6551 101.115 50.9451 101.115 50.9451C101.115 50.9451 101.863 48.7418 102.388 48.3111C102.513 48.2072 102.657 48.1291 102.812 48.0814C102.966 48.0337 103.129 48.0173 103.29 48.0332C103.451 48.049 103.607 48.0969 103.75 48.1739C103.892 48.2509 104.018 48.3556 104.121 48.482C104.223 48.6083 104.299 48.7537 104.345 48.9099C104.391 49.0661 104.406 49.2299 104.389 49.3919C104.372 49.5539 104.323 49.7109 104.245 49.8538C104.167 49.9966 104.062 50.1226 103.936 50.2244Z" fill="#6C63FF"/>
<path d="M103.842 55.2246C103.398 55.7394 101.184 56.4155 101.184 56.4155C101.184 56.4155 101.55 54.1162 101.995 53.6031C102.099 53.4754 102.227 53.37 102.373 53.2932C102.518 53.2164 102.677 53.1697 102.84 53.156C103.004 53.1423 103.169 53.1617 103.324 53.2132C103.48 53.2648 103.624 53.3473 103.748 53.4559C103.872 53.5645 103.972 53.697 104.044 53.8455C104.116 53.994 104.157 54.1556 104.166 54.3205C104.175 54.4855 104.15 54.6505 104.094 54.8058C104.039 54.9611 103.952 55.1035 103.841 55.2246H103.842Z" fill="#6C63FF"/>
<path d="M98.09 46.6468C98.6661 47.0054 100.979 46.99 100.979 46.99C100.979 46.99 99.9564 44.9017 99.3803 44.5431C99.2435 44.4525 99.09 44.3905 98.929 44.3606C98.768 44.3308 98.6027 44.3337 98.4428 44.3692C98.283 44.4047 98.1318 44.4722 97.9982 44.5675C97.8647 44.6628 97.7514 44.7841 97.6652 44.9242C97.579 45.0644 97.5215 45.2204 97.4962 45.3833C97.4709 45.5461 97.4783 45.7124 97.5179 45.8723C97.5575 46.0323 97.6285 46.1826 97.7268 46.3144C97.8251 46.4463 97.9486 46.5569 98.09 46.6399V46.6468Z" fill="#6C63FF"/>
<path d="M98.0558 52.4981C98.712 52.6697 100.916 51.9627 100.916 51.9627C100.916 51.9627 99.3188 50.2777 98.6625 50.1095C98.3531 50.0433 98.0302 50.1 97.7614 50.268C97.4926 50.4359 97.2987 50.702 97.2203 51.0106C97.1419 51.3191 97.1851 51.6463 97.3408 51.9235C97.4965 52.2008 97.7527 52.4066 98.0558 52.4981Z" fill="#6C63FF"/>
<path d="M98.7938 58.188C99.4108 58.466 101.703 58.1468 101.703 58.1468C101.703 58.1468 100.411 56.2147 99.7943 55.9367C99.4975 55.8032 99.1602 55.7938 98.8565 55.9106C98.5529 56.0274 98.3078 56.2608 98.1751 56.5596C98.0424 56.8584 98.0331 57.198 98.1491 57.5037C98.2651 57.8094 98.497 58.0561 98.7938 58.1897V58.188Z" fill="#6C63FF"/>
<path d="M99.8642 40.6583C100.009 41.3241 99.2335 43.5187 99.2335 43.5187C99.2335 43.5187 97.616 41.8543 97.4695 41.1885C97.4204 41.0258 97.4053 40.8546 97.4251 40.6857C97.4449 40.5168 97.4991 40.3539 97.5845 40.2071C97.6698 40.0603 97.7843 39.9329 97.9209 39.8328C98.0574 39.7327 98.2131 39.6621 98.378 39.6255C98.543 39.5888 98.7137 39.5869 98.8794 39.6198C99.0451 39.6528 99.2023 39.7198 99.341 39.8168C99.4798 39.9138 99.5971 40.0386 99.6857 40.1834C99.7742 40.3282 99.8321 40.4899 99.8557 40.6583H99.8642Z" fill="#6C63FF"/>
<path d="M102.648 43.9066C102.411 44.5449 100.575 45.9657 100.575 45.9657C100.575 45.9657 100.115 43.6835 100.353 43.0486C100.405 42.8905 100.487 42.7445 100.595 42.6192C100.704 42.494 100.837 42.3921 100.985 42.3197C101.134 42.2474 101.296 42.206 101.461 42.1981C101.626 42.1902 101.79 42.216 101.945 42.2738C102.1 42.3317 102.242 42.4204 102.362 42.5348C102.481 42.6491 102.577 42.7866 102.643 42.9391C102.709 43.0916 102.743 43.2559 102.744 43.4222C102.745 43.5884 102.713 43.7532 102.649 43.9066H102.648Z" fill="#6C63FF"/>
<path d="M103.936 50.2244C103.411 50.6551 101.115 50.9451 101.115 50.9451C101.115 50.9451 101.863 48.7418 102.388 48.3111C102.513 48.2072 102.657 48.1291 102.812 48.0814C102.966 48.0337 103.129 48.0173 103.29 48.0332C103.451 48.049 103.607 48.0969 103.75 48.1739C103.892 48.2509 104.018 48.3556 104.121 48.482C104.223 48.6083 104.299 48.7537 104.345 48.9099C104.391 49.0661 104.406 49.2299 104.389 49.3919C104.372 49.5539 104.323 49.7109 104.245 49.8538C104.167 49.9966 104.062 50.1226 103.936 50.2244Z" fill="#6C63FF"/>
<path d="M103.842 55.2246C103.398 55.7394 101.184 56.4155 101.184 56.4155C101.184 56.4155 101.55 54.1162 101.995 53.6031C102.099 53.4754 102.227 53.37 102.373 53.2932C102.518 53.2164 102.677 53.1697 102.84 53.156C103.004 53.1423 103.169 53.1617 103.324 53.2132C103.48 53.2648 103.624 53.3473 103.748 53.4559C103.872 53.5645 103.972 53.697 104.044 53.8455C104.116 53.994 104.157 54.1556 104.166 54.3205C104.175 54.4855 104.15 54.6505 104.094 54.8058C104.039 54.9611 103.952 55.1035 103.841 55.2246H103.842Z" fill="#6C63FF"/>
<path d="M98.09 46.6468C98.6661 47.0054 100.979 46.99 100.979 46.99C100.979 46.99 99.9564 44.9017 99.3803 44.5431C99.2435 44.4525 99.09 44.3905 98.929 44.3606C98.768 44.3308 98.6027 44.3337 98.4428 44.3692C98.283 44.4047 98.1318 44.4722 97.9982 44.5675C97.8647 44.6628 97.7514 44.7841 97.6652 44.9242C97.579 45.0644 97.5215 45.2204 97.4962 45.3833C97.4709 45.5461 97.4783 45.7124 97.5179 45.8723C97.5575 46.0323 97.6285 46.1826 97.7268 46.3144C97.8251 46.4463 97.9486 46.5569 98.09 46.6399V46.6468Z" fill="#6C63FF"/>
<path d="M98.0558 52.4981C98.712 52.6697 100.916 51.9627 100.916 51.9627C100.916 51.9627 99.3188 50.2777 98.6625 50.1095C98.3531 50.0433 98.0302 50.1 97.7614 50.268C97.4926 50.4359 97.2987 50.702 97.2203 51.0106C97.1419 51.3191 97.1851 51.6463 97.3408 51.9235C97.4965 52.2008 97.7527 52.4066 98.0558 52.4981Z" fill="#6C63FF"/>
<path d="M98.7938 58.188C99.4108 58.466 101.703 58.1468 101.703 58.1468C101.703 58.1468 100.411 56.2147 99.7943 55.9367C99.4975 55.8032 99.1602 55.7938 98.8565 55.9106C98.5529 56.0274 98.3078 56.2608 98.1751 56.5596C98.0424 56.8584 98.0331 57.198 98.1491 57.5037C98.2651 57.8094 98.497 58.0561 98.7938 58.1897V58.188Z" fill="#6C63FF"/>
<path d="M101.667 74.9076C101.268 74.9077 100.873 74.8255 100.507 74.6659C100.14 74.5063 99.8104 74.2729 99.5372 73.9799C99.2639 73.6869 99.0532 73.3407 98.918 72.9625C98.7828 72.5844 98.726 72.1824 98.7512 71.7813L99.5676 58.7576H103.767L104.584 71.7813C104.609 72.1824 104.552 72.5844 104.417 72.9625C104.282 73.3407 104.071 73.6869 103.798 73.9799C103.524 74.2729 103.194 74.5063 102.828 74.6659C102.462 74.8255 102.067 74.9077 101.667 74.9076Z" fill="#4131FD"/>
<path opacity="0.1" d="M16.6352 10.8822H14.249V20.8344H16.6352V10.8822Z" fill="#6C63FF"/>
<path opacity="0.1" d="M19.7032 10.8822H17.317V20.8344H19.7032V10.8822Z" fill="#6C63FF"/>
<path opacity="0.1" d="M22.7712 10.8822H20.385V20.8344H22.7712V10.8822Z" fill="#6C63FF"/>
<path opacity="0.1" d="M25.8393 10.8822H23.4531V20.8344H25.8393V10.8822Z" fill="#6C63FF"/>
<path opacity="0.1" d="M31.9752 10.8822H29.589V20.8344H31.9752V10.8822Z" fill="#6C63FF"/>
<path opacity="0.1" d="M35.0431 10.8822H32.6569V20.8344H35.0431V10.8822Z" fill="#6C63FF"/>
<path opacity="0.1" d="M16.6352 12.7697H14.249V13.2845H16.6352V12.7697Z" fill="#6C63FF"/>
<path opacity="0.1" d="M16.6352 18.947H14.249V19.4617H16.6352V18.947Z" fill="#6C63FF"/>
<path opacity="0.1" d="M19.7032 12.7697H17.317V13.2845H19.7032V12.7697Z" fill="#6C63FF"/>
<path opacity="0.1" d="M19.7032 18.947H17.317V19.4617H19.7032V18.947Z" fill="#6C63FF"/>
<path opacity="0.1" d="M22.7712 12.7697H20.385V13.2845H22.7712V12.7697Z" fill="#6C63FF"/>
<path opacity="0.1" d="M22.7712 18.947H20.385V19.4617H22.7712V18.947Z" fill="#6C63FF"/>
<path opacity="0.1" d="M25.8393 12.7697H23.4531V13.2845H25.8393V12.7697Z" fill="#6C63FF"/>
<path opacity="0.1" d="M25.8393 18.947H23.4531V19.4617H25.8393V18.947Z" fill="#6C63FF"/>
<path opacity="0.1" d="M28.9071 12.7697H26.5209V13.2845H28.9071V12.7697Z" fill="#6C63FF"/>
<path opacity="0.1" d="M28.9071 18.947H26.5209V19.4617H28.9071V18.947Z" fill="#6C63FF"/>
<path opacity="0.1" d="M31.9752 12.7697H29.589V13.2845H31.9752V12.7697Z" fill="#6C63FF"/>
<path opacity="0.1" d="M31.9752 18.947H29.589V19.4617H31.9752V18.947Z" fill="#6C63FF"/>
<path opacity="0.1" d="M35.0431 12.7697H32.6569V13.2845H35.0431V12.7697Z" fill="#6C63FF"/>
<path opacity="0.1" d="M35.0431 18.947H32.6569V19.4617H35.0431V18.947Z" fill="#6C63FF"/>
<path opacity="0.1" d="M28.9071 10.8822H26.5209V20.8344H28.9071V10.8822Z" fill="#6C63FF"/>
<path opacity="0.1" d="M37.287 10.8366L35.1216 11.8457L39.2744 20.8772L41.4399 19.8681L37.287 10.8366Z" fill="#6C63FF"/>
<path opacity="0.1" d="M38.0753 12.5512L35.9098 13.5603L36.1246 14.0275L38.2901 13.0183L38.0753 12.5512Z" fill="#6C63FF"/>
<path opacity="0.1" d="M40.6517 18.1563L38.4863 19.1654L38.7011 19.6326L40.8665 18.6234L40.6517 18.1563Z" fill="#6C63FF"/>
<path d="M66.3261 113.502L61.9952 110.72C61.973 106.803 61.9116 88.616 62.7212 86.1828C62.9301 85.4785 62.9419 84.7298 62.7553 84.0191C62.1929 81.5465 60.1407 79.7001 57.654 79.2935C55.3087 78.9091 51.9339 78.2794 49.2171 77.466C51.6391 77.2138 53.4543 76.9959 53.4543 76.9959L53.502 76.5446L55.0616 76.4691V76.4022L55.2098 76.3936C58.8522 76.1757 66.5869 75.4499 63.9587 73.2775C63.057 72.5328 61.881 72.1811 60.6401 72.0627C64.4342 71.191 70.3639 69.5025 67.7203 67.9153C65.208 66.4088 61.3611 67.5927 59.0652 68.5554L58.9238 68.6154L58.8982 68.4078L57.9812 68.5931L57.6898 68.6515L57.6761 68.3495L44.8094 70.3502C44.7086 68.866 44.5333 67.3879 44.2845 65.9215C44.5725 63.9894 45.9122 61.1718 45.4401 59.6601C44.8912 57.9048 42.638 57.3299 41.6903 55.7444C41.4415 55.3309 41.1943 54.9431 40.9523 54.6034C40.4226 53.8787 39.8137 53.2162 39.1371 52.6284C39.1781 51.6089 39.4045 50.6056 39.8052 49.6684C40.0621 49.0415 40.3628 48.4337 40.7052 47.8496C42.2049 47.4751 43.5062 46.5386 44.3436 45.2313C45.181 43.924 45.4915 42.3443 45.2117 40.8144C46.0264 41.1662 47.0167 41.2022 47.5263 40.5158L47.2842 40.4214C47.3081 40.3957 47.332 40.37 47.3524 40.3408C46.8564 40.1503 46.3298 39.9341 45.9412 39.5875C45.8427 39.4762 45.7596 39.3522 45.694 39.2186C45.4588 38.7382 45.4861 38.1616 45.2611 37.6743C45.1552 37.4524 45.0049 37.255 44.8196 37.0943C44.4249 36.688 43.9256 36.4005 43.3777 36.2638C42.7624 36.0837 42.1147 35.9927 41.525 35.7491C40.7213 34.8095 39.6603 34.1293 38.4746 33.7936C37.289 33.4579 36.0313 33.4815 34.859 33.8616L34.6459 33.9353C34.7939 33.2172 34.6559 32.4692 34.2616 31.8524C33.8673 31.2356 33.2482 30.7993 32.5376 30.6374C31.827 30.4755 31.0817 30.6009 30.462 30.9866C29.8423 31.3723 29.3978 31.9876 29.2241 32.6999C29.2782 32.0745 29.54 31.4858 29.9673 31.0286C29.923 31.0664 29.8769 31.1024 29.8343 31.1419C29.5682 31.3938 29.3539 31.696 29.2038 32.0313C29.0537 32.3666 28.9706 32.7283 28.9594 33.0959C28.9482 33.4635 29.009 33.8297 29.1383 34.1737C29.2677 34.5176 29.4631 34.8325 29.7133 35.1004L29.7627 35.1485C29.9595 35.3909 30.1951 35.5985 30.4599 35.7628C29.9727 35.5896 29.5431 35.2832 29.2191 34.878C28.8952 34.4728 28.6898 33.9848 28.6259 33.4686C28.6259 33.527 28.6259 33.5853 28.6259 33.6402C28.6471 34.0089 28.7407 34.3698 28.901 34.702C29.0614 35.0342 29.2855 35.3312 29.5603 35.5759C29.8352 35.8205 30.1554 36.008 30.5026 36.1276C30.8497 36.2471 31.2169 36.2963 31.5831 36.2724L31.6598 36.2638L31.6189 36.3204C30.8262 37.4941 30.4505 38.9028 30.5526 40.3183C30.6547 41.7338 31.2286 43.0731 32.1813 44.1192C32.2944 44.3801 32.4449 44.6229 32.6279 44.8399C32.6922 44.914 32.7611 44.9839 32.8341 45.0492C33.3009 45.5451 33.9393 45.8412 34.6169 45.8763C34.7306 46.0124 34.8516 46.1434 34.98 46.2692C34.8676 46.7506 34.7206 47.2232 34.5402 47.6831C34.177 48.5991 33.7249 49.4768 33.1903 50.3033C29.5088 51.3569 29.1849 57.6508 29.3179 57.8893C29.4764 58.1742 28.7691 68.0578 31.4961 79.997C31.3837 83.4099 33.3608 89.0535 40.3796 87.5658C49.1574 88.0377 52.0362 89.3916 52.0362 89.3916C52.0362 89.3916 51.2027 104.761 52.3924 106.998C53.1373 108.4 52.6089 110.459 52.0515 111.913C51.8449 112.272 51.6802 112.655 51.5607 113.052C51.3902 113.414 51.2658 113.634 51.2658 113.634H51.3851C50.9351 115.207 50.6164 117.107 50.6164 117.107C50.6164 117.107 61.2571 119.281 65.9375 117.858C67.7544 117.306 67.8294 116.794 67.2397 116.372C67.6741 116.308 68.1035 116.213 68.5248 116.089C73.2086 114.667 66.3261 113.502 66.3261 113.502Z" fill="url(#paint1_linear)"/>
<path d="M43.1732 40.5399C43.1732 41.7617 42.8134 42.956 42.1391 43.9718C41.4649 44.9877 40.5066 45.7794 39.3854 46.247C38.2642 46.7145 37.0305 46.8368 35.8402 46.5985C34.6499 46.3601 33.5566 45.7718 32.6985 44.9079C31.8404 44.044 31.256 42.9433 31.0192 41.745C30.7825 40.5468 30.904 39.3047 31.3684 38.176C31.8328 37.0472 32.6193 36.0825 33.6283 35.4037C34.6374 34.725 35.8237 34.3627 37.0373 34.3627C37.8431 34.3627 38.6409 34.5225 39.3854 34.8329C40.1298 35.1433 40.8063 35.5983 41.376 36.1719C41.9458 36.7456 42.3978 37.4265 42.7062 38.176C43.0145 38.9254 43.1732 39.7287 43.1732 40.5399Z" fill="#FA595F"/>
<path d="M56.9944 69.5609L57.6165 72.6873C57.6165 72.6873 58.3085 72.5621 59.3329 72.3441C62.8321 71.5977 70.2259 69.7548 67.3624 68.0355C64.8995 66.5581 61.1276 67.7198 58.8778 68.6635C58.0528 69.0067 57.4324 69.3259 57.1546 69.4751C57.0506 69.5283 56.9944 69.5609 56.9944 69.5609Z" fill="#F8B9BF"/>
<path opacity="0.1" d="M57.1699 70.443L57.6165 72.6874C57.6165 72.6874 58.3085 72.5621 59.3329 72.3442L58.8778 68.6636C58.0528 69.0068 57.4324 69.3259 57.1546 69.4752L57.1699 70.443Z" fill="black"/>
<path d="M57.0626 72.8813L59.2 72.4506L58.7159 68.5195L57.0047 68.8644L57.0626 72.8813Z" fill="#D9DFE8"/>
<path opacity="0.1" d="M57.0626 72.8812L57.9847 72.6942L57.816 68.7013L57.0047 68.8643L57.0626 72.8812Z" fill="black"/>
<path d="M37.3627 55.8114C37.3627 55.8114 41.5232 53.6287 43.035 60.4872C44.5469 67.3457 44.569 70.472 44.569 70.472L57.509 68.4593L57.7101 73.1934C57.7101 73.1934 43.802 77.0422 42.0925 76.6407C40.3829 76.2392 35.193 66.5426 35.193 66.5426C35.193 66.5426 30.4376 59.0012 37.3627 55.8114Z" fill="#4131FD"/>
<g opacity="0.1">
<path opacity="0.1" d="M56.9944 69.5609L57.6166 72.6873C57.6166 72.6873 58.3086 72.5621 59.3329 72.3441C62.8321 71.5977 70.2259 69.7548 67.3625 68.0355C64.8996 66.5581 61.1277 67.7198 58.8778 68.6635C58.0529 69.0067 57.4325 69.3259 57.1547 69.4751C57.0507 69.5283 56.9944 69.5609 56.9944 69.5609Z" fill="black"/>
<path opacity="0.1" d="M57.1699 70.4429L57.6165 72.6873C57.6165 72.6873 58.3085 72.562 59.3329 72.3441L58.8778 68.6635C58.0528 69.0067 57.4324 69.3259 57.1546 69.4751L57.1699 70.4429Z" fill="black"/>
<path opacity="0.1" d="M57.0626 72.8813L59.2 72.4506L58.7159 68.5195L57.0047 68.8644L57.0626 72.8813Z" fill="black"/>
<path opacity="0.1" d="M57.0626 72.8812L57.9847 72.6942L57.816 68.7013L57.0047 68.8643L57.0626 72.8812Z" fill="black"/>
<path opacity="0.1" d="M37.7037 56.1546C37.7037 56.1546 41.8642 53.972 43.376 60.8305C44.8878 67.6889 44.91 70.8153 44.91 70.8153L57.85 68.8025L58.0511 73.5367C58.0511 73.5367 44.143 77.3855 42.4335 76.9839C40.7239 76.5824 35.5339 66.8859 35.5339 66.8859C35.5339 66.8859 30.7786 59.3445 37.7037 56.1546Z" fill="black"/>
</g>
<path d="M60.8993 109.469L66.0024 112.73C66.0024 112.73 72.7502 113.867 68.1602 115.262C63.5702 116.657 53.139 114.525 53.139 114.525C53.139 114.525 53.9316 109.799 54.7753 109.173C55.619 108.546 60.8993 109.469 60.8993 109.469Z" fill="#F37291"/>
<path d="M41.9801 74.4976C41.9801 74.4976 44.5248 75.9853 49.1012 77.3752C51.784 78.1902 55.1587 78.8199 57.4904 79.2026C58.6866 79.3885 59.8008 79.9282 60.6915 80.7531C61.5823 81.5781 62.2093 82.651 62.4929 83.8355C62.676 84.532 62.6648 85.2659 62.4605 85.9564C61.5708 88.6366 61.7515 110.746 61.7515 110.746L53.7679 111.132C53.7679 111.132 55.0309 107.115 53.4748 104.994C51.9186 102.873 54.5247 87.3669 54.5247 87.3669C54.5247 87.3669 51.697 86.0387 43.0897 85.5772C35.0226 87.2931 32.1234 78.3446 33.4631 75.9355C34.8027 73.5264 41.9801 74.4976 41.9801 74.4976Z" fill="#96A2D0"/>
<g opacity="0.1">
<path opacity="0.1" d="M60.8993 109.469L66.0024 112.73C66.0024 112.73 72.7502 113.867 68.1602 115.262C63.5702 116.657 53.139 114.525 53.139 114.525C53.139 114.525 53.9316 109.799 54.7753 109.173C55.619 108.546 60.8993 109.469 60.8993 109.469Z" fill="black"/>
<path opacity="0.1" d="M41.9801 74.4976C41.9801 74.4976 44.5248 75.9853 49.1012 77.3752C51.784 78.1902 55.1587 78.8199 57.4904 79.2026C58.6866 79.3885 59.8008 79.9282 60.6915 80.7531C61.5823 81.5781 62.2093 82.651 62.4929 83.8355C62.676 84.532 62.6648 85.2659 62.4605 85.9564C61.5708 88.6366 61.7515 110.746 61.7515 110.746L53.7679 111.132C53.7679 111.132 55.0309 107.115 53.4748 104.994C51.9186 102.873 54.5247 87.3669 54.5247 87.3669C54.5247 87.3669 51.697 86.0387 43.0897 85.5772C35.0226 87.2931 32.1234 78.3446 33.4631 75.9355C34.8027 73.5264 41.9801 74.4976 41.9801 74.4976Z" fill="black"/>
</g>
<path d="M58.3562 111.204L63.4593 114.464C63.4593 114.464 70.2071 115.602 65.6171 116.997C61.0271 118.392 50.596 116.259 50.596 116.259C50.596 116.259 51.3885 111.534 52.2322 110.907C53.0759 110.281 58.3562 111.204 58.3562 111.204Z" fill="#F37291"/>
<path d="M40.5553 87.3104C49.1626 87.7719 51.9903 89.1 51.9903 89.1C51.9903 89.1 51.1739 104.169 52.3312 106.362C53.5669 108.689 51.2267 112.865 51.2267 112.865L59.2102 112.479C59.2102 112.479 59.2102 112.218 59.2102 111.752C59.1864 107.911 59.1284 90.0798 59.921 87.6896C60.1252 86.9991 60.1364 86.2652 59.9534 85.5687C59.6696 84.3843 59.0425 83.3115 58.1518 82.4866C57.2611 81.6617 56.1469 81.1219 54.9509 80.9358C52.6175 80.5549 49.2444 79.9251 46.5617 79.1101L46.4304 79.0689C41.9358 77.6962 39.4423 76.2325 39.4423 76.2325C39.4423 76.2325 34.1262 75.8619 32.795 78.271C32.6245 78.5833 31.8899 79.1976 31.8593 79.6935C31.6598 83.012 33.5364 88.798 40.5553 87.3104Z" fill="#96A2D0"/>
<path d="M53.197 73.245L53.3487 76.4297C53.3487 76.4297 54.0509 76.4108 55.0974 76.3473C58.6682 76.1328 66.2529 75.4224 63.6758 73.293C61.46 71.4621 57.5569 72.0455 55.1928 72.641C54.3253 72.8606 53.6589 73.0802 53.3691 73.1849C53.2566 73.2227 53.197 73.245 53.197 73.245Z" fill="#F8B9BF"/>
<path d="M32.9467 51.5714C32.9467 51.5714 33.9693 52.4585 35.2374 53.44C36.6521 53.8278 38.3054 54.1727 39.4866 54.401C39.1201 53.0025 39.4457 51.4839 39.986 50.1472C40.5723 48.7568 41.3504 47.4565 42.2972 46.2847L35.1897 43.6989C35.6925 45.166 35.3602 46.8046 34.8199 48.2065C34.3429 49.4051 33.7132 50.5362 32.9467 51.5714Z" fill="#F8B9BF"/>
<path opacity="0.1" d="M53.2396 74.1425L53.3486 76.4298C53.3486 76.4298 54.0509 76.4109 55.0974 76.3474L55.1928 72.6393C54.3253 72.859 53.6589 73.0786 53.3691 73.1833L53.2396 74.1425Z" fill="black"/>
<path d="M52.7725 76.5378L54.9491 76.4331L55.0513 72.4728L53.3094 72.5569L52.7725 76.5378Z" fill="#D9DFE8"/>
<path d="M32.0143 80.6201C36.6162 85.4366 45.198 79.7123 47.5058 78.017C47.8808 77.7408 48.0904 77.5709 48.0904 77.5709C47.2382 76.6975 45.8747 75.8893 45.3514 73.7015C44.8522 71.4686 44.5138 69.2023 44.339 66.9203C44.1975 65.11 46.0553 61.6628 45.5184 59.9434C44.9815 58.2241 42.7709 57.6596 41.842 56.1032C41.5983 55.6983 41.3562 55.3174 41.1176 54.9845C39.403 52.5822 36.4151 50.9641 36.4151 50.9641C30.0491 48.7763 29.5497 57.929 29.7082 58.2138C29.8667 58.4986 29.1389 68.5881 32.0143 80.6201Z" fill="#4131FD"/>
<path opacity="0.1" d="M31.9665 67.4384C31.9665 67.4384 35.6634 77.8058 37.2946 78.4596C38.2286 78.8337 43.3231 78.4304 47.5058 78.0169C47.8808 77.7406 48.0904 77.5708 48.0904 77.5708C47.2382 76.6974 46.5445 74.8974 46.0229 72.7113L40.6557 72.7302C40.6557 72.7302 41.0903 69.6416 40.6097 62.6252C40.129 55.6089 35.6924 57.1515 35.6924 57.1515C28.3753 59.2638 31.9665 67.4384 31.9665 67.4384Z" fill="black"/>
<path opacity="0.1" d="M52.7725 76.5378L53.7116 76.4932L54.1361 72.5175L53.3094 72.5569L52.7725 76.5378Z" fill="black"/>
<path d="M35.8186 56.7054C35.8186 56.7054 40.2501 55.1731 40.7359 62.1791C41.2216 69.1851 40.787 72.2841 40.787 72.2841L53.8804 72.236L53.3776 76.9479C53.3776 76.9479 39.0604 78.6638 37.4242 78.0135C35.7879 77.3631 32.0944 66.9939 32.0944 66.9939C32.0944 66.9939 28.4998 58.8177 35.8186 56.7054Z" fill="#4131FD"/>
<path opacity="0.1" d="M35.9806 46.374C36.2175 45.3444 35.1284 45.3118 34.7875 44.3149L41.8983 46.8887C41.3687 47.5425 40.8911 48.2373 40.47 48.9667C40.0913 49.0617 39.7043 49.1191 39.3144 49.1383C37.5861 49.2241 37.1242 47.503 35.9806 46.374Z" fill="black"/>
<path d="M39.72 48.5373C43.0071 48.3783 45.5438 45.5668 45.3859 42.2576C45.228 38.9484 42.4353 36.3945 39.1482 36.5535C35.8611 36.7125 33.3244 39.524 33.4823 42.8332C33.6402 46.1424 36.4329 48.6962 39.72 48.5373Z" fill="#F8B9BF"/>
<path opacity="0.1" d="M36.3554 61.1548C36.3554 61.1548 38.2405 70.1444 40.4665 71.0624C42.6925 71.9804 41.6835 72.176 41.6835 72.176" fill="black"/>
<path opacity="0.1" d="M44.1243 66.2322C44.1243 66.2322 42.5495 66.7281 40.7155 64.3584L44.1243 66.2322Z" fill="black"/>
<path d="M32.2649 36.9366C33.771 36.9366 34.992 35.7074 34.992 34.1911C34.992 32.6749 33.771 31.4457 32.2649 31.4457C30.7588 31.4457 29.5378 32.6749 29.5378 34.1911C29.5378 35.7074 30.7588 36.9366 32.2649 36.9366Z" fill="#FA595F"/>
<path d="M30.3491 35.641C29.8751 35.1322 29.6112 34.4607 29.6112 33.763C29.6112 33.0653 29.8751 32.3938 30.3491 31.8849C30.3048 31.921 30.2605 31.957 30.2196 31.9965C29.6925 32.4953 29.3838 33.1844 29.3614 33.9123C29.3391 34.6402 29.6048 35.3472 30.1003 35.8778C30.5957 36.4085 31.2802 36.7192 32.0033 36.7418C32.7263 36.7643 33.4286 36.4967 33.9557 35.998C33.9983 35.9585 34.0358 35.9156 34.0733 35.8744C33.5393 36.3192 32.8571 36.5427 32.1654 36.4993C31.4736 36.456 30.8242 36.1491 30.3491 35.641Z" fill="#FA595F"/>
<path d="M31.9069 36.6774C31.2148 36.7193 30.5327 36.4943 29.9995 36.0481C29.4664 35.6018 29.122 34.9679 29.0366 34.2751C29.0366 34.3318 29.0366 34.3884 29.0366 34.4467C29.0818 35.1735 29.412 35.8524 29.9544 36.3341C30.223 36.5727 30.5356 36.7556 30.8744 36.8725C31.2132 36.9894 31.5716 37.0379 31.929 37.0154C32.2865 36.9929 32.636 36.8997 32.9577 36.7412C33.2794 36.5826 33.5669 36.3619 33.8038 36.0915C34.0408 35.8211 34.2225 35.5064 34.3386 35.1653C34.4547 34.8242 34.503 34.4634 34.4806 34.1035C34.4806 34.0452 34.4686 33.9903 34.4618 33.9319C34.4632 34.631 34.1996 35.3043 33.7249 35.8145C33.2501 36.3246 32.5999 36.6333 31.9069 36.6774Z" fill="#FA595F"/>
<path opacity="0.1" d="M41.6307 36.5779C42.2665 36.8936 42.9943 36.9811 43.676 37.1802C44.3578 37.3792 45.0532 37.743 45.3532 38.3916C45.5731 38.8686 45.5475 39.4332 45.7776 39.905C46.1082 40.5914 46.8718 40.9071 47.5741 41.1765C46.9707 41.9916 45.6753 41.7702 44.8299 41.216C43.9845 40.6618 43.2567 39.8433 42.2733 39.6288C41.7881 39.5324 41.2852 39.5894 40.8333 39.7918C40.3815 39.9942 40.0028 40.3322 39.749 40.7596C39.4797 41.2349 39.3843 41.7891 39.2513 42.3176C38.9105 43.7109 38.2287 45.0974 37.0356 45.8884C35.8425 46.6794 34.0648 46.6743 33.129 45.5915C32.5836 44.9601 32.4012 44.1004 32.2393 43.2802C32.1471 42.8978 32.103 42.5052 32.1081 42.1117C32.1626 41.1268 32.8137 40.2877 33.4716 39.5567C34.2471 38.6988 35.0721 37.8751 35.897 37.0566C36.6095 36.3497 37.431 35.152 38.5048 35.0679C39.7422 34.9684 40.6166 36.0786 41.6307 36.5779Z" fill="black"/>
<path d="M41.4603 36.4063C42.096 36.722 42.8238 36.8095 43.5056 37.0086C44.1874 37.2076 44.8828 37.5714 45.1828 38.22C45.4026 38.697 45.3771 39.2615 45.6072 39.7334C45.9378 40.4198 46.7014 40.7355 47.4036 41.0049C46.8003 41.82 45.5049 41.5986 44.6595 41.0444C43.8141 40.4901 43.0863 39.6716 42.1029 39.4572C41.6176 39.3608 41.1147 39.4177 40.6629 39.6202C40.211 39.8226 39.8323 40.1606 39.5786 40.5879C39.3093 41.0632 39.2138 41.6175 39.0809 42.146C38.74 43.5393 38.0582 44.9257 36.8651 45.7168C35.672 46.5078 33.8943 46.5027 32.9586 45.4199C32.4132 44.7885 32.2308 43.9288 32.0689 43.1086C31.9767 42.7262 31.9326 42.3336 31.9376 41.9401C31.9922 40.9551 32.6433 40.1161 33.3012 39.3851C34.0767 38.5271 34.9016 37.7035 35.7266 36.885C36.439 36.1781 37.2606 34.9804 38.3344 34.8963C39.5718 34.7968 40.4462 35.907 41.4603 36.4063Z" fill="#FA595F"/>
<path d="M42.1181 74.5149H25.58C24.7799 74.5149 24.1313 75.1679 24.1313 75.9734V76.0798C24.1313 76.8853 24.7799 77.5383 25.58 77.5383H42.1181C42.9182 77.5383 43.5669 76.8853 43.5669 76.0798V75.9734C43.5669 75.1679 42.9182 74.5149 42.1181 74.5149Z" fill="#D6D6E3"/>
<path opacity="0.1" d="M24.1313 76.059V76.2975C24.1313 76.6275 24.2615 76.9439 24.4932 77.1772C24.725 77.4105 25.0393 77.5415 25.367 77.5415H42.3312C42.6589 77.5415 42.9732 77.4105 43.2049 77.1772C43.4367 76.9439 43.5669 76.6275 43.5669 76.2975V76.059H24.1313Z" fill="black"/>
<path d="M61.7003 77.6669H58.3579V120.535H61.7003V77.6669Z" fill="#D6D6E3"/>
<path opacity="0.1" d="M61.7003 77.6669H58.3579V80.4467H61.7003V77.6669Z" fill="black"/>
<path d="M145.12 74.5936H56.7592V80.1531H145.12V74.5936Z" fill="#D6D6E3"/>
</g>
<defs>
<linearGradient id="paint0_linear" x1="147.279" y1="119.081" x2="155.282" y2="30.7544" gradientUnits="userSpaceOnUse">
<stop stop-color="#808080" stop-opacity="0.25"/>
<stop offset="0.54" stop-color="#808080" stop-opacity="0.12"/>
<stop offset="1" stop-color="#808080" stop-opacity="0.1"/>
</linearGradient>
<linearGradient id="paint1_linear" x1="13713.3" y1="62207" x2="13713.3" y2="17321.8" gradientUnits="userSpaceOnUse">
<stop stop-color="#808080" stop-opacity="0.25"/>
<stop offset="0.54" stop-color="#808080" stop-opacity="0.12"/>
<stop offset="1" stop-color="#808080" stop-opacity="0.1"/>
</linearGradient>
<clipPath id="clip0">
<rect width="191" height="148" fill="white"/>
</clipPath>
</defs>
</svg>
