<svg width="729" height="530" viewBox="0 0 729 530" fill="none" xmlns="http://www.w3.org/2000/svg">
<g clip-path="url(#clip0)">
<path opacity="0.1" d="M232.744 19.9924C252.429 2.46705 283.318 -1.12565 311.431 0.26964C399.744 4.65772 479.461 47.3184 548.412 95.5738C573.379 113.038 597.955 131.865 614.157 155.922C647.168 204.885 637.359 272.728 591.494 313.063C575.885 326.794 556.968 337.329 537.546 346.638C503.013 363.226 465.751 376.539 426.563 380.34C398.612 383.037 370.317 380.846 342.535 377.078C264.906 366.529 188.706 343.234 124.84 303.418C96.8286 285.933 70.4202 264.208 58.8732 235.925C47.3263 207.642 54.7166 171.816 83.3212 155.079C95.1511 148.157 109.298 145.029 123.143 142.097C143.528 137.776 164.237 133.516 182.636 124.733C201.634 115.661 224.128 98.1082 220.362 78.0282C216.333 56.4451 213.093 37.5177 232.744 19.9924Z" fill="#6C63FF"/>
<path opacity="0.1" d="M572.928 481.954C613.654 481.954 646.669 479.835 646.669 477.222C646.669 474.608 613.654 472.49 572.928 472.49C532.201 472.49 499.186 474.608 499.186 477.222C499.186 479.835 532.201 481.954 572.928 481.954Z" fill="#6C63FF"/>
<path opacity="0.1" d="M381.258 450.287C421.984 450.287 454.999 448.168 454.999 445.555C454.999 442.942 421.984 440.823 381.258 440.823C340.532 440.823 307.516 442.942 307.516 445.555C307.516 448.168 340.532 450.287 381.258 450.287Z" fill="#6C63FF"/>
<path opacity="0.1" d="M110.531 525.349C151.258 525.349 184.273 523.231 184.273 520.617C184.273 518.004 151.258 515.885 110.531 515.885C69.805 515.885 36.7899 518.004 36.7899 520.617C36.7899 523.231 69.805 525.349 110.531 525.349Z" fill="#6C63FF"/>
<path opacity="0.1" d="M250.658 530C267.415 530 281 529.128 281 528.052C281 526.976 267.415 526.104 250.658 526.104C233.9 526.104 220.315 526.976 220.315 528.052C220.315 529.128 233.9 530 250.658 530Z" fill="#6C63FF"/>
<path opacity="0.1" d="M705.347 479.412C718.406 479.412 728.993 478.733 728.993 477.896C728.993 477.058 718.406 476.379 705.347 476.379C692.288 476.379 681.701 477.058 681.701 477.896C681.701 478.733 692.288 479.412 705.347 479.412Z" fill="#6C63FF"/>
<path opacity="0.1" d="M488.32 447.577C499.392 447.577 508.369 447.001 508.369 446.289C508.369 445.578 499.392 445.002 488.32 445.002C477.247 445.002 468.271 445.578 468.271 446.289C468.271 447.001 477.247 447.577 488.32 447.577Z" fill="#6C63FF"/>
<path d="M708.749 441.497C708.749 441.497 711.915 445.643 707.294 451.898C702.672 458.153 698.846 463.431 700.389 467.327C700.389 467.327 707.375 455.713 713.054 455.551C718.733 455.389 715.008 448.487 708.749 441.497Z" fill="#6C63FF"/>
<path opacity="0.1" d="M708.749 441.497C709.034 441.897 709.26 442.335 709.423 442.798C714.967 449.316 717.918 455.396 712.589 455.551C707.624 455.693 701.669 464.577 700.24 466.821C700.286 466.993 700.343 467.162 700.409 467.327C700.409 467.327 707.395 455.713 713.074 455.551C718.753 455.389 715.008 448.487 708.749 441.497Z" fill="black"/>
<path d="M714.644 446.775C714.644 448.238 714.482 449.417 714.28 449.417C714.078 449.417 713.916 448.238 713.916 446.775C713.916 445.312 714.118 446.006 714.32 446.006C714.523 446.006 714.644 445.319 714.644 446.775Z" fill="#FFD037"/>
<path d="M716.665 448.521C715.385 449.195 714.273 449.64 714.172 449.464C714.071 449.289 715.035 448.575 716.315 447.874C717.595 447.172 717.089 447.685 717.184 447.874C717.278 448.062 717.945 447.82 716.665 448.521Z" fill="#FFD037"/>
<path d="M692.035 441.497C692.035 441.497 688.869 445.643 693.497 451.898C698.125 458.153 701.938 463.431 700.395 467.327C700.395 467.327 693.416 455.713 687.73 455.551C682.044 455.389 685.783 448.487 692.035 441.497Z" fill="#6C63FF"/>
<path opacity="0.1" d="M692.035 441.497C691.749 441.896 691.522 442.334 691.361 442.798C685.817 449.316 682.859 455.396 688.188 455.551C693.153 455.693 699.115 464.577 700.537 466.821C700.491 466.993 700.435 467.162 700.368 467.327C700.368 467.327 693.389 455.713 687.703 455.551C682.017 455.389 685.783 448.487 692.035 441.497Z" fill="black"/>
<path d="M686.147 446.775C686.147 448.238 686.309 449.417 686.511 449.417C686.713 449.417 686.881 448.238 686.881 446.775C686.881 445.312 686.672 446.006 686.47 446.006C686.268 446.006 686.147 445.319 686.147 446.775Z" fill="#FFD037"/>
<path d="M684.126 448.521C685.406 449.195 686.524 449.64 686.619 449.464C686.713 449.289 685.756 448.575 684.476 447.874C683.196 447.172 683.702 447.685 683.607 447.874C683.513 448.062 682.846 447.82 684.126 448.521Z" fill="#FFD037"/>
<path d="M687.191 466.788C687.191 466.788 696.043 466.518 698.711 464.617C701.379 462.716 712.326 460.445 712.993 463.491C713.66 466.538 726.292 478.651 716.301 478.732C706.31 478.813 693.079 477.175 690.411 475.557C687.744 473.939 687.191 466.788 687.191 466.788Z" fill="#A8A8A8"/>
<path opacity="0.2" d="M716.443 477.673C706.452 477.754 693.221 476.116 690.56 474.492C688.539 473.258 687.723 468.823 687.454 466.774H687.157C687.157 466.774 687.717 473.919 690.378 475.537C693.039 477.154 706.27 478.792 716.267 478.711C719.151 478.711 720.148 477.667 720.094 476.143C719.69 477.08 718.592 477.653 716.443 477.673Z" fill="black"/>
<path d="M491.877 415.169C491.877 415.169 494.571 418.707 490.624 424.059C486.676 429.411 483.402 433.927 484.722 437.264C484.722 437.264 490.691 427.328 495.555 427.153C500.419 426.978 497.212 421.141 491.877 415.169Z" fill="#6C63FF"/>
<path opacity="0.1" d="M491.877 415.169C492.112 415.512 492.298 415.886 492.429 416.281C497.145 421.855 499.698 427.066 495.124 427.187C490.88 427.308 485.78 434.912 484.561 436.833C484.601 436.979 484.65 437.123 484.709 437.264C484.709 437.264 490.678 427.328 495.542 427.153C500.406 426.978 497.212 421.141 491.877 415.169Z" fill="black"/>
<path d="M496.909 419.685C496.909 420.932 496.768 421.943 496.599 421.943C496.431 421.943 496.283 420.932 496.283 419.685C496.283 418.438 496.458 419.011 496.633 419.011C496.808 419.011 496.909 418.438 496.909 419.685Z" fill="#FFD037"/>
<path d="M498.641 421.174C497.543 421.768 496.62 422.132 496.505 421.977C496.391 421.822 497.246 421.222 498.337 420.628C499.429 420.035 499.011 420.467 499.085 420.628C499.159 420.79 499.732 420.575 498.641 421.174Z" fill="#FFD037"/>
<path d="M477.568 415.169C477.568 415.169 474.873 418.707 478.814 424.059C482.755 429.411 486.043 433.927 484.722 437.264C484.722 437.264 478.747 427.328 473.883 427.153C469.019 426.978 472.219 421.141 477.568 415.169Z" fill="#6C63FF"/>
<path opacity="0.1" d="M477.568 415.169C477.329 415.51 477.14 415.885 477.009 416.281C472.293 421.855 469.74 427.066 474.314 427.187C478.565 427.308 483.658 434.912 484.877 436.833C484.837 436.974 484.79 437.122 484.736 437.264C484.736 437.264 478.76 427.328 473.896 427.153C469.032 426.978 472.219 421.141 477.568 415.169Z" fill="black"/>
<path d="M472.529 419.685C472.529 420.932 472.67 421.943 472.845 421.943C473.02 421.943 473.155 420.932 473.155 419.685C473.155 418.438 472.98 419.011 472.805 419.011C472.63 419.011 472.529 418.438 472.529 419.685Z" fill="#FFD037"/>
<path d="M470.804 421.174C471.895 421.768 472.825 422.132 472.933 421.977C473.041 421.822 472.198 421.222 471.1 420.628C470.002 420.035 470.427 420.467 470.352 420.628C470.278 420.79 469.706 420.575 470.804 421.174Z" fill="#FFD037"/>
<path d="M473.391 436.806C473.391 436.806 480.963 436.57 483.247 434.945C485.531 433.321 494.902 431.373 495.467 433.981C496.033 436.59 506.846 446.957 498.297 447.024C489.748 447.092 478.43 445.676 476.153 444.328C473.876 442.98 473.391 436.806 473.391 436.806Z" fill="#A8A8A8"/>
<path opacity="0.2" d="M498.452 446.114C489.896 446.189 478.578 444.766 476.301 443.418C474.57 442.36 473.876 438.565 473.647 436.812H473.391C473.391 436.812 473.869 442.919 476.153 444.308C478.437 445.696 489.748 447.099 498.297 447.004C500.763 447.004 501.618 446.108 501.571 444.807C501.254 445.643 500.284 446.101 498.452 446.114Z" fill="black"/>
<g opacity="0.8">
<path opacity="0.8" d="M99.557 419.105C109.519 419.109 119.257 422.068 127.539 427.609C135.82 433.149 142.274 441.022 146.085 450.232C149.895 459.442 150.89 469.576 148.945 479.352C147 489.128 142.202 498.107 135.157 505.155C128.112 512.203 119.137 517.003 109.366 518.947C99.5949 520.892 89.467 519.895 80.2626 516.081C71.0582 512.268 63.1904 505.809 57.6541 497.522C52.1178 489.235 49.1614 479.492 49.1587 469.524C49.1543 462.901 50.4549 456.342 52.9862 450.223C55.5174 444.103 59.2297 438.543 63.9106 433.86C68.5914 429.177 74.1491 425.464 80.2657 422.932C86.3822 420.4 92.9377 419.1 99.557 419.105Z" fill="#E74D89"/>
<path opacity="0.8" d="M99.557 523.502C88.8864 523.49 78.4589 520.314 69.5922 514.374C60.7255 508.434 53.8176 499.998 49.7415 490.131C45.6654 480.264 44.6041 469.41 46.6917 458.94C48.7793 448.47 53.9221 438.854 61.4702 431.307C69.0183 423.761 78.6328 418.622 89.0987 416.541C99.5647 414.46 110.412 415.53 120.271 419.616C130.129 423.702 138.556 430.62 144.485 439.496C150.415 448.372 153.582 458.807 153.586 469.484C153.574 483.813 147.876 497.552 137.745 507.681C127.614 517.81 113.879 523.501 99.557 523.502ZM145.105 476.878C135.777 474.156 125.975 473.467 116.359 474.856C120.297 485.54 123.302 496.546 125.339 507.75C130.578 504.24 135.037 499.687 138.438 494.375C141.839 489.064 144.109 483.107 145.105 476.878ZM117.585 512.01C115.416 500.071 112.123 488.364 107.749 477.047C107.656 477.091 107.555 477.119 107.453 477.127C81.408 486.207 72.0774 504.245 71.2353 505.93C79.3209 512.233 89.28 515.652 99.5301 515.643C105.725 515.686 111.863 514.449 117.558 512.01H117.585ZM65.2867 500.396C66.3376 498.623 79.0029 477.68 102.811 469.949C103.397 469.74 104.03 469.571 104.623 469.403C103.485 466.781 102.218 464.165 100.864 461.591C77.824 468.473 55.4509 468.176 53.4231 468.136C53.4231 468.601 53.3827 469.066 53.3827 469.524C53.3962 480.934 57.6375 491.933 65.2867 500.396ZM54.3932 460.108C68.7901 460.044 83.121 458.158 97.0442 454.493C91.825 445.309 86.1175 436.413 79.9461 427.841C73.4872 430.882 67.8195 435.377 63.3864 440.975C58.9533 446.573 55.8753 453.121 54.3932 460.108ZM88.7511 424.72C95.0801 433.318 100.835 442.325 105.977 451.682C122.395 445.521 129.314 436.226 130.162 435.046C121.729 427.552 110.837 423.419 99.557 423.432C95.9169 423.459 92.2915 423.9 88.7511 424.747V424.72ZM135.269 440.385C134.299 441.699 126.572 451.621 109.521 458.584C110.572 460.782 111.629 463.02 112.6 465.257C112.936 466.06 113.273 466.862 113.617 467.623C128.977 465.675 144.215 468.803 145.738 469.099C145.624 458.611 141.93 448.477 135.269 440.378V440.385Z" fill="#B2215A"/>
</g>
<path d="M224.492 315.658C223.272 314.128 221.885 303.606 221.885 303.606L216.495 276.793L213.706 261.343C213.706 261.343 213.032 241.829 200.825 232.15L199.875 231.402C199.875 231.227 199.875 231.058 199.875 230.883C199.764 228.998 199.353 227.144 198.656 225.389C198.361 224.821 198.211 224.189 198.218 223.549C198.25 223.297 198.332 223.054 198.461 222.835C199.032 222.05 199.786 221.417 200.657 220.988C202.873 219.64 204.759 217.516 205.271 215.002C205.268 214.946 205.268 214.89 205.271 214.834C205.271 214.726 205.271 214.611 205.319 214.497C205.366 214.382 205.319 214.375 205.319 214.308C205.325 214.191 205.325 214.074 205.319 213.957V213.809C205.319 213.674 205.319 213.533 205.319 213.391C205.315 213.362 205.315 213.333 205.319 213.304C205.319 213.149 205.285 212.987 205.258 212.832V212.798C205.136 211.886 204.786 211.019 204.239 210.279C203.693 209.539 202.968 208.949 202.132 208.565C202.436 208.493 202.718 208.351 202.958 208.151C203.197 207.951 203.388 207.698 203.513 207.412C203.596 207.247 203.662 207.073 203.709 206.893C203.755 206.726 203.784 206.554 203.796 206.381C203.796 206.381 203.796 206.327 203.796 206.3C203.806 206.152 203.806 206.003 203.796 205.855C203.796 205.808 203.796 205.761 203.796 205.714C203.776 205.566 203.744 205.419 203.702 205.276C203.705 205.238 203.705 205.199 203.702 205.161L203.661 205.067C203.21 203.773 202.139 202.775 201.216 201.737C195.894 195.772 194.863 187.38 193.415 179.601C192.613 175.287 191.097 170.373 186.92 168.735C185.74 168.361 184.539 168.055 183.323 167.819C179.618 166.834 176.586 164.246 172.962 162.979C170.514 162.138 167.896 161.918 165.342 162.339C163.395 162.662 161.765 163.619 159.885 164.071C155.843 165.062 150.939 163.956 147.759 167.225C145.529 169.497 145.354 172.962 144.256 175.921C142.181 181.414 136.791 185.411 135.397 191.121C134.501 194.801 135.431 198.535 136.407 202.236C137.143 204.722 137.639 207.272 137.89 209.852C137.927 210.504 137.927 211.156 137.89 211.807C137.746 213.708 137.316 215.575 136.616 217.348C132.062 219.033 127.353 221.022 127.003 222.14C126.329 224.345 115.335 230.627 115.335 230.627C115.335 230.627 111.158 234.192 111.158 235.547C111.158 236.902 109.77 241.149 108.894 241.149C108.018 241.149 106.287 258.29 106.287 258.29V276.112C106.287 276.112 99.8534 297.156 98.3713 315.827C98.3713 315.827 95.7709 327.751 100.015 334.592C100.57 335.521 101.279 336.348 102.11 337.039L104.28 342.708C105.043 341.433 106.013 340.294 107.149 339.338C107.257 340.046 107.378 340.875 107.527 341.798C107.709 342.957 107.924 344.272 108.2 345.681C106.853 347.79 103.599 352.205 99.6917 353.857C96.0808 355.38 100.783 359.411 104.03 361.764C103.168 366.057 101.922 371.328 100.911 372.016C99.1663 373.202 93.6016 388.139 93.6016 388.139C93.6016 388.139 82.6408 413.753 98.3915 416.652C114.142 419.55 122.173 412.749 122.173 412.749H125.945C125.945 412.749 130.533 410.16 130.661 404.808C133.228 402.692 137.169 399.335 137.97 397.98C138.772 396.625 136.562 392.217 135.161 389.811L135.532 389.137C135.532 389.137 150.508 369.96 152.421 371.996C154.334 374.031 155.554 377.253 154.685 379.296L155.506 391.044V409.372C155.506 409.372 153.357 417.69 155.506 418.539C157.655 419.388 155.506 422.583 155.506 422.583C155.506 422.583 156.308 426.317 156.456 427.504C156.533 429.031 156.533 430.56 156.456 432.087L155.735 450.422L154.341 477.572C154.341 477.572 152.778 479.783 153.997 481.307C155.217 482.83 154.671 486.402 154.341 487.076C154.011 487.75 153.822 493.359 153.822 493.359C153.822 493.359 148.77 498.616 152.778 499.978L152.933 500.025C151.276 501.562 151.255 505.02 151.383 506.091C151.511 507.163 150.319 511.484 149.423 513.931C149.244 514.553 148.966 515.142 148.601 515.676C147.988 516.108 148.601 520.86 148.601 520.86C148.601 520.86 168.178 522.471 169.836 520.86C170.509 520.233 170.341 518.71 169.869 516.95C169.117 514.398 168.116 511.925 166.878 509.57C165.74 507.453 166.272 504.737 166.272 504.737V502.714C167.586 502.923 168.441 503.045 168.441 503.045C168.441 503.045 170.88 501.023 169.836 499.142C168.791 497.261 171.749 486.76 171.749 486.76C171.749 486.76 175.057 474.876 175.057 473.69C175.057 472.503 179.409 457.061 179.409 457.061C179.409 457.061 185.849 429.735 182.717 416.834C182.717 416.834 185.499 413.612 185.149 412.789C184.798 411.967 183.99 408.374 185.182 406.851C186.375 405.327 191.421 386.312 192.815 383.091C193.455 381.601 195.058 377.489 196.594 373.479C203.527 372.44 211.786 370.526 211.786 370.526C211.786 370.526 210.553 365.275 209.637 359.91L210.391 356.223L210.661 354.949C211.283 355.56 211.837 356.239 212.311 356.971L213.699 350.183C213.699 350.183 213.854 349.947 214.117 349.509C215.741 346.968 221.655 337.835 224.492 335.064C227.799 331.782 225.718 317.182 224.492 315.658Z" fill="url(#paint0_linear)"/>
<path d="M182.258 202.101H163.058V223.671H182.258V202.101Z" fill="#925978"/>
<path opacity="0.1" d="M182.258 202.101H163.058V223.671H182.258V202.101Z" fill="black"/>
<path d="M134.925 387.971C134.925 387.971 139.81 395.722 138.631 397.744C137.452 399.766 129.381 406.338 129.381 406.338L126.996 390.161L134.925 387.971Z" fill="#FF6484"/>
<path d="M119.768 412.91L123.331 412.405H126.983C126.983 412.405 131.833 409.614 131.557 403.811C131.281 398.007 131.557 392.352 131.557 392.352L119.768 412.91Z" fill="#575988"/>
<path opacity="0.1" d="M119.768 412.91L123.331 412.405H126.983C126.983 412.405 131.833 409.614 131.557 403.811C131.281 398.007 131.557 392.352 131.557 392.352L119.768 412.91Z" fill="black"/>
<path d="M126.983 333.878L106.772 356.122C106.772 356.122 104.414 370.782 102.73 371.962C101.046 373.141 95.6968 387.971 95.6968 387.971C95.6968 387.971 85.0997 413.416 100.332 416.281C115.564 419.145 123.318 412.405 123.318 412.405L136.253 388.982C136.253 388.982 150.743 369.94 152.596 371.962C154.449 373.984 155.628 377.186 154.786 379.208L155.574 390.835V409.035C155.574 409.035 153.499 417.292 155.574 418.134C157.649 418.977 155.574 422.179 155.574 422.179C155.574 422.179 156.355 425.886 156.497 427.066C156.638 428.245 156.497 431.615 156.497 431.615L155.823 449.815L154.476 476.777C154.476 476.777 152.96 478.968 154.139 480.484C155.318 482.001 154.813 485.54 154.476 486.214C154.139 486.888 153.97 492.449 153.97 492.449C153.97 492.449 149.086 497.672 152.96 499.021C156.834 500.369 168.118 502.054 168.118 502.054C168.118 502.054 170.476 500.032 169.465 498.178C168.455 496.324 171.318 485.877 171.318 485.877C171.318 485.877 174.518 474.081 174.518 472.901C174.518 471.721 178.728 456.387 178.728 456.387C178.728 456.387 184.96 429.256 181.928 416.449C181.928 416.449 184.623 413.247 184.286 412.405C183.949 411.562 183.161 408.024 184.286 406.507C185.411 404.99 190.349 386.117 191.697 382.915C193.044 379.713 198.77 364.21 198.77 364.21V335.563L126.983 333.878Z" fill="#575988"/>
<path d="M187.318 232.265L175.69 254.245L172.625 260.029L172.16 260.912L142.181 262.091C142.181 262.091 141.325 260.197 140.113 257.259C138.018 252.169 134.851 243.933 133.255 236.983C132.86 235.32 132.567 233.634 132.379 231.934C131.934 227.728 132.608 224.729 135.303 224.473C135.983 224.411 136.67 224.482 137.324 224.682C139.197 225.235 141.159 225.425 143.104 225.241C150.218 224.378 152.3 216.863 152.65 209.799C152.65 209.3 152.697 208.801 152.704 208.309C152.704 206.779 152.704 205.296 152.603 203.934C152.468 201.625 152.203 199.325 151.808 197.045C153.588 196.173 155.453 195.484 157.373 194.99C163.058 193.534 171.069 193.574 171.176 205.303C171.164 207.902 171.422 210.495 171.944 213.041C172.248 214.492 172.734 215.898 173.393 217.227C175.367 221.021 178.109 221.433 179.395 221.385C179.633 221.386 179.87 221.361 180.103 221.311L187.318 232.265Z" fill="#FFC5CB"/>
<path opacity="0.1" d="M157.393 244.991C157.808 246.185 158.019 247.441 158.019 248.705C158.146 250.036 158.115 251.378 157.925 252.702C157.733 254.041 157.069 255.268 156.052 256.16" fill="black"/>
<path opacity="0.1" d="M165.874 214.753C175.827 214.753 183.895 206.68 183.895 196.722C183.895 186.764 175.827 178.691 165.874 178.691C155.922 178.691 147.853 186.764 147.853 196.722C147.853 206.68 155.922 214.753 165.874 214.753Z" fill="black"/>
<path d="M183.889 196.048C183.89 199.671 182.8 203.211 180.761 206.206C178.721 209.2 175.827 211.51 172.455 212.834C169.084 214.157 165.392 214.434 161.862 213.627C158.331 212.819 155.126 210.966 152.663 208.309C152.506 208.148 152.358 207.98 152.219 207.803C150.322 205.6 148.986 202.971 148.325 200.139C147.665 197.308 147.698 194.358 148.423 191.542C149.149 188.726 150.544 186.128 152.49 183.969C154.437 181.809 156.876 180.153 159.601 179.142C162.325 178.13 165.254 177.793 168.137 178.159C171.02 178.526 173.772 179.585 176.157 181.246C178.543 182.906 180.491 185.12 181.836 187.698C183.181 190.275 183.883 193.14 183.882 196.048H183.889Z" fill="#FFC5CB"/>
<path opacity="0.1" d="M136.946 241.027C136.946 241.027 143.346 257.71 156.82 255.014C156.82 255.014 170.422 256.079 178.21 246.083C185.997 236.087 186.462 303.377 186.462 303.377L183.431 348.033C183.431 348.033 161.718 361.009 152.286 359.323C142.855 357.638 138.307 352.583 138.307 352.583C138.307 352.583 128.37 343.315 125.676 342.135C122.981 340.955 126.855 283.493 126.855 283.493L130.055 261.923L136.946 241.027Z" fill="black"/>
<path d="M136.946 239.679C136.946 239.679 143.346 256.362 156.82 253.666C156.82 253.666 170.422 254.731 178.21 244.735C185.997 234.739 186.462 302.029 186.462 302.029L183.431 346.685C183.431 346.685 161.718 359.66 152.286 357.975C142.855 356.29 138.307 351.235 138.307 351.235C138.307 351.235 128.37 341.967 125.676 340.787C122.981 339.607 126.855 282.145 126.855 282.145L130.055 260.575L136.946 239.679Z" fill="#E8F4FF"/>
<path opacity="0.1" d="M136.273 333.878C136.273 333.878 150.757 350.055 149.915 351.74C149.073 353.425 135.936 338.765 136.273 333.878Z" fill="black"/>
<path opacity="0.1" d="M133.78 293.651C133.78 293.651 138.408 300.121 141.305 299.447L133.78 293.651Z" fill="black"/>
<path opacity="0.1" d="M143.784 224.682C143.784 224.682 143.784 224.877 143.737 225.241C143.582 227.31 143.003 234.813 142.221 243.171C141.783 247.889 141.285 252.837 140.773 257.259C139.938 264.451 139.048 270.207 138.294 271.023C136.104 273.382 136.946 295.626 136.946 295.626V323.767C136.946 323.767 135.101 332.698 133.578 334.721C132.056 336.743 128.337 344.326 125.359 345.337C124.311 345.911 123.37 346.661 122.577 347.554C119.882 350.251 116.069 354.747 113.145 358.292C110.733 361.251 108.948 363.536 108.948 363.536C108.948 363.536 97.1587 356.122 102.211 353.931C105.991 352.293 109.117 347.912 110.444 345.842C110.895 345.168 111.117 344.69 111.117 344.69C111.356 343.119 111.714 341.569 112.189 340.052C112.616 338.623 113.245 337.261 114.055 336.008C114.671 334.965 115.673 334.208 116.844 333.898C121.223 333.056 123.412 291.433 123.412 291.433L109.938 262.017L108.591 259.079C108.591 259.079 110.275 242.059 111.117 242.059C111.96 242.059 113.307 237.846 113.307 236.498C113.307 235.15 117.349 231.611 117.349 231.611C117.349 231.611 128.034 225.356 128.707 223.165C129.064 222.012 133.962 219.93 138.523 218.218C142.619 216.681 146.439 215.44 146.439 215.44C148.669 218.838 143.784 224.682 143.784 224.682Z" fill="black"/>
<path d="M143.111 224.682C143.111 224.682 143.111 224.877 143.064 225.241C142.909 227.31 142.329 234.813 141.548 243.171C141.11 247.889 140.611 252.837 140.099 257.259C139.264 264.451 138.375 270.207 137.62 271.023C135.431 273.382 136.273 295.626 136.273 295.626V323.767C136.273 323.767 134.427 332.698 132.904 334.721C131.382 336.743 127.663 344.326 124.685 345.337C123.638 345.911 122.697 346.661 121.903 347.554C119.208 350.251 115.395 354.747 112.472 358.292C110.06 361.251 108.274 363.536 108.274 363.536C108.274 363.536 96.485 356.122 101.538 353.931C105.317 352.293 108.443 347.912 109.77 345.842C110.221 345.168 110.444 344.69 110.444 344.69C110.682 343.119 111.04 341.569 111.515 340.052C111.943 338.623 112.571 337.261 113.381 336.008C113.998 334.965 114.999 334.208 116.17 333.898C120.549 333.056 122.738 291.433 122.738 291.433L109.265 262.017L107.917 259.079C107.917 259.079 109.602 242.059 110.444 242.059C111.286 242.059 112.633 237.846 112.633 236.498C112.633 235.15 116.675 231.611 116.675 231.611C116.675 231.611 127.36 225.356 128.034 223.165C128.391 222.012 133.288 219.93 137.849 218.218C141.945 216.681 145.765 215.44 145.765 215.44C147.995 218.838 143.111 224.682 143.111 224.682Z" fill="#FF6484"/>
<path opacity="0.1" d="M210.102 263.399L195.557 280.459C195.557 280.459 208.189 346.011 206.673 349.044C206.557 349.296 206.482 349.564 206.45 349.84C206.295 351.41 206.324 352.994 206.538 354.558C206.713 356.209 206.983 358.043 207.286 359.869C208.175 365.194 209.367 370.412 209.367 370.412C209.367 370.412 192.357 374.456 187.136 373.95C181.915 373.445 184.946 365.019 185.789 361.143C186.631 357.268 180.062 351.841 180.062 351.841L170.799 313.791C170.799 313.791 170.125 305.366 168.104 301.321C166.083 297.277 167.936 292.896 167.262 287.166C166.784 283.081 169.721 268.482 171.938 259.995C172.78 256.766 173.521 254.428 173.959 253.882C173.978 253.852 174 253.825 174.026 253.801C175.373 252.621 174.026 245.712 174.026 245.712C174.026 245.712 177.226 227.513 176.889 225.996C176.701 225.133 177.758 223.017 178.708 221.352C179.429 220.091 180.089 219.087 180.089 219.087C180.089 219.087 186.604 223.219 197.773 232.251L198.784 233.074C210.573 242.679 211.247 262.058 211.247 262.058L210.102 263.399Z" fill="black"/>
<path d="M210.775 263.399L196.231 280.459C196.231 280.459 208.862 346.011 207.346 349.044C207.231 349.296 207.156 349.564 207.124 349.84C206.968 351.41 206.998 352.994 207.212 354.558C207.387 356.209 207.656 358.043 207.959 359.869C208.849 365.194 210.041 370.412 210.041 370.412C210.041 370.412 193.031 374.456 187.81 373.95C182.589 373.445 185.62 365.019 186.462 361.143C187.304 357.268 180.736 351.841 180.736 351.841L171.473 313.791C171.473 313.791 170.799 305.366 168.778 301.321C166.757 297.277 168.61 292.896 167.936 287.166C167.458 283.081 170.395 268.482 172.611 259.995C173.453 256.766 174.194 254.428 174.632 253.882C174.651 253.852 174.674 253.825 174.7 253.801C176.047 252.621 174.7 245.712 174.7 245.712C174.7 245.712 177.9 227.513 177.563 225.996C177.374 225.133 178.432 223.017 179.382 221.352C180.103 220.091 180.763 219.087 180.763 219.087C180.763 219.087 187.277 223.219 198.447 232.251L199.458 233.074C211.247 242.679 211.921 262.058 211.921 262.058L210.775 263.399Z" fill="#FF6484"/>
<path opacity="0.1" d="M180.062 272.539C179.894 273.887 184.104 345.505 188.483 349.718L180.062 272.539Z" fill="black"/>
<path d="M123.277 372.13C118.562 375.096 114.964 367.291 112.498 358.292C111.346 354.066 110.477 349.577 109.804 345.815C109.554 344.413 109.346 343.119 109.17 341.96C108.706 338.954 108.497 336.985 108.497 336.985L113.455 335.988L118.939 334.889L119.613 341.084L119.929 343.894C119.929 343.894 120.792 345.323 121.95 347.554C125.204 354.079 130.728 367.486 123.277 372.13Z" fill="#FFC5CB"/>
<path d="M209.873 350.426L208.694 356.243L207.959 359.903L207.919 360.085C207.919 360.085 193.199 380.051 188.483 371.793C184.879 365.484 193.671 355.138 198.009 350.615C199.356 349.213 200.273 348.37 200.273 348.37L207.124 349.84L209.873 350.426Z" fill="#FFC5CB"/>
<path d="M169.452 519.748C167.848 521.345 148.904 519.748 148.904 519.748C148.904 519.748 148.311 515.029 148.904 514.605C149.262 514.072 149.53 513.485 149.699 512.866C150.568 510.405 151.72 506.125 151.599 505.087C151.431 503.658 151.518 497.929 155.385 498.347C155.385 498.347 160.438 488.067 166.002 500.706V503.739C165.725 505.362 165.928 507.03 166.589 508.538C167.788 510.881 168.758 513.335 169.485 515.865C169.944 517.611 170.078 519.114 169.452 519.748Z" fill="#FF6484"/>
<path d="M169.452 519.748C167.848 521.345 148.904 519.748 148.904 519.748C148.904 519.748 148.311 515.029 148.904 514.605C149.262 514.072 149.53 513.485 149.699 512.866C152.205 511.794 155.614 510.756 157.999 511.659C161.01 512.805 166.568 514.814 169.452 515.865C169.943 517.611 170.078 519.114 169.452 519.748Z" fill="#E8F4FF"/>
<path opacity="0.1" d="M152.61 209.799C153.088 211.726 153.748 213.674 153.775 215.643C153.815 218.339 152.65 220.941 151.41 223.367C149.996 226.144 148.399 229.124 148.871 232.204C149.126 233.372 149.461 234.52 149.874 235.642C150.921 239.256 150.579 243.132 148.918 246.507C147.813 248.739 145.549 250.896 143.131 250.174C142.949 247.795 142.653 245.2 141.528 243.171C141.083 242.347 140.47 241.626 139.729 241.054C137.977 239.706 135.559 239.423 133.969 237.9C133.683 237.626 133.432 237.318 133.221 236.983C132.446 235.676 132.116 234.153 132.278 232.642C132.278 232.413 132.325 232.184 132.365 231.968C132.69 230.328 133.239 228.74 133.996 227.25C134.413 226.347 134.851 225.443 135.289 224.554C136.302 222.539 137.154 220.448 137.836 218.298C141.932 216.762 145.751 215.521 145.751 215.521C147.995 218.892 143.111 224.763 143.111 224.763C143.111 224.763 143.111 224.958 143.064 225.322C150.178 224.378 152.286 216.863 152.61 209.799Z" fill="black"/>
<path opacity="0.1" d="M162.701 184.441C160.734 185.068 158.855 186.321 157.986 188.209C157.056 190.298 157.534 192.711 157.312 194.99C157.261 195.489 157.167 195.983 157.029 196.466C156.194 199.263 153.573 201.238 152.542 203.934C152.468 204.137 152.401 204.339 152.34 204.554C152.068 205.616 152.02 206.722 152.199 207.803C149.79 204.998 148.303 201.52 147.939 197.84C147.574 194.16 148.35 190.458 150.161 187.234C151.972 184.011 154.73 181.423 158.062 179.822C161.393 178.221 165.136 177.684 168.783 178.285C172.43 178.885 175.804 180.594 178.446 183.179C181.089 185.764 182.873 189.1 183.556 192.734C184.239 196.368 183.788 200.124 182.263 203.493C180.739 206.862 178.216 209.68 175.037 211.565C175.798 209.293 176.599 207.028 177.219 204.709C178.674 199.256 178.924 192.954 175.495 188.472C174.006 186.601 171.993 185.219 169.713 184.501C167.434 183.782 164.993 183.762 162.701 184.441Z" fill="black"/>
<path opacity="0.1" d="M197.895 239.019C197.302 241.169 195.793 243.528 193.57 243.427C192.512 243.38 191.549 242.753 190.491 242.652C188.989 242.517 187.567 243.488 186.664 244.674C185.845 245.948 185.133 247.287 184.535 248.678C182.878 251.9 179.631 254.798 176.047 254.293L175.677 254.225C175.309 254.152 174.95 254.041 174.605 253.895C171.392 252.547 169.654 248.408 169.768 244.748C169.903 240.576 171.648 236.626 172.221 232.487C172.753 228.672 172.268 224.783 172.679 220.954C172.818 219.691 173.044 218.439 173.352 217.206C175.326 221.001 178.068 221.412 179.355 221.365C180.076 220.105 180.736 219.101 180.736 219.101C180.736 219.101 187.25 223.232 198.42 232.265C198.674 234.529 198.495 236.821 197.895 239.019Z" fill="black"/>
<path d="M172.497 164.408C175.993 165.668 178.937 168.236 182.521 169.214C183.699 169.446 184.862 169.747 186.004 170.117C190.046 171.742 191.515 176.622 192.29 180.902C193.684 188.627 194.688 196.958 199.835 202.883C200.751 203.934 201.815 204.945 202.24 206.253C202.664 207.561 202.092 209.367 200.724 209.657C203.069 210.648 204.22 213.546 203.729 216.047C203.237 218.548 201.411 220.61 199.262 221.985C198.258 222.659 197.046 223.334 196.911 224.52C196.903 225.156 197.048 225.785 197.335 226.353C198.724 229.957 198.925 233.911 197.908 237.637C197.315 239.78 195.806 242.146 193.583 242.045C192.525 241.998 191.562 241.371 190.511 241.27C189.002 241.135 187.587 242.106 186.678 243.292C185.857 244.565 185.145 245.904 184.549 247.296C182.898 250.518 179.651 253.416 176.061 252.911C171.931 252.324 169.654 247.518 169.782 243.366C169.91 239.214 171.668 235.244 172.241 231.105C172.766 227.29 172.281 223.401 172.699 219.572C173.305 213.964 175.805 208.754 177.26 203.307C178.715 197.861 178.957 191.552 175.528 187.07C174.041 185.195 172.028 183.808 169.747 183.088C167.466 182.367 165.022 182.345 162.728 183.025C160.754 183.652 158.882 184.906 158.013 186.793C156.881 189.341 157.844 192.374 157.049 195.05C156.153 198.057 153.189 200.119 152.333 203.139C151.336 206.772 153.681 210.466 153.748 214.227C153.789 216.923 152.623 219.525 151.39 221.952C149.969 224.729 148.372 227.708 148.85 230.789C149.103 231.956 149.436 233.105 149.848 234.226C150.916 237.859 150.585 241.76 148.918 245.159C147.813 247.39 145.509 249.547 143.131 248.826C142.868 245.49 142.397 241.728 139.729 239.706C137.97 238.358 135.552 238.075 133.962 236.545C133.308 235.846 132.816 235.011 132.522 234.1C132.227 233.189 132.137 232.224 132.258 231.274C132.511 229.377 133.092 227.538 133.976 225.841C135.909 221.662 138.26 217.496 138.53 212.899C138.934 205.963 134.488 199.128 136.104 192.361C137.452 186.699 142.68 182.729 144.66 177.255C145.718 174.316 145.886 170.872 148.029 168.614C151.128 165.372 155.864 166.47 159.784 165.493C161.603 165.035 163.153 164.091 165.066 163.774C167.556 163.337 170.117 163.556 172.497 164.408Z" fill="#925978"/>
<path opacity="0.1" d="M124.665 308.251C124.665 308.251 124.665 323.417 124.665 330.157C124.665 331.06 124.665 331.997 124.611 332.941C124.382 339.008 123.459 345.323 123.459 345.323C122.381 343.735 121.084 342.308 119.606 341.084C116.379 338.542 113.63 338.866 111.562 340.025C110.668 340.544 109.86 341.196 109.164 341.96C108.699 338.954 108.49 336.985 108.49 336.985L113.448 335.988C114.065 334.945 115.067 334.187 116.237 333.878C120.616 333.035 122.806 291.413 122.806 291.413L109.332 261.997V260.561L113.886 253.315C121.465 246.743 123.318 256.18 123.318 256.18C123.318 256.18 124.665 281.794 124.665 282.468C124.665 283.142 124.665 308.251 124.665 308.251Z" fill="black"/>
<path d="M123.318 306.747C123.318 306.747 123.318 321.914 123.318 328.654C123.318 329.557 123.318 330.494 123.264 331.438C123.035 337.504 122.112 343.82 122.112 343.82C112.68 330.508 106.024 342.877 106.024 342.877L103.922 337.248C103.118 336.558 102.435 335.738 101.901 334.822C97.7987 328.027 100.312 316.184 100.312 316.184C101.746 297.648 107.971 276.752 107.971 276.752V259.058L112.539 251.812C120.118 245.24 123.318 254.677 123.318 254.677C123.318 254.677 123.318 280.291 123.318 280.965C123.318 281.639 123.318 306.747 123.318 306.747Z" fill="#FF6484"/>
<path opacity="0.1" d="M123.277 330.764C123.048 336.83 122.125 343.146 122.125 343.146C112.694 329.834 106.038 342.203 106.038 342.203L103.936 336.574C103.132 335.884 102.448 335.064 101.915 334.148C106.307 331.728 115.988 327.266 123.277 330.764Z" fill="black"/>
<path d="M123.277 331.438C123.048 337.504 122.125 343.82 122.125 343.82C112.694 330.508 106.038 342.877 106.038 342.877L103.936 337.248C103.132 336.558 102.448 335.738 101.915 334.822C106.307 332.402 115.988 327.94 123.277 331.438Z" fill="#FF6484"/>
<path opacity="0.1" d="M123.277 331.438C123.048 337.504 122.125 343.82 122.125 343.82C112.694 330.508 106.038 342.877 106.038 342.877L103.936 337.248C103.132 336.558 102.448 335.738 101.915 334.822C106.307 332.402 115.988 327.94 123.277 331.438Z" fill="white"/>
<path opacity="0.1" d="M110.518 285.852C110.518 285.852 113.549 302.535 116.581 307.421C119.613 312.308 110.518 285.852 110.518 285.852Z" fill="black"/>
<path opacity="0.1" d="M102.757 314.162C102.757 314.162 104.61 324.273 108.483 325.452C112.357 326.632 102.757 314.162 102.757 314.162Z" fill="black"/>
<path opacity="0.1" d="M207.124 349.84L209.873 350.426L208.694 356.243C208.246 355.652 207.75 355.1 207.212 354.592C204.716 352.21 201.453 350.8 198.009 350.615C196.512 350.518 195.009 350.614 193.536 350.898C194.177 348.608 194.601 346.263 194.802 343.894C194.922 343.004 194.775 342.098 194.378 341.293C193.031 339.439 192.357 322.251 192.357 322.251C192.357 322.251 193.536 313.488 194.21 311.803C194.883 310.118 191.178 301.503 191.346 298.901C191.515 296.3 193.536 273.887 193.536 272.708C193.536 271.528 197.915 248.442 207.01 257.205L210.546 262.091L210.775 263.399L196.231 280.459C196.231 280.459 208.862 346.011 207.346 349.044C207.231 349.296 207.156 349.564 207.124 349.84Z" fill="black"/>
<path d="M222.349 335.226C219.601 337.976 213.881 347.049 212.311 349.57L211.907 350.244L210.56 356.984C210.56 356.984 205.844 348.896 194.897 350.918C195.538 348.629 195.962 346.284 196.163 343.915C196.283 343.024 196.135 342.119 195.739 341.313C194.391 339.459 193.718 322.271 193.718 322.271C193.718 322.271 194.897 313.508 195.57 311.823C196.244 310.138 192.539 301.524 192.707 298.922C192.876 296.32 194.897 273.908 194.897 272.728C194.897 271.548 199.276 248.462 208.37 257.225L211.907 262.112L214.602 277.446L219.823 304.071C219.823 304.071 221.17 314.519 222.349 316.036C223.528 317.552 225.536 332.024 222.349 335.226Z" fill="#FF6484"/>
<path opacity="0.1" d="M212.298 348.896L211.894 349.57L210.546 356.31C210.546 356.31 205.831 348.222 194.883 350.244C195.524 347.955 195.948 345.61 196.15 343.241C199.902 343.477 207.461 344.535 212.298 348.896Z" fill="black"/>
<path d="M212.298 349.57L211.894 350.244L210.546 356.984C210.546 356.984 205.831 348.896 194.883 350.918C195.524 348.628 195.948 346.284 196.15 343.915C199.902 344.15 207.461 345.209 212.298 349.57Z" fill="#FF6484"/>
<path opacity="0.1" d="M212.298 349.57L211.894 350.244L210.546 356.984C210.546 356.984 205.831 348.896 194.883 350.918C195.524 348.628 195.948 346.284 196.15 343.915C199.902 344.15 207.461 345.209 212.298 349.57Z" fill="white"/>
<path opacity="0.1" d="M201.283 302.198C201.283 302.198 212.736 302.056 214.42 308.021C216.104 313.987 201.283 302.198 201.283 302.198Z" fill="black"/>
<path opacity="0.1" d="M199.094 319.049C199.094 319.049 218.462 318.206 217.62 326.632C216.778 335.058 199.094 319.049 199.094 319.049Z" fill="black"/>
<path opacity="0.1" d="M200.273 332.024C200.273 332.024 201.789 331.687 202.799 335.226C203.81 338.765 200.273 332.024 200.273 332.024Z" fill="black"/>
<path opacity="0.1" d="M161.044 414.427C161.044 414.427 165.659 413.079 167.781 414.427C169.903 415.775 161.044 414.427 161.044 414.427Z" fill="black"/>
<path opacity="0.1" d="M161.873 419.314C161.873 419.314 172.82 419.482 173.831 420.662C174.841 421.842 161.873 419.314 161.873 419.314Z" fill="black"/>
<g opacity="0.1">
<path opacity="0.1" d="M138.557 210.877C138.88 205.363 136.165 199.924 135.828 194.525C135.478 199.971 138.24 205.458 138.523 211.012C138.537 210.968 138.548 210.923 138.557 210.877Z" fill="black"/>
<path opacity="0.1" d="M151.417 219.99C150.016 222.727 148.453 225.652 148.857 228.692C149.147 226.38 150.333 224.142 151.417 222.019C152.65 219.593 153.815 217.018 153.782 214.295C153.782 213.998 153.762 213.701 153.721 213.405C153.485 215.71 152.475 217.907 151.417 219.99Z" fill="black"/>
<path opacity="0.1" d="M200.711 207.662C201.21 207.873 201.667 208.175 202.058 208.552C202.394 207.844 202.457 207.037 202.233 206.287C202.233 206.287 202.233 206.226 202.199 206.192C202.104 206.548 201.916 206.871 201.654 207.129C201.393 207.388 201.067 207.571 200.711 207.662Z" fill="black"/>
<path opacity="0.1" d="M148.918 243.13C147.813 245.362 145.509 247.519 143.131 246.797C142.868 243.461 142.397 239.7 139.729 237.677C137.97 236.329 135.552 236.046 133.969 234.523C133.02 233.558 132.431 232.297 132.298 230.95C132.298 231.058 132.264 231.166 132.258 231.274C132.136 232.224 132.227 233.19 132.523 234.101C132.819 235.013 133.312 235.847 133.969 236.545C135.552 238.075 137.97 238.378 139.729 239.706C142.423 241.728 142.868 245.49 143.131 248.826C145.509 249.547 147.813 247.39 148.918 245.159C150.069 242.791 150.583 240.163 150.407 237.536C150.279 239.48 149.773 241.38 148.918 243.13Z" fill="black"/>
<path opacity="0.1" d="M203.715 214.052C203.223 216.546 201.398 218.615 199.255 219.99C198.245 220.664 197.032 221.338 196.898 222.525C196.867 222.986 196.945 223.448 197.127 223.873C197.679 223.099 198.409 222.47 199.255 222.039C201.398 220.691 203.223 218.595 203.715 216.101C203.847 215.377 203.847 214.635 203.715 213.91C203.718 213.957 203.718 214.005 203.715 214.052Z" fill="black"/>
<path opacity="0.1" d="M197.895 235.642C197.302 237.785 195.799 240.151 193.57 240.05C192.512 240.003 191.549 239.376 190.498 239.275C188.989 239.14 187.574 240.111 186.664 241.297C185.845 242.569 185.135 243.909 184.542 245.301C182.885 248.523 179.638 251.421 176.054 250.916C172.47 250.41 170.173 246.548 169.822 242.766C169.822 242.975 169.775 243.184 169.775 243.4C169.64 247.572 171.917 252.358 176.054 252.945C179.638 253.45 182.885 250.552 184.542 247.33C185.134 245.937 185.844 244.597 186.664 243.326C187.574 242.119 188.989 241.149 190.498 241.304C191.549 241.405 192.519 242.032 193.57 242.079C195.799 242.18 197.302 239.814 197.895 237.671C198.416 235.771 198.619 233.799 198.494 231.833C198.433 233.121 198.232 234.398 197.895 235.642Z" fill="black"/>
<path opacity="0.1" d="M175.515 187.123C177.223 189.478 178.164 192.303 178.21 195.212C178.385 191.545 177.698 187.932 175.515 185.061C174.028 183.186 172.014 181.8 169.733 181.079C167.452 180.358 165.008 180.336 162.715 181.017C160.741 181.643 158.868 182.897 157.999 184.785C156.861 187.332 157.824 190.372 157.029 193.042C156.133 196.048 153.169 198.111 152.313 201.13C152.064 202.098 152.004 203.105 152.138 204.096C152.174 203.78 152.233 203.467 152.313 203.159C153.142 200.139 156.106 198.077 157.029 195.071C157.824 192.374 156.861 189.361 157.999 186.813C158.841 184.926 160.694 183.672 162.715 183.045C165.012 182.369 167.458 182.396 169.739 183.123C172.02 183.85 174.032 185.243 175.515 187.123Z" fill="black"/>
</g>
<g opacity="0.8">
<path opacity="0.8" d="M382.558 445.562C412.398 445.562 436.588 421.359 436.588 391.503C436.588 361.647 412.398 337.444 382.558 337.444C352.718 337.444 328.529 361.647 328.529 391.503C328.529 421.359 352.718 445.562 382.558 445.562Z" fill="#1769FF"/>
<path opacity="0.8" d="M366.693 367.001C368.835 366.983 370.974 367.191 373.073 367.621C374.835 367.965 376.513 368.652 378.011 369.643C379.383 370.588 380.482 371.878 381.197 373.384C382.01 375.196 382.4 377.169 382.336 379.154C382.412 381.335 381.824 383.488 380.652 385.328C379.383 387.095 377.667 388.491 375.68 389.373C378.395 390.046 380.783 391.664 382.417 393.936C383.727 396.061 384.486 398.481 384.623 400.974C384.761 403.467 384.273 405.956 383.205 408.212C382.286 409.975 380.958 411.492 379.331 412.634C377.645 413.806 375.763 414.667 373.773 415.175C371.681 415.722 369.528 415.998 367.367 415.998H343.653V367.001H366.693ZM365.345 386.831C367.022 386.904 368.676 386.431 370.061 385.483C371.301 384.585 371.918 383.097 371.914 381.021C371.951 380.047 371.737 379.079 371.294 378.21C370.907 377.503 370.34 376.91 369.65 376.491C368.92 376.066 368.119 375.776 367.286 375.635C366.367 375.476 365.436 375.397 364.503 375.399H354.398V386.858L365.345 386.831ZM365.965 407.619C366.979 407.624 367.991 407.52 368.983 407.309C369.884 407.129 370.744 406.782 371.516 406.285C372.258 405.794 372.861 405.121 373.268 404.33C373.743 403.346 373.975 402.261 373.942 401.169C373.942 398.661 373.234 396.861 371.813 395.776C370.168 394.629 368.19 394.06 366.188 394.158H354.465V407.639L365.965 407.619ZM398.235 406.588C399.699 408.008 401.801 408.718 404.54 408.718C406.352 408.762 408.133 408.239 409.633 407.221C410.833 406.509 411.753 405.408 412.241 404.101H420.81C419.436 408.356 417.331 411.398 414.497 413.227C411.4 415.136 407.812 416.094 404.177 415.984C401.601 416.018 399.042 415.561 396.638 414.636C394.483 413.802 392.539 412.501 390.945 410.828C389.356 409.127 388.129 407.121 387.341 404.93C386.476 402.508 386.047 399.952 386.075 397.38C386.051 394.85 386.492 392.337 387.375 389.966C388.187 387.761 389.444 385.747 391.066 384.049C392.688 382.35 394.642 381.003 396.806 380.091C399.139 379.105 401.651 378.614 404.183 378.648C406.916 378.585 409.623 379.186 412.072 380.401C414.253 381.523 416.143 383.138 417.59 385.119C419.057 387.142 420.116 389.432 420.709 391.86C421.35 394.439 421.577 397.103 421.382 399.753H395.782C395.917 402.894 396.719 405.186 398.181 406.595L398.235 406.588ZM409.243 387.93C408.075 386.649 406.303 386.009 403.927 386.009C402.592 385.962 401.264 386.232 400.054 386.798C399.099 387.261 398.257 387.928 397.588 388.752C396.995 389.481 396.551 390.319 396.281 391.219C396.052 391.979 395.903 392.761 395.836 393.552H411.654C411.205 391.085 410.392 389.211 409.216 387.93H409.243ZM394.139 369.475H413.925V374.968H394.139V369.475Z" fill="white"/>
</g>
<g opacity="0.8">
<path opacity="0.8" d="M626.715 423.163C626.715 423.668 626.715 424.181 626.715 424.693C626.346 437.634 621.35 450.013 612.633 459.581C603.916 469.148 592.058 475.269 579.213 476.831C577.056 477.088 574.885 477.217 572.712 477.215C562.026 477.215 551.579 474.044 542.694 468.104C533.809 462.164 526.884 453.72 522.795 443.842C518.706 433.964 517.636 423.094 519.721 412.607C521.807 402.121 526.953 392.488 534.51 384.928C542.067 377.368 551.694 372.22 562.176 370.135C572.657 368.05 583.52 369.121 593.393 373.214C603.265 377.307 611.703 384.237 617.639 393.127C623.575 402.018 626.743 412.471 626.742 423.163H626.715Z" fill="#B3BBC6"/>
<path opacity="0.8" d="M626.688 424.693C626.319 437.634 621.323 450.013 612.606 459.58C603.889 469.148 592.031 475.269 579.186 476.831L535.073 443.998L540.584 408.273L562.398 409.621L574.807 420.028L583.632 405.637L598.454 417.959L606.423 423.668V405.651L626.512 424.255C626.56 424.403 626.634 424.545 626.688 424.693Z" fill="#666C76"/>
<path opacity="0.8" d="M568.818 424.491C568.818 413.032 561.778 405.267 548.372 405.267H535.134V443.836H548.648C561.664 443.836 568.818 435.95 568.818 424.491ZM559.205 424.551C559.205 432.822 554.961 436.401 548.15 436.401H544.68V412.702H548.15C554.684 412.702 559.205 416.443 559.205 424.551ZM606.861 443.836V405.267H597.975V426.836L583.787 405.267H574.511V443.829H583.397V420.75L598.588 443.829H606.861V443.836Z" fill="white"/>
</g>
<path d="M586.091 365.653C585.418 364.305 579.132 355.286 579.132 355.286L578.944 354.477L576.882 345.276L576.741 344.602C578.088 344.258 579.058 343.834 579.361 343.301C580.843 340.706 578.108 337.552 578.108 337.552L577.536 323.909L576.054 290.88C576.054 290.88 572.975 279.826 572.517 277.237C572.059 274.649 567.841 269.23 567.841 269.23C567.841 269.23 568.751 266.533 567.612 264.606C566.474 262.678 563.961 253.666 563.961 253.666L561.798 228.726L560.768 204.19C561.801 204.183 562.833 204.28 563.846 204.48C563.995 204.602 563.914 204.298 563.698 203.752C563.75 203.761 563.801 203.779 563.846 203.806C564.197 204.089 563.26 201.98 562.25 199.829L562.128 199.58C562.614 197.821 564.621 190.696 566.016 188.121C567.053 186.22 565.059 173.096 563.536 164.132C563.429 163.491 563.321 162.878 563.22 162.285C565.692 157.957 568.528 153.05 568.528 153.05C568.528 153.05 575.71 132.532 578.674 123.621C581.638 114.71 578.674 91.6036 578.674 91.6036C578.674 91.6036 578.674 90.4712 578.512 88.7052C578.048 83.9329 576.269 74.5973 569.438 70.9709C560.087 66.0099 557.123 59.9232 557.123 59.9232C557.123 59.9232 545.455 49.3001 543.979 52.8658L543.878 52.6636C543.007 50.8808 542.366 48.9939 541.972 47.0488C541.931 46.8466 541.898 46.6444 541.864 46.4489C543.355 45.2711 544.651 43.8653 545.704 42.2832C545.704 42.5798 545.657 42.8764 545.637 43.173C545.637 43.3617 545.637 43.5505 545.637 43.7325V43.9886C545.63 44.1121 545.63 44.2358 545.637 44.3593C545.637 44.4335 545.637 44.5076 545.637 44.5818C546.068 44.624 546.503 44.5337 546.882 44.323C547.261 44.1123 547.567 43.7911 547.759 43.4022C548.124 42.6241 548.367 41.7942 548.48 40.9419C548.873 39.1267 549.597 37.3994 550.615 35.8461C551.612 34.316 552.946 32.7791 553.121 31.0333C553.148 30.7779 553.148 30.5203 553.121 30.2649C553.034 29.3752 552.616 28.5461 552.488 27.6631C552.433 27.2154 552.433 26.7626 552.488 26.315C552.488 26.0521 552.549 25.7892 552.589 25.5331C552.63 25.2769 552.697 24.859 552.744 24.4815C552.791 24.1041 552.832 23.8951 552.865 23.5985V23.5648C552.96 22.788 552.96 22.0027 552.865 21.2259C552.808 20.5079 552.58 19.814 552.2 19.202C551.82 18.59 551.3 18.0775 550.683 17.7073C550.009 17.3636 549.234 17.2557 548.56 16.9119C546.782 16.002 546.216 13.818 545.192 12.1329C544.465 11.0096 543.48 10.0757 542.321 9.40874C541.161 8.74177 539.859 8.36086 538.523 8.29756C535.828 8.18972 533.187 9.36931 530.539 8.97162C528.848 8.702 527.292 7.78529 525.581 7.66396C523.082 7.48871 520.832 9.01206 518.804 10.4748C517.369 11.5061 515.84 12.6722 515.368 14.3708C514.991 15.7593 515.368 17.3568 514.587 18.5701C514.081 19.3588 513.165 19.8104 512.599 20.5923C512.132 21.2141 511.894 21.9786 511.926 22.756C511.926 22.8234 511.926 22.8975 511.926 22.9717C511.926 23.0458 511.926 23.2143 511.926 23.3357C511.973 23.8547 512.067 24.3804 512.155 24.8927C512.158 24.9466 512.158 25.0006 512.155 25.0545C512.357 26.4767 511.899 27.4743 511.387 28.8629C511.168 29.4483 511.045 30.0651 511.023 30.6896C511.023 30.6896 511.023 30.7502 511.023 30.7839C511.023 30.8176 511.023 30.8716 511.023 30.9187C511.016 31.049 511.016 31.1795 511.023 31.3097C511.083 31.7943 511.296 32.2474 511.629 32.6039C511.797 32.3287 512.028 32.0976 512.303 31.9298C512.303 32.132 512.303 32.3342 512.303 32.5432V32.5836C512.305 34.9597 512.782 37.3114 513.708 39.4996C514.634 41.6877 515.989 43.668 517.692 45.3232C517.692 45.5187 517.638 45.7209 517.611 45.9164C517.322 47.9385 516.938 50.1629 516.473 52.2929L516.311 52.967H512.943C512.943 52.967 513.515 50.4865 507.924 53.5332C502.332 56.5799 495.488 58.0426 494.45 58.602C493.413 59.1615 480.768 68.9824 480.768 68.9824C480.768 68.9824 469.814 75.2915 470.157 86.1168L468.904 98.2497L467.995 120.911C467.995 120.911 466.283 140.196 467.995 142.899C469.706 145.602 472.67 161.617 472.097 163.646C471.686 165.116 475.816 175.442 478.686 181.461C477.916 182.274 477.202 183.139 476.55 184.05C476.55 184.05 475.405 188.566 475.405 189.018C475.405 189.018 475.405 189.065 475.459 189.092C472.933 191.653 468.904 195.866 468.904 196.796C468.904 198.144 469.706 199.324 468.453 199.243C467.2 199.162 467.159 200.631 467.233 201.528C467.307 202.424 465.711 201.083 465.825 202.768C465.94 204.453 454.191 230.957 454.191 230.957C454.191 230.957 448.835 243.926 446.78 246.069C444.726 248.213 441.876 257.683 442.105 261.175C442.334 264.666 442.449 265.691 441.532 265.691C440.616 265.691 438.797 268.845 438.797 268.845L429.79 296.583C429.79 296.583 427.163 305.15 426.368 305.042C425.573 304.934 423.781 319.763 423.781 319.763C423.781 319.763 421.847 324.158 421.504 324.158C421.436 324.158 421.753 324.475 422.339 324.974L421.948 325.304C421.102 326.029 420.213 326.705 419.287 327.326C419.254 327.326 414.08 323.733 410.529 324.07C406.979 324.408 399.697 325.304 396.038 322.722C394.017 321.28 389.753 320.026 386.324 319.972C383.589 319.932 381.372 320.646 381.217 322.722C380.874 327.34 393.647 336.028 393.647 336.028C393.647 336.028 407.121 339.857 409.728 343.443C412.335 347.029 423.107 352.462 423.107 352.462C423.107 352.462 426.348 351.033 427.567 349.597C427.712 349.46 427.827 349.293 427.904 349.109C427.981 348.924 428.017 348.725 428.012 348.525C427.782 346.833 432.458 340.436 432.458 340.436L433.132 337.262C433.462 335.691 433.879 333.777 434.29 332.098C434.344 331.869 434.398 331.645 434.452 331.424C434.986 331.451 435.52 331.369 436.022 331.182C440.582 329.382 441.041 324.441 441.041 324.441L447.865 310.158C447.865 310.158 450.829 301.928 451.739 300.458C452.648 298.989 459.722 284.227 459.722 284.227C459.722 284.227 460.975 277.911 462.12 275.997C463.265 274.083 463.373 269.931 463.373 269.931C463.373 269.931 465.765 263.615 468.278 261.134C470.087 259.188 471.657 257.031 472.953 254.711C472.953 254.711 483.328 238.358 490.401 233.741C490.401 233.741 507.398 212.994 508.422 211.187C509.446 209.381 512.64 204.649 516.507 208.929C520.374 213.209 524.483 218.743 524.483 218.743L531.449 237.684L539.203 261.95C539.203 261.95 542.848 267.807 542.625 269.048C542.403 270.288 548.554 281.342 548.554 281.342C548.554 281.342 550.945 285.387 550.494 287.409C550.043 289.431 552.205 291.453 552.205 291.453L552.879 299.683C552.879 299.683 555.392 307.772 554.705 309.046C554.017 310.32 557.103 318.065 557.103 318.065C557.103 318.065 557.103 324.94 558.241 327.198C559.38 329.456 560.768 338.468 560.653 339.142C560.539 339.816 560.653 346.024 560.653 346.024C560.653 346.024 561.455 346.024 562.728 345.984L562.782 346.658L563.348 353.446L563.402 354.073C563.096 354.309 562.844 354.608 562.664 354.95C562.484 355.292 562.379 355.668 562.358 356.054C562.358 357.888 562.627 363.273 562.856 367.513C562.91 368.639 562.971 369.677 563.024 370.546C563.043 370.85 563.122 371.147 563.259 371.419C563.396 371.691 563.588 371.931 563.821 372.127C564.055 372.322 564.326 372.467 564.617 372.553C564.909 372.64 565.215 372.666 565.517 372.629C568.76 372.22 572.048 372.343 575.252 372.993C578.801 373.809 582.454 374.077 586.085 373.789C586.085 373.789 586.334 371.247 586.374 368.969C586.408 367.513 586.354 366.172 586.091 365.653Z" fill="url(#paint1_linear)"/>
<path d="M577.367 355.603H561.987L561.839 353.789L561.28 347.022L560.862 341.899H574.336L575.158 345.627L577.185 354.794L577.367 355.603Z" fill="#FFAAB0"/>
<path d="M436.001 328.411C435.712 328.695 435.233 330.4 434.748 332.456C433.879 336.069 432.97 340.767 432.97 340.767L432.404 340.902L420.412 343.8C420.412 343.8 414.127 329.423 417.044 329.085C418.073 328.87 419.044 328.438 419.894 327.818C420.855 327.18 421.775 326.482 422.649 325.729C424.246 324.381 425.465 323.127 425.465 323.127C425.465 323.127 436.79 327.623 436.001 328.411Z" fill="#FFAAB0"/>
<path opacity="0.1" d="M436.001 328.411C435.712 328.695 435.233 330.4 434.748 332.456C430.605 332.213 424.34 327.293 422.622 325.715C424.219 324.367 425.438 323.113 425.438 323.113C425.438 323.113 436.79 327.623 436.001 328.411Z" fill="black"/>
<path opacity="0.1" d="M575.151 345.62C571.459 346.618 564.689 346.921 561.273 347.015L560.855 341.892H574.329L575.151 345.62Z" fill="black"/>
<path d="M477.433 187.986C477.433 187.986 469.012 196.297 469.012 197.645C469.012 198.993 469.8 200.16 468.567 200.085C467.334 200.011 467.294 201.467 467.368 202.364C467.442 203.26 465.873 201.912 465.98 203.597C466.088 205.282 454.528 231.685 454.528 231.685C454.528 231.685 449.253 244.607 447.232 246.737C445.211 248.867 442.401 258.31 442.63 261.795C442.86 265.28 442.967 266.284 442.065 266.284C441.162 266.284 439.37 269.432 439.37 269.432L430.504 297.068C430.504 297.068 427.917 305.608 427.136 305.494C426.354 305.379 424.441 320.208 424.441 320.208C424.441 320.208 422.528 324.589 422.191 324.589C421.854 324.589 431.959 333.352 436.453 331.559C440.946 329.766 441.391 324.819 441.391 324.819L448.128 310.664C448.128 310.664 451.052 302.46 451.948 300.998C452.844 299.535 459.809 284.82 459.809 284.82C459.809 284.82 461.042 278.532 462.167 276.624C463.292 274.716 463.4 270.558 463.4 270.558C463.4 270.558 465.758 264.262 468.23 261.795C470.013 259.851 471.557 257.701 472.832 255.391C472.832 255.391 483.052 239.1 490.011 234.496C490.011 234.496 506.738 213.823 507.749 212.023C508.759 210.223 511.905 205.512 515.725 209.778C519.545 214.045 523.58 219.552 523.58 219.552L530.432 238.425L538.065 262.577C538.065 262.577 541.662 268.421 541.433 269.654C541.204 270.888 547.274 281.902 547.274 281.902C547.274 281.902 549.632 285.946 549.18 287.968C548.729 289.99 550.865 292.013 550.865 292.013L551.538 300.216C551.538 300.216 554.011 308.304 553.337 309.538C552.663 310.771 555.695 318.523 555.695 318.523C555.695 318.523 555.695 325.378 556.82 327.623C557.945 329.867 559.286 338.859 559.178 339.533C559.07 340.207 559.178 346.388 559.178 346.388C559.178 346.388 576.121 346.274 577.583 343.692C579.045 341.11 576.35 337.963 576.35 337.963L575.784 324.367L574.329 291.453C574.329 291.453 571.297 280.439 570.846 277.857C570.395 275.276 566.245 269.883 566.245 269.883C566.245 269.883 567.141 267.187 566.016 265.273C564.891 263.359 562.425 254.38 562.425 254.38L560.289 229.548L559.191 202.478L477.433 187.986Z" fill="#DCE6F2"/>
<path opacity="0.1" d="M562.317 205.397C561.643 204.831 534.022 204.608 533.686 204.608C533.349 204.608 522.907 200.449 522.907 200.449C522.907 200.449 499.665 196.634 496.074 198.319C492.483 200.005 481.361 195.172 481.361 195.172V193.035C481.361 193.035 475.412 191.013 475.412 190.568C475.412 190.123 476.537 185.62 476.537 185.62L477.211 185.384L479.784 184.501L558.72 197.194C558.72 197.194 559.764 199.337 560.741 201.434C561.718 203.53 562.661 205.68 562.317 205.397Z" fill="black"/>
<path d="M562.317 204.723C561.643 204.157 534.022 203.934 533.686 203.934C533.349 203.934 522.907 199.775 522.907 199.775C522.907 199.775 499.665 195.96 496.074 197.645C492.483 199.331 481.361 194.498 481.361 194.498V192.361C481.361 192.361 475.412 190.339 475.412 189.894C475.412 189.449 476.537 184.946 476.537 184.946L477.211 184.71L479.784 183.827L558.72 196.52C558.72 196.52 559.764 198.663 560.741 200.76C561.718 202.856 562.661 205.006 562.317 204.723Z" fill="#F1FAFF"/>
<path opacity="0.1" d="M433.61 336.918L432.936 340.093C432.936 340.093 432.714 340.403 432.37 340.902L420.412 343.8C420.412 343.8 414.127 329.422 417.044 329.085C418.073 328.87 419.044 328.438 419.894 327.818C419.281 332.321 422.77 337.059 422.77 337.059C427.695 340.767 433.61 336.918 433.61 336.918Z" fill="black"/>
<path d="M433.61 337.599L432.936 340.774C432.936 340.774 428.335 347.177 428.557 348.862C428.563 349.061 428.527 349.26 428.452 349.444C428.376 349.629 428.263 349.796 428.119 349.934C426.92 351.363 423.727 352.785 423.727 352.785C423.727 352.785 413.177 347.393 410.59 343.8C408.003 340.207 394.758 336.385 394.758 336.385C394.758 336.385 382.188 327.731 382.524 323.127C382.673 321.105 384.855 320.35 387.55 320.39C390.918 320.431 395.116 321.691 397.116 323.127C400.714 325.708 407.895 324.812 411.378 324.475C414.861 324.138 419.981 327.724 419.981 327.724C418.816 332.442 422.716 337.734 422.716 337.734C427.695 341.448 433.61 337.599 433.61 337.599Z" fill="#575988"/>
<path d="M428.153 349.927C426.954 351.356 423.761 352.778 423.761 352.778C423.761 352.778 413.211 347.386 410.624 343.793C408.037 340.201 394.792 336.379 394.792 336.379C394.792 336.379 382.221 327.724 382.558 323.12C382.706 321.098 384.889 320.343 387.584 320.383C389.605 323.754 392.589 328.438 394.792 329.746C398.39 331.883 405.463 335.927 405.463 335.927C405.463 335.927 416.687 343.005 417.475 343.793C418.122 344.447 424.623 348.748 428.153 349.927Z" fill="#F1FAFF"/>
<path opacity="0.1" d="M577.381 355.596H561.98L561.832 353.783C563.772 351.956 567.929 351.087 567.929 351.087C570.812 350.204 576.128 353.992 577.179 354.774L577.381 355.596Z" fill="black"/>
<path d="M584.502 369.225C584.461 371.497 584.212 374.024 584.212 374.024C580.638 374.313 577.04 374.047 573.547 373.236C570.396 372.586 567.159 372.463 563.968 372.872C563.668 372.907 563.364 372.881 563.076 372.794C562.787 372.707 562.519 372.562 562.288 372.368C562.058 372.173 561.869 371.933 561.735 371.663C561.601 371.392 561.524 371.097 561.509 370.796C561.462 369.933 561.401 368.895 561.347 367.776C561.118 363.577 560.855 358.211 560.855 356.385C560.855 353.244 567.929 351.781 567.929 351.781C571.136 350.797 577.361 355.603 577.361 355.603C577.361 355.603 583.538 364.588 584.212 365.936C584.475 366.455 584.529 367.79 584.502 369.225Z" fill="#575988"/>
<path d="M584.502 369.225C584.461 371.497 584.212 374.025 584.212 374.025C580.638 374.313 577.04 374.047 573.547 373.236C570.396 372.586 567.159 372.463 563.968 372.872C563.668 372.907 563.365 372.881 563.076 372.794C562.787 372.707 562.519 372.562 562.288 372.368C562.058 372.173 561.869 371.933 561.735 371.663C561.601 371.392 561.524 371.097 561.509 370.796C561.462 369.933 561.401 368.895 561.347 367.776C563.934 367.385 567.747 367.008 570.401 367.621C573.487 368.336 580.574 368.935 584.502 369.225Z" fill="#F1FAFF"/>
<path opacity="0.1" d="M431.117 301.732C431.117 301.732 428.759 305.777 431.117 307.63C433.475 309.484 431.117 301.732 431.117 301.732Z" fill="black"/>
<path opacity="0.1" d="M557.77 317.404C558.443 318.752 560.236 320.774 559.926 323.134C559.616 325.493 557.77 317.404 557.77 317.404Z" fill="black"/>
<path d="M555.695 70.9238C555.695 70.9238 545.408 69.879 534.743 68.4635L534.305 68.4028C521.923 66.7514 509.217 64.6146 511.676 63.0576C512.774 62.3835 513.697 60.6714 514.459 58.5145C514.933 57.133 515.331 55.7267 515.651 54.3016C515.705 54.0792 515.752 53.85 515.806 53.6276C516.271 51.5043 516.641 49.2867 516.931 47.278C517.504 43.1865 517.739 39.9241 517.739 39.9241C517.739 39.9241 544.128 29.9212 540.874 42.3912C540.381 44.3934 540.348 46.4815 540.779 48.4981C541.167 50.4349 541.799 52.3147 542.659 54.0927C546.863 63.0711 555.695 70.9238 555.695 70.9238Z" fill="#FFAAB0"/>
<path opacity="0.1" d="M540.874 42.3843C540.381 44.3865 540.348 46.4747 540.779 48.4912C537.355 51.2702 533.025 52.6832 528.621 52.4579C524.218 52.2327 520.054 50.3851 516.931 47.2712C517.504 43.1797 517.74 39.9173 517.74 39.9173C517.74 39.9173 544.128 29.9144 540.874 42.3843Z" fill="black"/>
<path d="M547.382 33.9453C547.387 38.6826 545.511 43.2281 542.167 46.5818C540.511 48.2423 538.545 49.5603 536.38 50.4604C534.215 51.3605 531.894 51.8252 529.549 51.8278C527.205 51.8305 524.883 51.3711 522.716 50.4759C520.549 49.5807 518.579 48.2672 516.919 46.6104C513.568 43.2643 511.682 38.7231 511.676 33.9857V33.9453C511.676 29.2079 513.557 24.6645 516.905 21.3146C520.253 17.9648 524.794 16.0829 529.529 16.0829C534.264 16.0829 538.805 17.9648 542.153 21.3146C545.501 24.6645 547.382 29.2079 547.382 33.9453Z" fill="#FFAAB0"/>
<path opacity="0.1" d="M534.979 67.7287C534.928 67.9817 534.849 68.2281 534.743 68.4634L534.305 68.4028C521.923 66.7513 509.217 64.6146 511.676 63.0575C512.774 62.3835 513.697 60.6714 514.459 58.5144C514.933 57.133 515.331 55.7266 515.651 54.3016C515.705 54.0792 515.752 53.85 515.806 53.6276H516.325C516.365 53.9107 517.672 62.5453 529.253 64.0214L529.643 64.0686C534.164 64.5742 535.316 66.0571 534.979 67.7287Z" fill="black"/>
<path d="M534.305 68.4027C533.739 71.2 528.97 74.5163 528.97 74.5163L515.718 72.0426C515.718 72.0426 507.412 64.628 507.412 64.4056C507.412 64.1831 512.35 54.2948 512.35 54.2948H515.651C515.691 54.5779 516.998 63.2125 528.579 64.6887L528.97 64.7359C533.49 65.2481 534.642 66.731 534.305 68.4027Z" fill="#F1FAFF"/>
<path opacity="0.1" d="M555.695 70.9237C555.695 70.9237 545.125 69.852 534.305 68.4028C533.739 71.2001 528.97 74.5164 528.97 74.5164L515.718 72.0427C515.718 72.0427 507.412 64.6281 507.412 64.4057C507.412 64.1832 512.35 54.2949 512.35 54.2949H512.518C512.953 55.7896 513.607 57.2116 514.459 58.5145C516.54 61.696 520.522 65.1808 527.932 64.7427L528.552 64.6955C539.675 63.7721 542.174 56.0677 542.632 54.0859C546.863 63.071 555.695 70.9237 555.695 70.9237Z" fill="black"/>
<path opacity="0.1" d="M560.741 200.76L560.518 201.575C557.824 199.553 538.179 198.205 538.179 198.205C538.179 198.205 533.012 197.598 528.074 196.81C524.49 196.237 521.027 195.563 519.754 194.949C519.458 194.817 519.154 194.702 518.844 194.605C514.371 193.203 500.655 191.579 500.655 191.579C500.655 191.579 493.918 194.612 490.327 193.264C486.737 191.916 476.517 185.62 476.517 185.62C476.517 185.62 476.739 185.283 477.19 184.71L479.764 183.827L558.699 196.52C558.699 196.52 559.771 198.663 560.741 200.76Z" fill="black"/>
<path d="M562.007 165.237C563.51 174.175 565.47 187.245 564.453 189.139C562.876 192.057 560.518 200.935 560.518 200.935C557.824 198.913 538.179 197.564 538.179 197.564C538.179 197.564 533.012 196.958 528.074 196.169C524.49 195.596 521.027 194.922 519.754 194.309C519.458 194.177 519.154 194.062 518.844 193.965C514.371 192.563 500.655 190.939 500.655 190.939C500.655 190.939 493.918 193.972 490.327 192.624C486.737 191.276 476.517 184.98 476.517 184.98C477.988 182.962 479.683 181.116 481.569 179.48C485.046 176.332 491.446 149.255 491.284 148.918C491.122 148.581 489.539 139.933 489.99 134.878C490.442 129.822 488.643 105.105 488.643 105.105C488.643 105.105 470.582 98.1082 470.265 87.3233C469.948 76.5385 480.707 70.2496 480.707 70.2496C480.707 70.2496 493.17 60.4759 494.181 59.9097C495.191 59.3435 501.928 57.8875 507.432 54.8543C512.936 51.8211 512.37 54.2948 512.37 54.2948C512.37 54.2948 514.62 66.2053 527.979 65.4167C541.339 64.628 542.801 54.2948 542.801 54.2948C544.235 50.7021 555.742 61.3724 555.742 61.3724C555.742 61.3724 558.659 67.4388 567.868 72.3796C574.605 75.9925 576.343 85.2944 576.801 90.0465C576.97 91.8058 576.963 92.9382 576.963 92.9382L549.901 112.378L560.539 156.751C560.539 156.751 561.212 160.37 562.007 165.237Z" fill="#575988"/>
<path d="M495.063 188.323C495.063 188.323 503.936 203.597 513.138 199.331C515.212 198.387 516.933 196.811 518.056 194.828C521.687 188.546 518.056 180.531 511.023 178.651C508.429 177.977 505.633 177.552 503.37 177.977C496.97 179.109 495.063 188.323 495.063 188.323Z" fill="#FFAAB0"/>
<path opacity="0.1" d="M495.063 188.323C495.063 188.323 503.936 203.597 513.138 199.331C515.212 198.387 516.933 196.811 518.056 194.828C521.687 188.546 518.056 180.531 511.023 178.651C508.429 177.977 505.633 177.552 503.37 177.977C496.97 179.109 495.063 188.323 495.063 188.323Z" fill="black"/>
<path opacity="0.1" d="M482.041 76.7677C482.041 76.7677 489.041 81.4861 489.189 88.9006L482.041 76.7677Z" fill="black"/>
<path opacity="0.1" d="M493.042 80.3605C493.042 80.8121 491.021 112.041 494.612 122.711C498.203 133.381 493.042 80.3605 493.042 80.3605Z" fill="black"/>
<path opacity="0.1" d="M547.382 33.9453C547.39 37.4068 546.385 40.795 544.491 43.6921C544.491 43.4629 544.491 43.2405 544.491 43.018C544.377 41.1442 543.387 39.4523 542.423 37.8346C541.768 36.5482 540.85 35.4138 539.729 34.5047C539.401 34.3144 539.096 34.0884 538.819 33.8307C538.199 33.1566 538.267 32.0849 538.145 31.1345C537.966 29.8916 537.402 28.736 536.534 27.8294C535.665 26.9229 534.535 26.3109 533.302 26.0791C532.79 25.9512 532.248 26.0286 531.793 26.2948C531.334 26.6183 531.119 27.2182 530.735 27.589C530.129 28.135 529.199 28.0675 528.397 27.9125C526.632 27.562 524.793 26.9217 523.082 27.4879C520.145 28.4652 519.04 32.5298 516.028 33.2847C515.136 33.418 514.235 33.4811 513.334 33.4734C512.754 33.5114 512.191 33.6845 511.69 33.979V33.9385C511.69 29.2011 513.571 24.6578 516.919 21.3079C520.267 17.9581 524.808 16.0762 529.542 16.0762C534.277 16.0762 538.818 17.9581 542.166 21.3079C545.514 24.6578 547.395 29.2011 547.395 33.9385L547.382 33.9453Z" fill="black"/>
<path d="M511.851 22.0887C512.411 21.3405 513.307 20.8889 513.812 20.1003C514.58 18.8937 514.203 17.3029 514.58 15.9211C515.038 14.2293 516.547 13.0699 517.948 12.0386C519.969 10.5827 522.159 9.06603 524.618 9.23455C526.302 9.35587 527.831 10.2726 529.502 10.5422C532.109 10.9669 534.723 9.79401 537.364 9.86816C538.684 9.93443 539.969 10.3167 541.111 10.983C542.252 11.6492 543.218 12.5798 543.926 13.6968C544.97 15.3684 545.522 17.5456 547.294 18.4151C547.968 18.7589 548.722 18.8667 549.382 19.2105C549.994 19.5831 550.507 20.096 550.881 20.7066C551.255 21.3173 551.478 22.0083 551.531 22.7223C551.624 24.147 551.525 25.5776 551.235 26.9756C551.103 27.6798 551.071 28.3992 551.141 29.1123C551.262 29.9953 551.68 30.8177 551.767 31.7074C551.969 33.7296 550.42 35.5023 549.295 37.2347C548.296 38.7887 547.587 40.5105 547.2 42.317C547.09 43.1668 546.849 43.9945 546.486 44.7705C546.298 45.1556 545.997 45.4744 545.625 45.6851C545.252 45.8957 544.824 45.9881 544.397 45.9501C544.269 44.7301 544.572 43.4966 544.491 42.2698C544.377 40.396 543.387 38.7041 542.423 37.0931C541.77 35.8037 540.851 34.6667 539.728 33.7565C539.402 33.5683 539.099 33.3421 538.826 33.0825C538.199 32.4084 538.267 31.3434 538.152 30.3863C537.971 29.1446 537.407 27.9905 536.539 27.0853C535.67 26.1801 534.541 25.569 533.308 25.3376C532.797 25.2077 532.256 25.2827 531.799 25.5466C531.341 25.8701 531.126 26.47 530.742 26.8408C530.135 27.3868 529.206 27.3261 528.404 27.1643C526.639 26.8206 524.8 26.1735 523.088 26.7397C520.151 27.717 519.046 31.7816 516.035 32.5365C515.143 32.6734 514.242 32.7366 513.34 32.7253C512.886 32.7263 512.438 32.8365 512.035 33.0464C511.632 33.2563 511.285 33.56 511.023 33.9318C510.12 32.9881 510.302 31.4513 510.747 30.2245C511.265 28.7888 511.737 27.771 511.481 26.2611C511.225 24.7512 510.888 23.3761 511.851 22.0887Z" fill="#794F6A"/>
<path opacity="0.1" d="M446.275 267.187C446.275 267.187 439.875 270.557 443.244 271.232C446.612 271.906 446.275 267.187 446.275 267.187Z" fill="black"/>
<path opacity="0.1" d="M551.707 275.276C551.707 275.276 555.243 270.558 559.117 273.422C562.991 276.287 551.707 275.276 551.707 275.276Z" fill="black"/>
<path opacity="0.1" d="M559.926 278.309C559.926 278.309 564.338 276.793 567.033 278.309H559.926Z" fill="black"/>
<path opacity="0.1" d="M472.717 201.804C472.717 201.804 482.149 210.904 485.18 211.241C488.212 211.578 472.717 201.804 472.717 201.804Z" fill="black"/>
<path opacity="0.1" d="M474.065 82.1602L471.612 87.3234L470.373 99.4563L469.477 122.037C469.477 122.037 467.793 141.248 469.477 143.944C471.161 146.64 474.078 162.595 473.519 164.617C472.96 166.639 480.929 185.512 482.391 186.638C483.853 187.764 489.014 187.986 491.931 187.42L497.266 192.496L512.37 178.55L503.046 171.472C503.046 171.472 505.182 167.873 499.233 163.943C499.233 163.943 496.539 159.447 496.424 157.088C496.284 152.275 495.451 147.508 493.952 142.933C491.823 136.644 490.583 101.708 490.583 101.708C490.583 101.708 485.517 76.2016 474.065 82.1602Z" fill="black"/>
<path d="M472.717 82.1602L470.265 87.3234L469.025 99.4563L468.129 122.037C468.129 122.037 466.445 141.248 468.129 143.944C469.814 146.64 472.731 162.595 472.172 164.617C471.612 166.639 479.582 185.512 481.044 186.638C482.506 187.764 487.666 187.986 490.583 187.42L495.919 192.496L511.023 178.55L501.699 171.472C501.699 171.472 503.835 167.873 497.886 163.943C497.886 163.943 495.191 159.447 495.077 157.088C494.937 152.275 494.104 147.508 492.604 142.933C490.476 136.644 489.236 101.708 489.236 101.708C489.236 101.708 484.17 76.2016 472.717 82.1602Z" fill="#575988"/>
<path opacity="0.1" d="M496.188 166.639C495.515 166.976 481.926 179.561 486.979 179.898C492.032 180.235 496.188 166.639 496.188 166.639Z" fill="black"/>
<path d="M513.475 181.805C513.475 181.805 494.053 183.827 495.063 191.694C496.074 199.56 509.884 207.136 514.263 204.75C518.642 202.364 522.347 200.085 522.347 200.085L513.475 181.805Z" fill="#FFAAB0"/>
<path opacity="0.1" d="M572.759 87.5526L575.569 92.945C575.569 92.945 578.486 115.971 575.569 124.848C572.651 133.725 565.578 154.169 565.578 154.169C565.578 154.169 557.042 169.113 556.82 169.787C556.598 170.461 540.422 193.824 537.505 195.064C534.588 196.304 529.084 195.65 528.748 194.289C528.411 192.927 521 200.086 521 200.086C521 200.086 506.718 182.816 508.988 181.017C511.259 179.217 518.137 178.772 518.137 178.772C518.137 178.772 518.642 180.457 519.201 176.972C519.761 173.487 522.348 171.694 524.254 171.917C526.161 172.139 525.379 170.124 525.716 167.987C526.053 165.85 531.328 162.035 531.328 162.035C531.328 162.035 533.915 157.876 533.915 155.403C533.915 152.929 539.304 150.799 539.749 150.799C540.193 150.799 540.086 149.788 540.086 146.195C540.086 142.602 542.78 136.192 542.78 136.192L544.444 115.971L547.368 95.4121C547.368 95.4121 555.358 70.3643 572.759 87.5526Z" fill="black"/>
<path opacity="0.1" d="M560.539 156.751C560.539 156.751 561.212 160.37 562.028 165.203C560.68 167.623 559.609 169.551 559.528 169.78C559.306 170.454 543.137 193.823 540.22 195.057C537.303 196.291 531.799 195.643 531.462 194.289C531.314 193.682 529.772 194.754 528.094 196.135C526.006 197.861 523.708 200.079 523.708 200.079C523.708 200.079 521.445 197.342 518.865 193.931C514.957 188.782 510.329 182.102 511.69 181.017C513.96 179.217 520.845 178.772 520.845 178.772C520.845 178.772 521.35 180.457 521.91 176.972C522.469 173.487 525.056 171.694 526.962 171.917C528.869 172.139 528.087 170.117 528.424 167.987C528.761 165.857 534.036 162.028 534.036 162.028C534.036 162.028 536.616 157.876 536.616 155.403C536.616 152.929 542.006 150.799 542.457 150.799C542.908 150.799 542.794 149.788 542.794 146.188C542.794 142.589 545.489 136.192 545.489 136.192L547.153 115.971L550.07 95.412C550.07 95.412 558.046 70.3575 575.447 87.5458L576.747 90.0465C576.916 91.8058 576.909 92.9382 576.909 92.9382L549.847 112.378L560.539 156.751Z" fill="black"/>
<path d="M574.107 87.5526L576.916 92.945C576.916 92.945 579.833 115.971 576.916 124.848C573.999 133.725 566.925 154.169 566.925 154.169C566.925 154.169 558.39 169.113 558.167 169.787C557.945 170.461 541.77 193.824 538.853 195.064C535.936 196.304 530.432 195.65 530.095 194.289C529.758 192.927 522.348 200.086 522.348 200.086C522.348 200.086 508.065 182.816 510.336 181.017C512.606 179.217 519.484 178.772 519.484 178.772C519.484 178.772 519.99 180.457 520.549 176.972C521.108 173.487 523.695 171.694 525.601 171.917C527.508 172.139 526.726 170.124 527.063 167.987C527.4 165.85 532.675 162.035 532.675 162.035C532.675 162.035 535.262 157.876 535.262 155.403C535.262 152.929 540.652 150.799 541.096 150.799C541.541 150.799 541.433 149.788 541.433 146.195C541.433 142.602 544.128 136.192 544.128 136.192L545.792 115.971L548.716 95.4121C548.716 95.4121 556.705 70.3643 574.107 87.5526Z" fill="#575988"/>
<path opacity="0.1" d="M524.032 177.828C524.032 177.828 524.705 179.345 527.737 179.898C530.768 180.45 524.032 177.828 524.032 177.828Z" fill="black"/>
<path opacity="0.1" d="M560.296 87.6604C560.188 87.9974 550.191 99.3013 552.212 102.247C554.233 105.192 560.296 87.6604 560.296 87.6604Z" fill="black"/>
<path opacity="0.1" d="M548.958 139.562C548.958 139.562 554.684 145.184 553.559 147.88C552.434 150.576 548.958 139.562 548.958 139.562Z" fill="black"/>
<path opacity="0.1" d="M549.854 128.892C550.191 129.452 562.546 130.914 563.22 135.633C563.894 140.351 549.854 128.892 549.854 128.892Z" fill="black"/>
<g opacity="0.1">
<path opacity="0.1" d="M551.107 27.8518C551.107 27.5956 551.168 27.3327 551.208 27.0699C551.46 25.7849 551.568 24.476 551.532 23.1671C551.478 24.0232 551.329 24.8792 551.208 25.7218C551.074 26.4234 551.04 27.1406 551.107 27.8518Z" fill="black"/>
<path opacity="0.1" d="M511.488 26.5307C511.568 26.0328 511.568 25.5254 511.488 25.0275C511.407 24.5489 511.319 24.0704 511.272 23.5918C511.2 24.5253 511.273 25.4643 511.488 26.3756V26.5307Z" fill="black"/>
<path opacity="0.1" d="M551.707 31.5254C551.417 33.1296 550.211 34.5654 549.288 35.9876C548.286 37.5372 547.576 39.2575 547.193 41.0632C547.078 41.9119 546.837 42.7388 546.479 43.5168C546.293 43.903 545.993 44.223 545.619 44.4338C545.246 44.6447 544.817 44.7363 544.39 44.6964C544.393 44.674 544.393 44.6513 544.39 44.629C544.353 45.1001 544.353 45.5734 544.39 46.0445C544.817 46.0844 545.246 45.9928 545.619 45.7819C545.993 45.5711 546.293 45.2511 546.479 44.8649C546.837 44.0869 547.078 43.26 547.193 42.4113C547.576 40.6056 548.286 38.8853 549.288 37.3357C550.406 35.6034 551.983 33.8576 551.754 31.8018C551.781 31.7074 551.72 31.6198 551.707 31.5254Z" fill="black"/>
<path opacity="0.1" d="M544.485 41.0227C544.37 39.1489 543.38 37.4503 542.417 35.8393C541.765 34.5388 540.847 33.3904 539.722 32.469C539.394 32.2789 539.089 32.0529 538.812 31.795C538.193 31.1209 538.26 30.0492 538.139 29.0988C537.958 27.8571 537.394 26.703 536.525 25.7977C535.657 24.8925 534.527 24.2815 533.295 24.0501C532.784 23.9202 532.242 23.9951 531.786 24.2591C531.328 24.5826 531.112 25.1825 530.728 25.56C530.387 25.7851 530 25.931 529.596 25.987C529.191 26.043 528.78 26.0076 528.39 25.8835C526.625 25.533 524.786 24.8859 523.075 25.4589C520.138 26.4295 519.033 30.4941 516.015 31.249C515.123 31.3851 514.222 31.4504 513.32 31.4445C512.867 31.4425 512.42 31.5506 512.017 31.7596C511.615 31.9686 511.269 32.2722 511.009 32.6443C510.702 32.3174 510.498 31.9071 510.423 31.4647C510.318 31.9026 510.316 32.3591 510.418 32.7978C510.52 33.2366 510.722 33.6456 511.009 33.9924C511.269 33.6203 511.615 33.3167 512.017 33.1077C512.42 32.8987 512.867 32.7906 513.32 32.7926C514.222 32.7986 515.123 32.7332 516.015 32.5971C519.019 31.8422 520.138 27.7776 523.075 26.807C524.786 26.234 526.625 26.8811 528.39 27.2316C528.78 27.3557 529.191 27.3911 529.596 27.3351C530 27.2791 530.387 27.1332 530.728 26.9081C531.146 26.5306 531.328 25.9307 531.786 25.6072C532.242 25.3432 532.784 25.2683 533.295 25.3982C534.527 25.6296 535.657 26.2406 536.525 27.1458C537.394 28.0511 537.958 29.2052 538.139 30.4469C538.253 31.3771 538.186 32.4218 538.812 33.1431C539.089 33.401 539.394 33.627 539.722 33.8171C540.847 34.7385 541.765 35.8869 542.417 37.1874C543.353 38.7579 544.303 40.4026 544.438 42.2158C544.48 41.8196 544.496 41.421 544.485 41.0227Z" fill="black"/>
</g>
<path d="M323.065 98.971V169.706C323.063 169.855 323.091 170.003 323.148 170.14C323.204 170.278 323.287 170.403 323.393 170.508C323.498 170.613 323.624 170.696 323.762 170.752C323.9 170.807 324.048 170.834 324.197 170.832C343.666 170.225 359.902 154.122 359.902 134.338C359.902 114.555 343.68 98.4452 324.197 97.8453C324.048 97.8416 323.899 97.8682 323.761 97.9234C323.622 97.9786 323.497 98.0612 323.391 98.1664C323.285 98.2716 323.202 98.3971 323.146 98.5354C323.09 98.6736 323.062 98.8218 323.065 98.971Z" fill="#61BEEC"/>
<path d="M274.445 195.569V137.028C274.376 127.666 277.374 118.539 282.981 111.043C288.283 104.074 296.535 97.7645 309.012 97.8454C309.18 97.8445 309.347 97.8767 309.502 97.9403C309.658 98.0038 309.8 98.0974 309.919 98.2157C310.039 98.334 310.134 98.4747 310.199 98.6297C310.264 98.7848 310.298 98.9511 310.299 99.1193V159.38C310.299 159.38 312.32 192.314 275.159 196.21C275.07 196.215 274.981 196.203 274.897 196.174C274.813 196.144 274.735 196.098 274.669 196.039C274.602 195.979 274.548 195.907 274.51 195.827C274.472 195.746 274.45 195.659 274.445 195.569Z" fill="#4064AC"/>
<path opacity="0.1" d="M121.256 91.2397C132.976 91.2397 142.477 81.7335 142.477 70.007C142.477 58.2806 132.976 48.7744 121.256 48.7744C109.536 48.7744 100.035 58.2806 100.035 70.007C100.035 81.7335 109.536 91.2397 121.256 91.2397Z" fill="#6C63FF"/>
<path opacity="0.1" d="M76.7932 32.5971C84.0485 32.5971 89.93 26.7123 89.93 19.4531C89.93 12.1939 84.0485 6.30908 76.7932 6.30908C69.5379 6.30908 63.6564 12.1939 63.6564 19.4531C63.6564 26.7123 69.5379 32.5971 76.7932 32.5971Z" fill="#6C63FF"/>
<path opacity="0.1" d="M8.08421 56.863C12.549 56.863 16.1684 53.2416 16.1684 48.7744C16.1684 44.3072 12.549 40.6858 8.08421 40.6858C3.61942 40.6858 0 44.3072 0 48.7744C0 53.2416 3.61942 56.863 8.08421 56.863Z" fill="#6C63FF"/>
<path d="M276.123 452.915C275.476 453.802 274.959 454.775 274.587 455.807C274.493 456.057 274.398 456.346 274.304 456.623C274.134 456.542 273.955 456.481 273.772 456.441C272.987 456.241 272.174 456.17 271.367 456.232C271.367 455.922 271.407 455.558 271.414 455.248C271.515 451.695 271.097 446.741 267.708 448.837C264.461 450.86 266.779 454.23 268.874 456.394L269.413 456.919C267.5 458.267 267.136 461.456 266.819 464.765C266.503 468.075 263.693 471.701 261.827 473.757C261.639 473.966 261.47 474.155 261.302 474.33C260.548 473.726 259.675 473.289 258.74 473.048C257.805 472.808 256.83 472.769 255.879 472.935C255.804 472.645 255.724 472.342 255.629 472.018C254.127 466.538 250.994 457.101 246.993 455.079L247.518 454.405C249.216 452.181 251.129 448.878 248.306 448.035C245.484 447.193 245.228 450.9 245.383 453.677C245.383 454.021 245.437 454.351 245.463 454.661C244.899 454.687 244.346 454.829 243.839 455.077C243.331 455.325 242.88 455.675 242.513 456.104L242.075 455.591C239.784 452.895 235.587 448.602 234.314 451.844C233.135 454.864 236.827 458.78 239.427 461.051L239.589 461.193C237.844 468.284 245.463 474.06 249.566 476.588L250.098 476.912C244.439 483.585 240.943 496.089 240.943 496.089L256.795 498.919C256.795 498.919 267.298 489.847 265.95 481.334H266.058C276.561 479.23 278.946 468.028 277.315 461.375C277.376 461.375 277.436 461.328 277.497 461.294C279.409 460.512 281.085 459.246 282.361 457.62C285.298 453.515 279.141 448.905 276.123 452.915Z" fill="#6C63FF"/>
<path opacity="0.1" d="M276.123 452.915C275.476 453.802 274.959 454.775 274.587 455.807C274.493 456.057 274.398 456.346 274.304 456.623C274.134 456.542 273.955 456.481 273.772 456.441C272.987 456.241 272.174 456.17 271.367 456.232C271.367 455.922 271.407 455.558 271.414 455.248C271.515 451.695 271.097 446.741 267.708 448.837C264.461 450.86 266.779 454.23 268.874 456.394L269.413 456.919C267.5 458.267 267.136 461.456 266.819 464.765C266.503 468.075 263.693 471.701 261.827 473.757C261.639 473.966 261.47 474.155 261.302 474.33C260.548 473.726 259.675 473.289 258.74 473.048C257.805 472.808 256.83 472.769 255.879 472.935C255.804 472.645 255.724 472.342 255.629 472.018C254.127 466.538 250.994 457.101 246.993 455.079L247.518 454.405C249.216 452.181 251.129 448.878 248.306 448.035C245.484 447.193 245.228 450.9 245.383 453.677C245.383 454.021 245.437 454.351 245.463 454.661C244.899 454.687 244.346 454.829 243.839 455.077C243.331 455.325 242.88 455.675 242.513 456.104L242.075 455.591C239.784 452.895 235.587 448.602 234.314 451.844C233.135 454.864 236.827 458.78 239.427 461.051L239.589 461.193C237.844 468.284 245.463 474.06 249.566 476.588L250.098 476.912C244.439 483.585 240.943 496.089 240.943 496.089L256.795 498.919C256.795 498.919 267.298 489.847 265.95 481.334H266.058C276.561 479.23 278.946 468.028 277.315 461.375C277.376 461.375 277.436 461.328 277.497 461.294C279.409 460.512 281.085 459.246 282.361 457.62C285.298 453.515 279.141 448.905 276.123 452.915Z" fill="black"/>
<path d="M244.581 457.486L242.728 462.878C242.728 462.878 241.698 462.15 240.397 461.004C237.797 458.733 234.105 454.816 235.284 451.797C236.557 448.554 240.754 452.835 243.045 455.544C243.968 456.65 244.581 457.486 244.581 457.486Z" fill="#6C63FF"/>
<path d="M248.488 454.405C247.925 455.144 247.322 455.853 246.683 456.528C246.525 455.584 246.415 454.632 246.353 453.677C246.198 450.9 246.494 447.213 249.277 448.035C252.059 448.858 250.186 452.167 248.488 454.405Z" fill="#6C63FF"/>
<path d="M272.384 455.248C272.33 457.034 272.155 458.456 272.155 458.456C271.34 457.832 270.568 457.155 269.844 456.427C267.749 454.25 265.431 450.893 268.679 448.871C272.067 446.741 272.485 451.709 272.384 455.248Z" fill="#6C63FF"/>
<path d="M283.331 457.587C282.055 459.212 280.379 460.478 278.467 461.26C277.937 461.494 277.393 461.692 276.837 461.853L274.654 458.786C274.885 457.774 275.187 456.778 275.557 455.807C275.929 454.775 276.447 453.802 277.093 452.915C280.111 448.905 286.268 453.515 283.331 457.587Z" fill="#6C63FF"/>
<path opacity="0.1" d="M243.045 455.578C243.968 456.65 244.581 457.486 244.581 457.486L242.728 462.878C242.728 462.878 241.698 462.15 240.397 461.004C240.688 459.267 241.405 457.629 242.486 456.239C242.668 456.023 242.863 455.787 243.045 455.578Z" fill="black"/>
<path opacity="0.1" d="M248.488 454.405C247.925 455.144 247.322 455.853 246.683 456.528C246.525 455.584 246.415 454.632 246.353 453.677C247.123 453.69 247.87 453.945 248.488 454.405Z" fill="black"/>
<path d="M257.603 475.928L252.988 477.95C252.988 477.95 251.985 477.464 250.536 476.568C245.692 473.582 235.958 466.08 242.486 457.236C249.014 448.393 254.457 464.253 256.599 472.011C257.253 474.337 257.603 475.928 257.603 475.928Z" fill="#6C63FF"/>
<path opacity="0.1" d="M269.844 456.427C270.513 455.735 271.422 455.325 272.384 455.281C272.33 457.068 272.155 458.49 272.155 458.49C271.339 457.855 270.567 457.166 269.844 456.427Z" fill="black"/>
<path opacity="0.1" d="M278.467 461.26C277.937 461.494 277.393 461.692 276.837 461.853L274.654 458.786C274.885 457.773 275.187 456.778 275.557 455.807C276.965 456.636 278.002 458.679 278.467 461.26Z" fill="black"/>
<path d="M267.028 481.3L266.253 481.435C250.806 483.787 261.16 475.442 261.16 475.442C261.16 475.442 261.834 474.768 262.797 473.757C264.663 471.701 267.466 468.095 267.789 464.765C268.274 459.757 268.834 455.059 274.742 456.441C280.542 457.775 281.634 478.368 267.028 481.3Z" fill="#6C63FF"/>
<path d="M266.745 519.781H237.231V527.547H266.745V519.781Z" fill="#D4DFEC"/>
<path d="M271.104 494.545H232.542V521.642H271.104V494.545Z" fill="#D4DFEC"/>
<path opacity="0.1" d="M266.745 519.781H237.231V527.547H266.745V519.781Z" fill="black"/>
<path opacity="0.1" d="M271.104 494.545H232.542V521.642H271.104V494.545Z" fill="black"/>
<path d="M268.685 519.781H239.171V527.547H268.685V519.781Z" fill="#D4DFEC"/>
<path opacity="0.1" d="M256.599 472.018C257.273 474.337 257.603 475.928 257.603 475.928L252.988 477.95C252.988 477.95 251.985 477.464 250.536 476.568C252.342 474.283 254.376 472.551 256.599 472.018Z" fill="black"/>
<path opacity="0.1" d="M267.028 481.3L266.253 481.435C250.806 483.787 261.16 475.442 261.16 475.442C261.16 475.442 261.834 474.768 262.797 473.757C265.681 476.069 266.873 478.671 267.028 481.3Z" fill="black"/>
<path d="M241.886 496.075C241.886 496.075 250.536 465.069 262.669 474.64C274.802 484.212 257.738 498.906 257.738 498.906L241.886 496.075Z" fill="#6C63FF"/>
<path opacity="0.1" d="M246.285 463.073C246.821 463.073 247.255 462.639 247.255 462.103C247.255 461.567 246.821 461.132 246.285 461.132C245.75 461.132 245.315 461.567 245.315 462.103C245.315 462.639 245.75 463.073 246.285 463.073Z" fill="black"/>
<path opacity="0.1" d="M246.204 467.603C246.74 467.603 247.175 467.169 247.175 466.632C247.175 466.096 246.74 465.662 246.204 465.662C245.669 465.662 245.234 466.096 245.234 466.632C245.234 467.169 245.669 467.603 246.204 467.603Z" fill="black"/>
<path opacity="0.1" d="M274.338 463.963C274.873 463.963 275.308 463.529 275.308 462.993C275.308 462.457 274.873 462.022 274.338 462.022C273.802 462.022 273.367 462.457 273.367 462.993C273.367 463.529 273.802 463.963 274.338 463.963Z" fill="black"/>
<path opacity="0.1" d="M251.702 487.184C252.238 487.184 252.672 486.75 252.672 486.214C252.672 485.678 252.238 485.243 251.702 485.243C251.166 485.243 250.732 485.678 250.732 486.214C250.732 486.75 251.166 487.184 251.702 487.184Z" fill="black"/>
<path opacity="0.1" d="M272.316 471.486C272.852 471.486 273.287 471.051 273.287 470.515C273.287 469.979 272.852 469.544 272.316 469.544C271.781 469.544 271.346 469.979 271.346 470.515C271.346 471.051 271.781 471.486 272.316 471.486Z" fill="black"/>
<path opacity="0.1" d="M262.292 481.522C262.828 481.522 263.262 481.088 263.262 480.552C263.262 480.016 262.828 479.581 262.292 479.581C261.756 479.581 261.322 480.016 261.322 480.552C261.322 481.088 261.756 481.522 262.292 481.522Z" fill="black"/>
<path opacity="0.1" d="M249.6 465.015C250.136 465.015 250.57 464.58 250.57 464.044C250.57 463.508 250.136 463.073 249.6 463.073C249.064 463.073 248.63 463.508 248.63 464.044C248.63 464.58 249.064 465.015 249.6 465.015Z" fill="black"/>
<path opacity="0.1" d="M271.67 466.875C272.206 466.875 272.64 466.441 272.64 465.904C272.64 465.368 272.206 464.934 271.67 464.934C271.134 464.934 270.7 465.368 270.7 465.904C270.7 466.441 271.134 466.875 271.67 466.875Z" fill="black"/>
<path opacity="0.1" d="M268.355 474.397C268.891 474.397 269.325 473.963 269.325 473.427C269.325 472.891 268.891 472.456 268.355 472.456C267.819 472.456 267.385 472.891 267.385 473.427C267.385 473.963 267.819 474.397 268.355 474.397Z" fill="black"/>
<path opacity="0.1" d="M258.169 486.456C258.705 486.456 259.139 486.022 259.139 485.486C259.139 484.95 258.705 484.515 258.169 484.515C257.633 484.515 257.199 484.95 257.199 485.486C257.199 486.022 257.633 486.456 258.169 486.456Z" fill="black"/>
<path opacity="0.1" d="M256.067 481.684C256.603 481.684 257.037 481.249 257.037 480.713C257.037 480.177 256.603 479.743 256.067 479.743C255.531 479.743 255.097 480.177 255.097 480.713C255.097 481.249 255.531 481.684 256.067 481.684Z" fill="black"/>
<path opacity="0.1" d="M251.055 470.919C251.591 470.919 252.025 470.485 252.025 469.949C252.025 469.413 251.591 468.978 251.055 468.978C250.519 468.978 250.085 469.413 250.085 469.949C250.085 470.485 250.519 470.919 251.055 470.919Z" fill="black"/>
<path opacity="0.1" d="M268.685 519.781H239.171V522.619H268.685V519.781Z" fill="black"/>
<path d="M273.044 494.545H234.482V521.642H273.044V494.545Z" fill="#D4DFEC"/>
<path opacity="0.1" d="M259.463 490.824C259.998 490.824 260.433 490.39 260.433 489.853C260.433 489.317 259.998 488.883 259.463 488.883C258.927 488.883 258.493 489.317 258.493 489.853C258.493 490.39 258.927 490.824 259.463 490.824Z" fill="black"/>
<path opacity="0.1" d="M253.642 492.037C254.178 492.037 254.612 491.603 254.612 491.067C254.612 490.531 254.178 490.096 253.642 490.096C253.106 490.096 252.672 490.531 252.672 491.067C252.672 491.603 253.106 492.037 253.642 492.037Z" fill="black"/>
</g>
<defs>
<linearGradient id="paint0_linear" x1="158.08" y1="521.561" x2="158.08" y2="162.116" gradientUnits="userSpaceOnUse">
<stop stop-color="#808080" stop-opacity="0.25"/>
<stop offset="0.54" stop-color="#808080" stop-opacity="0.12"/>
<stop offset="1" stop-color="#808080" stop-opacity="0.1"/>
</linearGradient>
<linearGradient id="paint1_linear" x1="159825" y1="223988" x2="159825" y2="24982.3" gradientUnits="userSpaceOnUse">
<stop stop-color="#808080" stop-opacity="0.25"/>
<stop offset="0.54" stop-color="#808080" stop-opacity="0.12"/>
<stop offset="1" stop-color="#808080" stop-opacity="0.1"/>
</linearGradient>
<clipPath id="clip0">
<rect width="729" height="530" fill="white"/>
</clipPath>
</defs>
</svg>
