<svg width="100" height="100" viewBox="0 0 100 100" fill="none" xmlns="http://www.w3.org/2000/svg">
<circle cx="50" cy="50" r="50" fill="#1205A9"/>
<path d="M74.7098 46.0295C74.4787 45.7984 74.1468 45.6983 73.8267 45.7627L65.4109 47.4564C65.0581 47.5275 64.7729 47.7868 64.6688 48.1312C64.5647 48.4758 64.6585 48.8496 64.913 49.1042L66.0516 50.2428L61.583 54.7114L58.1237 51.2521C57.9405 51.069 57.6922 50.9661 57.4332 50.9661C57.1742 50.9661 56.9259 51.069 56.7427 51.2521L52.4979 55.497L54.0902 49.7758C54.4773 48.3849 54.1984 46.928 53.3251 45.7784C52.7902 45.0744 52.084 44.5552 51.2856 44.2578L52.5585 40.6218C52.9097 40.6526 53.2601 40.6683 53.6064 40.6683C56.4261 40.6683 59.1753 39.6745 61.3477 37.87L61.5804 37.6768C62.7257 36.7252 62.9214 35.0715 62.0262 33.9122C61.5722 33.3243 60.9162 32.9555 60.179 32.8741C59.4414 32.7926 58.7208 33.009 58.1501 33.483L57.8858 33.7027C57.4963 34.0262 57.0703 34.3055 56.6198 34.5328C55.114 35.2923 53.2337 34.954 51.9843 33.7175C53.8017 33.1546 55.1256 31.458 55.1256 29.458C55.1257 26.9998 53.1258 25 50.6676 25C48.2093 25 46.2094 26.9998 46.2094 29.4581C46.2094 30.4363 46.5269 31.3413 47.0631 32.0772C46.0489 32.2955 45.1362 32.8184 44.4378 33.5577C44.3971 33.5935 44.358 33.6322 44.3227 33.6757C42.6012 35.7902 40.3063 37.3069 37.6861 38.0616C36.9766 38.2661 36.4152 38.7371 36.0782 39.3344L34.0768 37.3329C33.201 36.4573 31.7764 36.4574 30.9005 37.3329L28.2813 39.9523L25.6621 42.5715C25.2378 42.9957 25.0042 43.5596 25.0042 44.1597C25.0042 44.7596 25.2379 45.3235 25.662 45.7478L32.8787 52.9646C33.303 53.3888 33.8669 53.6223 34.4669 53.6223C35.0669 53.6223 35.6308 53.3887 36.055 52.9646L38.767 50.2526L37.4811 53.6246C37.2889 54.1284 37.5416 54.6928 38.0455 54.8849C38.16 54.9286 38.2776 54.9493 38.3933 54.9493C38.7867 54.9493 39.1574 54.7098 39.306 54.3205L42.5086 45.9226H48.6224H49.6793C50.5072 45.9226 51.2692 46.3007 51.77 46.9599C52.2709 47.6192 52.4308 48.4547 52.2088 49.2522L49.9899 57.2248C49.8901 57.5836 49.5602 57.8341 49.1878 57.8341C48.8537 57.8341 48.6476 57.6511 48.5546 57.5421C48.4615 57.433 48.3131 57.2007 48.3655 56.8708L49.5462 49.4483C49.5911 49.166 49.5101 48.8784 49.3245 48.661C49.139 48.4436 48.8675 48.3184 48.5818 48.3184H46.2668C45.8985 48.3184 45.5615 48.5256 45.3953 48.8541C45.3383 48.9668 39.6726 60.1692 37.7634 63.9545C37.5723 64.3335 37.1568 64.5498 36.7308 64.4915L36.6845 64.4853C36.3938 64.446 36.1413 64.2788 35.9914 64.0266C35.8415 63.7744 35.8156 63.4726 35.9202 63.1986L36.5219 61.6208C36.7141 61.117 36.4613 60.5528 35.9575 60.3605C35.4537 60.1683 34.8894 60.4211 34.6971 60.9249L34.0954 62.5026C33.7772 63.3371 33.8563 64.2561 34.3124 65.024C34.7685 65.7918 35.5377 66.301 36.422 66.4207L36.4683 66.4268C36.6022 66.4451 36.7355 66.4538 36.8681 66.4538C37.9736 66.4538 39.0019 65.8361 39.5072 64.834C41.1749 61.5276 45.7103 52.5589 46.8672 50.2714H47.4378L46.4369 56.564C46.3086 57.3703 46.5391 58.189 47.0692 58.8099C47.4102 59.2094 47.8518 59.4985 48.3406 59.6545L37.4628 70.5323C37.2797 70.7155 37.1768 70.9638 37.1768 71.2227C37.1768 71.4817 37.2797 71.7301 37.4628 71.9132L40.2637 74.714C40.4544 74.9046 40.7043 75 40.9542 75C41.2041 75 41.4539 74.9046 41.6446 74.714L47.0291 69.3295C47.4104 68.9482 47.4104 68.3299 47.0291 67.9485C46.6477 67.5673 46.0296 67.5673 45.648 67.9485L40.9542 72.6425L39.5344 71.2227L57.4334 53.3234L60.8927 56.7827C61.0759 56.9658 61.3242 57.0687 61.5832 57.0687C61.8421 57.0687 62.0904 56.9658 62.2736 56.7827L68.1231 50.9332C68.5044 50.5519 68.5044 49.9335 68.1231 49.5521L67.5823 49.0114L72.7723 47.9669L71.7278 53.1568L70.9241 52.3531C70.5426 51.9719 69.9245 51.9719 69.543 52.3531L61.5831 60.313L58.1238 56.8537C57.7423 56.4725 57.1242 56.4725 56.7427 56.8537L51.1717 62.4247C50.7904 62.806 50.7904 63.4243 51.1717 63.8057C51.5532 64.187 52.1713 64.187 52.5528 63.8057L57.4332 58.9253L60.8925 62.3847C61.2739 62.7659 61.892 62.7659 62.2735 62.3847L70.2335 54.4247L71.6351 55.8264C71.8896 56.0808 72.2637 56.1749 72.608 56.0706C72.9525 55.9666 73.212 55.6814 73.283 55.3285L74.9767 46.9126C75.0411 46.5922 74.9409 46.2607 74.7098 46.0295ZM50.6676 26.953C52.0489 26.953 53.1727 28.0768 53.1727 29.4581C53.1727 30.8394 52.0488 31.9632 50.6676 31.9632C49.2862 31.9632 48.1624 30.8394 48.1624 29.4581C48.1624 28.0768 49.2862 26.953 50.6676 26.953ZM41.005 44.2612L39.8167 43.0728C40.3811 42.8887 40.9354 42.678 41.4782 42.4424L41.005 44.2612ZM37.7095 40.874C37.5941 40.4734 37.8262 40.0537 38.2267 39.9383C39.832 39.4759 41.3292 38.7618 42.6782 37.8294L42.1267 39.9494C41.029 40.5559 39.8602 41.0411 38.6449 41.3911C38.6223 41.3976 38.5987 41.4032 38.5753 41.4077C38.3952 41.442 38.2149 41.4062 38.0636 41.3199L37.7776 41.0338C37.7493 40.9839 37.7259 40.9308 37.7095 40.874ZM32.2814 38.7139C32.3385 38.6568 32.4136 38.6283 32.4886 38.6283C32.5636 38.6283 32.6387 38.6568 32.6957 38.7139L36.2552 42.2734C36.4203 42.4989 36.6172 42.6954 36.839 42.8571L39.9125 45.9307C40.0268 46.0449 40.0268 46.2308 39.9125 46.345L37.9838 48.2737L35.8387 46.1287L36.2473 45.7201C36.6286 45.3388 36.6286 44.7205 36.2473 44.3391L34.0492 42.141C33.6678 41.7598 33.0497 41.7598 32.6682 42.141L32.2596 42.5495L30.3526 40.6426L32.2814 38.7139ZM33.618 45.5875C33.5246 45.6809 33.4155 45.695 33.3588 45.695C33.3021 45.695 33.193 45.6809 33.0996 45.5876V45.5875L32.8009 45.2889C32.7075 45.1954 32.6935 45.0864 32.6935 45.0297C32.6935 44.973 32.7075 44.8639 32.801 44.7705L33.3588 44.2127L34.1758 45.0297L33.618 45.5875ZM34.674 51.5836C34.603 51.6545 34.5222 51.6694 34.4669 51.6694C34.4116 51.6694 34.3306 51.6545 34.2598 51.5835L27.043 44.3668C26.972 44.2958 26.9572 44.2149 26.9572 44.1597C26.9572 44.1043 26.972 44.0235 27.043 43.9526L28.9717 42.0238L30.97 44.022C30.8201 44.3323 30.7405 44.6749 30.7405 45.0297C30.7405 45.6494 30.9819 46.2319 31.4199 46.6699L31.7185 46.9684V46.9685C32.1566 47.4066 32.7392 47.648 33.3588 47.648C33.7136 47.648 34.0562 47.5685 34.3665 47.4185L36.6028 49.6549L34.674 51.5836ZM48.6223 43.9697H43.0989L45.1049 36.258C45.4637 34.8792 46.7092 33.9163 48.1339 33.9163C49.014 33.9163 49.8281 34.2712 50.4262 34.9156C52.2608 36.8924 55.1697 37.452 57.4995 36.2766C58.0813 35.9831 58.6312 35.6227 59.1339 35.205L59.3983 34.9854C59.5576 34.853 59.7587 34.7922 59.9647 34.8155C60.1703 34.8381 60.3535 34.9412 60.4806 35.106C60.726 35.4236 60.6595 35.9031 60.3326 36.1746L60.1 36.3679C58.2775 37.8818 55.9714 38.7156 53.6065 38.7156C53.093 38.7156 52.5681 38.6744 52.0464 38.5933C51.5807 38.5203 51.1302 38.7909 50.9746 39.2355L49.3173 43.9697H48.6223Z" fill="#F2F2F2"/>
<path d="M49.1189 64.9189C48.8621 64.9189 48.6101 65.0233 48.4285 65.2051C48.2469 65.3866 48.1424 65.6385 48.1424 65.8954C48.1424 66.1532 48.2468 66.4042 48.4285 66.5857C48.6101 66.7683 48.8621 66.8719 49.1189 66.8719C49.3757 66.8719 49.6276 66.7683 49.8092 66.5857C49.9908 66.4042 50.0954 66.1531 50.0954 65.8954C50.0954 65.6385 49.9909 65.3866 49.8092 65.2051C49.6276 65.0233 49.3757 64.9189 49.1189 64.9189Z" fill="#F2F2F2"/>
<path d="M36.9997 58.6048C37.2565 58.6048 37.5084 58.5004 37.6901 58.3186C37.8716 58.1371 37.9762 57.8852 37.9762 57.6283C37.9762 57.3715 37.8717 57.1196 37.6901 56.938C37.5075 56.7563 37.2565 56.6519 36.9997 56.6519C36.7429 56.6519 36.4909 56.7562 36.3083 56.938C36.1268 57.1196 36.0232 57.3715 36.0232 57.6283C36.0232 57.8852 36.1268 58.1371 36.3083 58.3186C36.4909 58.5003 36.7419 58.6048 36.9997 58.6048Z" fill="#F2F2F2"/>
</svg>
