<svg width="100" height="100" viewBox="0 0 100 100" fill="none" xmlns="http://www.w3.org/2000/svg">
<circle cx="50" cy="50" r="50" fill="#1205A9"/>
<path d="M72.9956 27.2886H29.0047C27.3476 27.2886 26 28.6365 26 30.2934V69.7066C26 71.3634 27.3476 72.7113 29.0047 72.7113H72.9957C74.6523 72.7113 75.9999 71.3634 75.9999 69.7066V30.2934C76.0003 28.6367 74.6522 27.2886 72.9956 27.2886ZM63.9361 32.3343C63.9361 31.7215 64.4328 31.2247 65.0454 31.2247H66.1549C66.7679 31.2247 67.2642 31.7214 67.2642 32.3343V33.5917C67.2642 34.2044 66.7675 34.7011 66.1549 34.7011H65.0454C64.4328 34.7011 63.9361 34.2044 63.9361 33.5917V32.3343ZM58.7769 32.3343C58.7769 31.7215 59.2739 31.2247 59.8865 31.2247H60.9958C61.6084 31.2247 62.1053 31.7214 62.1053 32.3343V33.5917C62.1053 34.2044 61.6084 34.7011 60.9958 34.7011H59.8865C59.2739 34.7011 58.7769 34.2044 58.7769 33.5917V32.3343ZM72.3942 69.1055H29.6057V38.034H72.3942V69.1055ZM72.4234 33.5917C72.4234 34.2044 71.9267 34.7011 71.3141 34.7011H70.2045C69.5914 34.7011 69.0951 34.2044 69.0951 33.5917V32.3343C69.0951 31.7215 69.5918 31.2247 70.2045 31.2247H71.3141C71.9268 31.2247 72.4234 31.7214 72.4234 32.3343V33.5917Z" fill="#F2F2F2"/>
<path d="M36.7328 54.7416L44.7754 58.4816C44.9833 58.5779 45.2047 58.6267 45.4335 58.6267C45.7316 58.6267 46.0221 58.542 46.2747 58.3814C46.7269 58.0924 46.9971 57.5999 46.9971 57.0639V57.0229C46.9971 56.417 46.642 55.8607 46.0924 55.6054L41.0622 53.2683L46.0924 50.9309C46.642 50.6754 46.9971 50.1191 46.9971 49.5136V49.4729C46.9971 48.9362 46.7269 48.4434 46.2747 48.1554C46.0247 47.9957 45.7334 47.9111 45.4326 47.9111C45.2058 47.9111 44.9784 47.961 44.7748 48.0556L36.7327 51.7953C36.1836 52.0507 35.8288 52.6072 35.8288 53.2126V53.3244C35.8286 53.9288 36.1832 54.485 36.7328 54.7416Z" fill="#F2F2F2"/>
<path d="M47.0687 62.3591C47.3621 62.7606 47.8339 63.0004 48.3309 63.0004H48.3711C49.0535 63.0004 49.6513 62.5636 49.8592 61.9145L55.1571 45.4987C55.3091 45.025 55.2248 44.502 54.9313 44.0998C54.6379 43.6982 54.1661 43.4585 53.669 43.4585H53.6289C52.9463 43.4585 52.3478 43.8951 52.1399 44.5442L46.8415 60.9613C46.6907 61.4357 46.7756 61.9579 47.0687 62.3591Z" fill="#F2F2F2"/>
<path d="M55.0028 49.5134C55.0028 50.1184 55.3576 50.6747 55.9074 50.9315L60.9375 53.2683L55.9074 55.6052C55.3579 55.8607 55.0028 56.417 55.0028 57.0226V57.0637C55.0028 57.5998 55.2727 58.0923 55.7255 58.3814C55.9771 58.5418 56.2678 58.6267 56.5663 58.6267C56.7948 58.6267 57.016 58.5779 57.2254 58.4811L65.2675 54.7412C65.8166 54.485 66.1714 53.9288 66.1714 53.3241V53.2123C66.1714 52.607 65.8166 52.0505 65.267 51.795L57.2249 48.0553C57.022 47.961 56.7948 47.9111 56.568 47.9111C56.2678 47.9111 55.9761 47.9954 55.7261 48.1549C55.2734 48.4434 55.0032 48.936 55.0032 49.4728V49.5133H55.0028V49.5134Z" fill="#F2F2F2"/>
</svg>
