<svg width="100" height="100" viewBox="0 0 100 100" fill="none" xmlns="http://www.w3.org/2000/svg">
<circle cx="50" cy="50" r="50" fill="#1205A9"/>
<path d="M61.6524 50.813C60.1619 49.6613 57.9261 48.7127 54.9451 47.9675L52.6077 47.4593V37.6016C52.6755 37.6694 52.7432 37.7033 52.811 37.7033C52.8788 37.7033 52.9126 37.7371 52.9126 37.8049C54.8774 38.7534 55.9276 40.3794 56.063 42.6829H63.8882C63.7527 38.6179 62.2283 35.5013 59.315 33.3333C57.418 31.9106 55.1822 30.9621 52.6077 30.4878V25H45.3923V30.2846C42.0048 30.6911 39.3286 31.7751 37.3638 33.5366C34.7893 35.8401 33.502 38.7535 33.502 42.2764C33.502 46.0704 34.8232 48.8821 37.4654 50.7114C38.8882 51.7276 41.5305 52.6761 45.3923 53.5569V64.126C43.9695 63.7195 42.8855 63.0759 42.1402 62.1951C41.3272 61.2466 40.8191 59.9594 40.6158 58.3333H32.8923C32.8923 62.3306 34.3489 65.481 37.2622 67.7846C39.3625 69.4106 42.0725 70.4607 45.3923 70.935V75H52.6077V71.0366C56.1308 70.5623 58.9424 69.4444 61.0427 67.6829C63.7527 65.3117 65.1077 62.3306 65.1077 58.7398C65.1077 55.2846 63.956 52.6423 61.6524 50.813ZM45.3923 45.7317C44.2405 45.393 43.4275 45.0881 42.9532 44.8171C41.666 44.1395 41.0224 43.0894 41.0224 41.6667C41.0224 40.1084 41.666 38.9228 42.9532 38.1098C43.6308 37.7033 44.4438 37.3645 45.3923 37.0935V45.7317ZM53.8272 63.9228C53.4885 64.0582 53.082 64.1599 52.6077 64.2276V55.1829C53.895 55.5894 54.8773 55.9959 55.5549 56.4024C56.7066 57.1477 57.2825 58.1639 57.2825 59.4512C57.2825 61.6192 56.1308 63.1098 53.8272 63.9228Z" fill="#F2F2F2"/>
</svg>
