<svg width="843" height="615" viewBox="0 0 843 615" fill="none" xmlns="http://www.w3.org/2000/svg">
<g clip-path="url(#clip0)">
<g opacity="0.7">
<path opacity="0.7" d="M160.297 450.669C161.295 446.373 161.054 441.855 159.605 437.709C158.157 433.563 155.569 429.984 152.183 427.444C150.396 426.152 148.4 425.168 146.751 423.681C144 421.201 142.412 417.55 141.301 413.899C138.576 405.148 137.717 395.319 132.945 387.413C128.606 380.213 120.136 378.123 112.63 377.389C109.896 377.129 107.024 376.989 104.525 378.206C100.342 380.232 98.346 385.518 98.155 390.432C97.9641 395.347 99.1617 400.187 99.4567 405.092C99.7518 409.997 98.9361 415.394 95.5604 418.72C92.1847 422.046 87.3425 422.436 82.856 423.105C76.9823 423.978 71.2113 425.513 65.6392 427.685C60.9618 429.543 55.7465 432.804 55.5295 438.118C55.3473 442.466 58.6275 445.94 61.092 449.405C65.6999 455.908 68.0343 464.418 66.4375 472.379C64.8408 480.341 59.4953 487.439 58.5667 495.651C58.2155 497.737 58.4857 499.888 59.3391 501.801C60.0864 503.099 61.0725 504.221 62.2375 505.099C65.1272 507.486 68.312 509.41 71.0889 512.001C76.7902 517.408 79.8795 525.258 82.2573 533.006C82.4829 533.749 82.6911 534.511 82.9081 535.254H77.3022C71.8221 535.286 66.5745 537.629 62.697 541.774C58.8195 545.92 56.6247 551.535 56.5882 557.402C56.6133 563.28 58.8056 568.909 62.688 573.066C66.5705 577.222 71.829 579.569 77.3196 579.596H133.292C138.782 579.569 144.041 577.222 147.923 573.066C151.806 568.909 153.998 563.28 154.023 557.402C153.998 551.524 151.806 545.894 147.923 541.738C144.041 537.582 138.782 535.235 133.292 535.208H117.949C121.577 530.005 125.369 525.119 130.966 523.131C136.563 521.143 143.341 522.304 147.732 518.124C149.797 515.955 151.136 513.117 151.541 510.051C152.47 504.586 151.602 498.947 149.085 494.09C147.35 490.718 144.746 487.662 144.182 483.871C143.705 480.61 144.807 477.303 146.3 474.405C150.534 466.164 158.023 459.764 160.297 450.669Z" fill="url(#paint0_linear)"/>
</g>
<path d="M112.43 382.21C109.827 381.96 107.093 381.83 104.715 382.991C100.732 384.923 98.8319 389.958 98.641 394.631C98.4501 399.304 99.6042 403.921 99.8819 408.566C100.16 413.211 99.3873 418.376 96.1678 421.572C92.9483 424.768 88.3578 425.112 84.0709 425.744C78.4777 426.582 72.983 428.052 67.6785 430.128C63.2267 431.866 58.263 434.996 58.0547 440.069C57.8812 444.212 61.0052 447.501 63.3569 450.817C67.7479 456.986 69.9347 465.115 68.4421 472.695C66.9495 480.276 61.8643 487.039 60.9445 494.861C60.6113 496.847 60.8694 498.894 61.6821 500.714C62.3962 501.951 63.338 503.019 64.4503 503.854C67.2012 506.13 70.2731 507.96 72.8765 510.431C78.3088 515.578 81.2419 523.057 83.5155 530.433C85.7369 537.684 87.4768 545.094 88.7222 552.608C93.3996 549.385 99.448 549.431 104.438 546.811C115.068 541.237 118.643 525.072 129.864 521.05C135.175 519.192 141.648 520.26 145.831 516.284C147.797 514.22 149.072 511.52 149.458 508.601C150.341 503.397 149.513 498.027 147.115 493.403C145.441 490.188 142.976 487.281 142.447 483.639C141.987 480.527 143.046 477.387 144.46 474.628C148.495 466.778 155.628 460.693 157.807 452.025C158.757 447.934 158.528 443.631 157.149 439.683C155.77 435.735 153.307 432.326 150.083 429.905C148.289 428.811 146.551 427.614 144.877 426.319C142.273 423.96 140.772 420.476 139.67 417.029C137.066 408.668 136.259 399.378 131.712 391.807C127.634 384.895 119.581 382.898 112.43 382.21Z" fill="#4DB6AC"/>
<path opacity="0.6" d="M112.352 382.498C112.352 382.498 122.219 524.088 96.5583 548.39" stroke="#535461" stroke-miterlimit="10"/>
<path d="M138.646 532.542H72.243C64.9582 532.542 59.0527 538.864 59.0527 546.663V560.69C59.0527 568.489 64.9582 574.811 72.243 574.811H138.646C145.931 574.811 151.836 568.489 151.836 560.69V546.663C151.836 538.864 145.931 532.542 138.646 532.542Z" fill="#1205A9"/>
<path opacity="0.6" d="M58.0721 437.44C58.0721 437.44 83.3073 434.29 114.122 454.357" stroke="#535461" stroke-miterlimit="10"/>
<path opacity="0.6" d="M113.628 471.255C113.628 471.255 127.651 446.423 157.763 441.676" stroke="#535461" stroke-miterlimit="10"/>
<path opacity="0.6" d="M60.5019 495.029C60.5019 495.029 95.4823 488.683 111.554 499.256" stroke="#535461" stroke-miterlimit="10"/>
<path opacity="0.6" d="M109.592 513.739C109.592 513.739 127.903 504.848 148.504 512.066" stroke="#535461" stroke-miterlimit="10"/>
<g opacity="0.7">
<path opacity="0.7" d="M777.092 505.545V490.309H705.934V560.746C705.934 564.688 707.396 568.469 710 571.257C712.604 574.044 716.136 575.61 719.818 575.61H763.207C766.89 575.61 770.421 574.044 773.025 571.257C775.629 568.469 777.092 564.688 777.092 560.746V545.139C781.996 545.139 786.7 543.053 790.168 539.341C793.636 535.628 795.584 530.592 795.584 525.342C795.584 520.091 793.636 515.056 790.168 511.343C786.7 507.631 781.996 505.545 777.092 505.545ZM777.092 537.53V513.163C778.613 513.118 780.127 513.4 781.544 513.992C782.962 514.584 784.254 515.474 785.345 516.61C786.436 517.746 787.303 519.104 787.895 520.605C788.486 522.105 788.791 523.718 788.791 525.347C788.791 526.976 788.486 528.588 787.895 530.089C787.303 531.589 786.436 532.947 785.345 534.083C784.254 535.219 782.962 536.109 781.544 536.701C780.127 537.294 778.613 537.575 777.092 537.53Z" fill="url(#paint1_linear)"/>
</g>
<path d="M774.81 507.923C771.47 507.923 768.205 508.983 765.428 510.97C762.651 512.956 760.486 515.78 759.208 519.083C757.93 522.387 757.595 526.022 758.247 529.528C758.899 533.035 760.507 536.257 762.869 538.785C765.23 541.313 768.239 543.035 771.515 543.733C774.791 544.43 778.186 544.072 781.272 542.704C784.358 541.336 786.995 539.018 788.851 536.045C790.706 533.072 791.696 529.577 791.696 526.002C791.696 523.627 791.26 521.277 790.411 519.083C789.562 516.89 788.318 514.897 786.75 513.218C785.182 511.539 783.321 510.208 781.272 509.299C779.223 508.391 777.027 507.923 774.81 507.923ZM774.81 537.122C772.75 537.122 770.737 536.468 769.024 535.243C767.312 534.018 765.977 532.277 765.189 530.24C764.401 528.203 764.194 525.961 764.596 523.799C764.998 521.636 765.99 519.65 767.446 518.091C768.902 516.532 770.758 515.47 772.778 515.04C774.798 514.61 776.892 514.83 778.795 515.674C780.697 516.518 782.324 517.947 783.468 519.78C784.612 521.613 785.223 523.769 785.223 525.974C785.224 527.438 784.955 528.889 784.433 530.243C783.91 531.596 783.143 532.826 782.176 533.863C781.209 534.899 780.06 535.721 778.797 536.282C777.533 536.842 776.178 537.131 774.81 537.131V537.122Z" fill="#6C63FF"/>
<path opacity="0.1" d="M774.81 507.923C771.47 507.923 768.205 508.983 765.428 510.97C762.651 512.956 760.486 515.78 759.208 519.083C757.93 522.387 757.595 526.022 758.247 529.528C758.899 533.035 760.507 536.257 762.869 538.785C765.23 541.313 768.239 543.035 771.515 543.733C774.791 544.43 778.186 544.072 781.272 542.704C784.358 541.336 786.995 539.018 788.851 536.045C790.706 533.072 791.696 529.577 791.696 526.002C791.696 523.627 791.26 521.277 790.411 519.083C789.562 516.89 788.318 514.897 786.75 513.218C785.182 511.539 783.321 510.208 781.272 509.299C779.223 508.391 777.027 507.923 774.81 507.923ZM774.81 537.122C772.75 537.122 770.737 536.468 769.024 535.243C767.312 534.018 765.977 532.277 765.189 530.24C764.401 528.203 764.194 525.961 764.596 523.799C764.998 521.636 765.99 519.65 767.446 518.091C768.902 516.532 770.758 515.47 772.778 515.04C774.798 514.61 776.892 514.83 778.795 515.674C780.697 516.518 782.324 517.947 783.468 519.78C784.612 521.613 785.223 523.769 785.223 525.974C785.224 527.438 784.955 528.889 784.433 530.243C783.91 531.596 783.143 532.826 782.176 533.863C781.209 534.899 780.06 535.721 778.797 536.282C777.533 536.842 776.178 537.131 774.81 537.131V537.122Z" fill="#1205A9"/>
<path d="M709.847 494.025H774.792V562.836C774.792 565.239 773.901 567.543 772.314 569.241C770.727 570.94 768.575 571.894 766.331 571.894H718.326C716.082 571.894 713.93 570.94 712.343 569.241C710.756 567.543 709.865 565.239 709.865 562.836V494.025H709.847Z" fill="#1205A9"/>
<path d="M843 571.894H0V602.486H843V571.894Z" fill="#E0E0E0"/>
<g opacity="0.7">
<path opacity="0.7" d="M554.488 367.198C545.454 332.091 494.229 306.45 455.691 300.765C455.691 300.505 455.691 300.244 455.691 299.984V269.94H455.812V268.761C469.488 263.314 481.829 254.61 491.902 243.307C501.974 232.004 509.515 218.398 513.954 203.517C516.336 198.905 518.409 194.118 520.158 189.191C524.272 187.584 527.378 180.329 527.378 171.596C527.393 168.609 527.002 165.636 526.215 162.771C526.721 158.326 526.979 153.852 526.988 149.374C527.003 133.722 523.944 118.241 518.009 103.936C512.074 89.6311 503.395 76.822 492.537 66.3401C492.861 64.5414 492.972 62.706 492.866 60.8776C491.999 46.4502 477.602 36.6492 464.117 35.9989C467.68 31.6713 470.023 26.3498 470.872 20.653C471.722 14.9563 471.043 9.11839 468.916 3.81822C460.316 17.233 442.657 18.6823 427.462 18.7659C434.022 16.0439 437.007 6.31723 433.154 -0.00927734C417.274 22.7792 386.294 27.0061 367.411 46.989C363.295 51.3621 359.845 56.3997 357.189 61.9181C344.911 72.3885 334.999 85.6894 328.189 100.83C321.38 115.971 317.85 132.561 317.861 149.365C317.868 153.802 318.12 158.235 318.616 162.641C317.806 165.543 317.402 168.558 317.418 171.587C317.418 180.357 320.551 187.64 324.699 189.238C326.454 194.181 328.536 198.983 330.929 203.61C335.352 218.408 342.843 231.944 352.842 243.206C362.841 254.467 375.09 263.162 388.672 268.64V300.04C388.672 300.282 388.672 300.523 388.672 300.765C349.986 306.339 298.353 332.193 289.397 367.579C281.665 398.143 273.413 431.68 269.299 451.412C304.505 477.898 378.371 493.44 424.633 493.44C468.621 493.44 540.508 479.403 574.681 455.295C571.071 433.594 562.558 398.542 554.488 367.198Z" fill="url(#paint2_linear)"/>
</g>
<path d="M424.633 484.679C467.067 484.679 536.412 471.144 569.379 447.882C565.812 426.998 557.595 393.191 549.811 362.943C539.9 324.417 477.325 297.708 440.001 297.708H404.031C366.587 297.708 303.933 324.566 294.144 363.259C286.681 392.745 278.723 425.121 274.758 444.128C308.688 469.685 379.977 484.679 424.633 484.679Z" fill="#1205A9"/>
<path d="M422.446 260.808C478.156 260.808 523.317 212.461 523.317 152.821C523.317 93.1813 478.156 44.8337 422.446 44.8337C366.736 44.8337 321.575 93.1813 321.575 152.821C321.575 212.461 366.736 260.808 422.446 260.808Z" fill="#72351C"/>
<path opacity="0.1" d="M389.887 242.758H454.519V298.108C454.519 307.283 451.114 316.083 445.054 322.571C438.993 329.059 430.774 332.704 422.203 332.704C413.632 332.704 405.412 329.059 399.352 322.571C393.291 316.083 389.887 307.283 389.887 298.108V242.758Z" fill="black"/>
<path d="M399.181 240.194H445.269C447.727 240.194 450.084 241.239 451.822 243.1C453.56 244.96 454.536 247.484 454.536 250.116V295.544C454.536 304.719 451.132 313.519 445.071 320.007C439.011 326.495 430.791 330.14 422.22 330.14C417.976 330.14 413.774 329.245 409.853 327.506C405.933 325.768 402.37 323.219 399.369 320.007C396.368 316.794 393.988 312.98 392.364 308.783C390.74 304.586 389.904 300.087 389.904 295.544V250.116C389.904 248.812 390.144 247.521 390.61 246.316C391.077 245.112 391.76 244.018 392.622 243.096C393.483 242.175 394.506 241.444 395.631 240.946C396.757 240.448 397.963 240.193 399.181 240.194Z" fill="#FDA57D"/>
<path opacity="0.1" d="M390.008 268.881C410.838 277.215 433.767 277.284 454.641 269.076V260.576H390.008V268.881Z" fill="black"/>
<path d="M422.446 273.517C473.607 273.517 515.082 229.117 515.082 174.346C515.082 119.575 473.607 75.1749 422.446 75.1749C371.284 75.1749 329.81 119.575 329.81 174.346C329.81 229.117 371.284 273.517 422.446 273.517Z" fill="#FDA57D"/>
<path opacity="0.1" d="M356.416 84.1305C356.416 84.1305 395.467 168.967 505.588 119.683L479.989 76.652L434.517 59.1868L356.416 84.1305Z" fill="black"/>
<path d="M356.416 82.8856C356.416 82.8856 395.467 167.722 505.588 118.439L479.989 75.3979L434.517 57.9326L356.416 82.8856Z" fill="#72351C"/>
<path d="M356.113 77.1537C358.745 68.4297 363.296 60.5096 369.381 54.0587C387.604 34.7726 417.473 30.7036 432.799 8.71405C436.478 14.8176 433.666 24.2005 427.305 26.8203C441.962 26.7181 458.997 25.3432 467.293 12.4022C469.344 17.5148 469.997 23.1456 469.177 28.64C468.356 34.1344 466.096 39.2666 462.659 43.4402C475.676 44.0719 489.56 53.5291 490.428 67.4363C490.992 76.7264 485.56 85.4869 478.444 90.8008C471.328 96.1147 462.72 98.5579 454.241 100.555C429.475 106.408 339.928 130.878 356.113 77.1537Z" fill="#72351C"/>
<path d="M515.082 175.21H512.617L464.837 220.731C418.845 197.645 385.001 220.731 385.001 220.731L334.886 177.068L329.836 177.746C330.501 203.79 340.713 228.508 358.264 246.556C375.815 264.605 399.296 274.534 423.631 274.199C447.965 273.863 471.199 263.289 488.31 244.763C505.421 226.236 515.035 201.245 515.073 175.191L515.082 175.21ZM422.298 238.215C404.274 238.215 389.67 234.304 389.67 229.482C389.67 224.661 404.283 220.75 422.298 220.75C440.314 220.75 454.927 224.661 454.927 229.482C454.927 234.304 440.322 238.215 422.298 238.215Z" fill="#72351C"/>
<path d="M329.767 191.551C334.526 191.551 338.384 183.807 338.384 174.253C338.384 164.7 334.526 156.955 329.767 156.955C325.007 156.955 321.149 164.7 321.149 174.253C321.149 183.807 325.007 191.551 329.767 191.551Z" fill="#FDA57D"/>
<path d="M515.073 191.551C519.832 191.551 523.69 183.807 523.69 174.253C523.69 164.7 519.832 156.955 515.073 156.955C510.314 156.955 506.456 164.7 506.456 174.253C506.456 183.807 510.314 191.551 515.073 191.551Z" fill="#FDA57D"/>
<g opacity="0.7">
<path opacity="0.7" d="M588.167 350.884H254.833C247.884 350.884 242.251 356.915 242.251 364.355V558.414C242.251 565.854 247.884 571.885 254.833 571.885H588.167C595.116 571.885 600.75 565.854 600.75 558.414V364.355C600.75 356.915 595.116 350.884 588.167 350.884Z" fill="url(#paint3_linear)"/>
</g>
<path d="M570.967 354.963H272.033C259.169 354.963 248.742 366.126 248.742 379.897V546.951C248.742 560.721 259.169 571.885 272.033 571.885H570.967C583.831 571.885 594.258 560.721 594.258 546.951V379.897C594.258 366.126 583.831 354.963 570.967 354.963Z" fill="#535461"/>
<path d="M421.5 475.947C427.956 475.947 433.189 470.344 433.189 463.433C433.189 456.522 427.956 450.92 421.5 450.92C415.044 450.92 409.811 456.522 409.811 463.433C409.811 470.344 415.044 475.947 421.5 475.947Z" fill="white"/>
<path d="M807.273 602.486H35.718V615H807.273V602.486Z" fill="#E0E0E0"/>
<path opacity="0.1" d="M807.273 602.486H35.718V606.658H807.273V602.486Z" fill="black"/>
<path opacity="0.1" d="M763.121 494.025V558.331C763.121 561.926 761.787 565.373 759.412 567.915C757.038 570.457 753.817 571.885 750.46 571.885H756.951C760.308 571.885 763.529 570.457 765.903 567.915C768.278 565.373 769.612 561.926 769.612 558.331V494.025H763.121Z" fill="black"/>
<path d="M722.673 442.205C721.58 442.41 720.339 442.726 719.801 443.766C718.933 445.42 720.495 447.287 721.901 448.411C724.504 450.511 727.246 452.573 729.017 455.5C730.787 458.426 731.342 462.513 729.407 465.328C726.882 468.998 720.859 469.778 720.278 474.293C719.905 477.192 722.239 479.663 724.617 481.112C730.466 484.698 738.007 485.655 742.25 491.266C743.986 487.411 747.926 485.181 751.796 484.224C755.666 483.267 759.762 483.342 763.728 482.701C765.004 482.496 766.444 482.078 767.017 480.843C768.128 478.437 764.969 475.547 766.054 473.132C766.921 471.274 769.316 471.432 771.095 470.698C773.994 469.5 775.183 465.505 774.367 462.337C773.551 459.169 771.226 456.624 768.778 454.571C762.201 448.996 754.286 445.782 746.277 443.422C742.554 442.336 738.18 440.635 734.319 440.459C730.631 440.264 726.37 441.509 722.673 442.205Z" fill="#EEEEEE"/>
<path d="M658.5 61L667.144 87.6028L695.116 87.6028L672.486 104.044L681.13 130.647L658.5 114.206L635.87 130.647L644.514 104.044L621.884 87.6028L649.856 87.6028L658.5 61Z" fill="url(#paint4_linear)"/>
<path d="M212 124C239.539 124 262 101.539 262 73.9998C262 46.4609 239.539 24 212 24C184.461 24 162 46.4609 162 73.9998C162 101.539 184.461 124 212 124Z" fill="#FFC233"/>
<path d="M234.216 107.99L230.321 91.2988C230.321 91.2988 243.648 78.4763 242.154 62.0396C240.66 45.6033 224.097 35.2678 207.287 39.7488C190.476 44.2295 187.692 57.6971 187.613 59.9062C187.534 62.1158 189.605 67.7656 188.11 71.6264C186.615 75.4869 181.262 81.5262 181.76 83.3314C182.258 85.1361 186.865 85.448 186.865 85.448C186.865 85.448 186.919 87.1943 186.307 87.565C185.695 87.9353 186.04 89.3871 187.048 90.1941C188.055 91.0019 189.731 91.5498 189.731 91.5498C189.731 91.5498 187.8 91.9855 188.05 93.3555C188.299 94.7258 188.984 95.4109 190.416 95.4721C191.848 95.5346 192.222 94.8515 192.47 95.5986C192.719 96.3449 192.876 96.4068 192.876 96.4068C192.876 96.4068 191.445 100.112 192.691 102.851C193.937 105.59 195.866 105.593 198.108 105.031C200.35 104.47 204.708 103.225 204.708 103.225L205.901 109.3C207.148 118.143 201.127 122.689 200.999 122.783C204.54 123.578 208.22 124 212 124C223.135 124 233.419 120.359 241.729 114.203C240.927 113.817 234.502 108.276 234.217 107.99H234.216V107.99Z" fill="#4131FD"/>
<path d="M193.102 103.619C194.342 105.584 196.099 105.534 198.108 105.031C200.35 104.469 204.708 103.224 204.708 103.224L205.901 109.3C206.326 112.317 205.905 114.834 205.161 116.845L205.162 116.843C209.325 110.904 206.255 106.365 206.803 104.111C207.351 101.857 216.062 99.725 217.889 98.3236C219.717 96.9223 221.026 93.0549 221.026 93.0549C221.026 93.0549 219.198 95.857 217.249 97.5627C215.3 99.268 200.163 103.714 197.269 104.689C194.522 105.614 193.225 103.803 193.102 103.619Z" fill="#EC4B53"/>
<path d="M203.153 41.1344C213.623 37.2983 226.023 39.3676 233.545 47.06C242.508 56.2268 244.596 72.9065 228.945 90.5559L234.216 107.99L230.321 91.2992C230.321 91.2992 243.648 78.4768 242.154 62.0401C240.66 45.6037 224.097 35.2682 207.287 39.7492C205.801 40.1453 204.427 40.6127 203.153 41.135V41.1344H203.153Z" fill="#EC4B53"/>
<path d="M215.054 47.8945C220.501 47.8945 224.918 52.4076 224.918 57.9744C224.918 61.7416 222.896 65.0256 219.901 66.7555V71.3766C219.901 71.9277 219.46 72.3781 218.921 72.3781H211.691C211.15 72.3781 210.711 71.9281 210.711 71.3766V67.0254C207.442 65.3838 205.192 61.9479 205.192 57.9744C205.192 52.4076 209.608 47.8945 215.055 47.8945H215.054Z" fill="white"/>
<path d="M212.039 72.2463H218.069C218.504 72.2463 218.859 72.5226 218.859 72.8607C218.859 73.1988 218.504 73.4748 218.069 73.4748C218.504 73.4748 218.859 73.7517 218.859 74.0892C218.859 74.4269 218.504 74.7037 218.069 74.7037C218.504 74.7037 218.859 74.9797 218.859 75.3178V75.3182C218.859 75.6562 218.504 75.9322 218.069 75.9322H212.039C211.605 75.9322 211.25 75.6562 211.25 75.3182V75.3178C211.25 74.9797 211.605 74.7037 212.039 74.7037C211.605 74.7037 211.25 74.4267 211.25 74.0892C211.25 73.7512 211.605 73.4748 212.039 73.4748C211.605 73.4748 211.25 73.1984 211.25 72.8607C211.25 72.5226 211.605 72.2463 212.039 72.2463Z" fill="#FBB429"/>
<path d="M212.34 57.7236L213.907 70.4785H215.054H216.202L217.769 57.7236L218.338 57.8127L216.737 70.8484L216.702 71.1293H216.452H215.054H213.656H213.406L213.372 70.8484L211.771 57.8127L212.34 57.7236H212.34Z" fill="#FBB429"/>
<path d="M215.99 56.1002L215.781 57.5273L221.139 56.7268L213.877 59.7576L214.144 57.7947L209.381 58.6982L215.99 56.1002H215.99Z" fill="#FBB429"/>
<path d="M214.588 78.5123V78.6932H213.991V78.5123H213.761C213.533 78.5123 213.335 78.3686 213.242 78.1617H213.224C212.907 78.1617 212.65 77.884 212.65 77.5438C212.65 77.3268 212.754 77.1363 212.912 77.0266H212.029C211.712 77.0266 211.455 76.7492 211.455 76.4086C211.455 76.0688 211.712 75.7914 212.029 75.7914H218.079C218.396 75.7914 218.653 76.0688 218.653 76.4086C218.653 76.7496 218.395 77.0266 218.079 77.0266H217.196C217.354 77.1359 217.458 77.3268 217.458 77.5438C217.458 77.884 217.2 78.1617 216.885 78.1617H216.867C216.773 78.369 216.576 78.5123 216.347 78.5123H216.106V78.6932H215.51V78.5123H214.587H214.588Z" fill="white"/>
<circle cx="268.5" cy="109.5" r="15.5" fill="#4131FD"/>
<circle cx="293" cy="119" r="9" fill="#4131FD"/>
<circle cx="311" cy="129" r="9" fill="#4131FD"/>
</g>
<defs>
<linearGradient id="paint0_linear" x1="55.5382" y1="478.427" x2="160.939" y2="478.427" gradientUnits="userSpaceOnUse">
<stop stop-color="#808080" stop-opacity="0.25"/>
<stop offset="0.54" stop-color="#808080" stop-opacity="0.12"/>
<stop offset="1" stop-color="#808080" stop-opacity="0.1"/>
</linearGradient>
<linearGradient id="paint1_linear" x1="88514.4" y1="63492.8" x2="88514.4" y2="55661.3" gradientUnits="userSpaceOnUse">
<stop stop-color="#808080" stop-opacity="0.25"/>
<stop offset="0.54" stop-color="#808080" stop-opacity="0.12"/>
<stop offset="1" stop-color="#808080" stop-opacity="0.1"/>
</linearGradient>
<linearGradient id="paint2_linear" x1="183697" y1="320796" x2="183697" y2="58720.5" gradientUnits="userSpaceOnUse">
<stop stop-color="#808080" stop-opacity="0.25"/>
<stop offset="0.54" stop-color="#808080" stop-opacity="0.12"/>
<stop offset="1" stop-color="#808080" stop-opacity="0.1"/>
</linearGradient>
<linearGradient id="paint3_linear" x1="174372" y1="136399" x2="174372" y2="83822.8" gradientUnits="userSpaceOnUse">
<stop stop-color="#808080" stop-opacity="0.25"/>
<stop offset="0.54" stop-color="#808080" stop-opacity="0.12"/>
<stop offset="1" stop-color="#808080" stop-opacity="0.1"/>
</linearGradient>
<linearGradient id="paint4_linear" x1="658.5" y1="61" x2="658.5" y2="138" gradientUnits="userSpaceOnUse">
<stop stop-color="#1205A9"/>
<stop offset="1" stop-color="#6C63FF" stop-opacity="0.22"/>
</linearGradient>
<clipPath id="clip0">
<rect width="843" height="615" fill="white"/>
</clipPath>
</defs>
</svg>
