<svg width="121" height="44" viewBox="0 0 121 44" fill="none" xmlns="http://www.w3.org/2000/svg">
<path d="M14 5L2 23.0878L14 38.3333" stroke="#1205A9" stroke-width="3"/>
<path d="M30 20.7895L18 5V38.3333L30 20.7895Z" stroke="#1205A9" stroke-width="3"/>
<path d="M55.54 18.073C55.7233 18.073 55.8773 18.139 56.002 18.271L57.311 19.668C56.6657 20.4893 55.8627 21.1127 54.902 21.538C53.9487 21.9633 52.812 22.176 51.492 22.176C50.2967 22.176 49.2223 21.9743 48.269 21.571C47.3157 21.1603 46.5053 20.592 45.838 19.866C45.1707 19.14 44.6573 18.2783 44.298 17.281C43.9387 16.2837 43.759 15.1947 43.759 14.014C43.759 13.222 43.8433 12.4703 44.012 11.759C44.188 11.0403 44.441 10.3803 44.771 9.779C45.101 9.17767 45.497 8.635 45.959 8.151C46.4283 7.667 46.9563 7.25633 47.543 6.919C48.1297 6.57433 48.7677 6.314 49.457 6.138C50.1537 5.95467 50.8943 5.863 51.679 5.863C52.2657 5.863 52.8193 5.91433 53.34 6.017C53.868 6.11967 54.3593 6.26267 54.814 6.446C55.2687 6.62933 55.6867 6.853 56.068 7.117C56.4567 7.37367 56.805 7.656 57.113 7.964L56.002 9.482C55.936 9.57733 55.8517 9.66167 55.749 9.735C55.6463 9.80833 55.507 9.845 55.331 9.845C55.155 9.845 54.9753 9.78267 54.792 9.658C54.616 9.53333 54.396 9.394 54.132 9.24C53.8753 9.086 53.549 8.94667 53.153 8.822C52.7643 8.69733 52.2693 8.635 51.668 8.635C51.0007 8.635 50.3883 8.756 49.831 8.998C49.2737 9.24 48.7933 9.592 48.39 10.054C47.994 10.5087 47.686 11.0697 47.466 11.737C47.246 12.4043 47.136 13.1633 47.136 14.014C47.136 14.872 47.2533 15.6383 47.488 16.313C47.73 16.9803 48.0563 17.545 48.467 18.007C48.885 18.469 49.369 18.821 49.919 19.063C50.4763 19.2977 51.0703 19.415 51.701 19.415C52.075 19.415 52.4123 19.3967 52.713 19.36C53.021 19.3233 53.3033 19.261 53.56 19.173C53.824 19.085 54.0697 18.9713 54.297 18.832C54.5317 18.6927 54.7663 18.5167 55.001 18.304C55.0817 18.238 55.166 18.183 55.254 18.139C55.342 18.095 55.4373 18.073 55.54 18.073ZM63.6346 10.483C64.4853 10.483 65.259 10.6187 65.9556 10.89C66.6523 11.1613 67.25 11.55 67.7486 12.056C68.2473 12.5547 68.6323 13.1633 68.9036 13.882C69.175 14.6007 69.3106 15.411 69.3106 16.313C69.3106 17.215 69.175 18.029 68.9036 18.755C68.6323 19.4737 68.2473 20.086 67.7486 20.592C67.25 21.098 66.6523 21.4867 65.9556 21.758C65.259 22.0293 64.4853 22.165 63.6346 22.165C62.7766 22.165 61.9956 22.0293 61.2916 21.758C60.595 21.4867 59.9973 21.098 59.4986 20.592C59 20.086 58.6113 19.4737 58.3326 18.755C58.0613 18.029 57.9256 17.215 57.9256 16.313C57.9256 15.411 58.0613 14.6007 58.3326 13.882C58.6113 13.1633 59 12.5547 59.4986 12.056C59.9973 11.55 60.595 11.1613 61.2916 10.89C61.9956 10.6187 62.7766 10.483 63.6346 10.483ZM63.6346 19.888C64.5 19.888 65.1416 19.591 65.5596 18.997C65.9776 18.3957 66.1866 17.5047 66.1866 16.324C66.1866 15.1507 65.9776 14.267 65.5596 13.673C65.1416 13.0717 64.5 12.771 63.6346 12.771C62.7473 12.771 62.0946 13.0717 61.6766 13.673C61.2586 14.267 61.0496 15.1507 61.0496 16.324C61.0496 17.5047 61.2586 18.3957 61.6766 18.997C62.0946 19.591 62.7473 19.888 63.6346 19.888ZM78.2239 13.607C77.9379 13.277 77.6262 13.046 77.2889 12.914C76.9589 12.782 76.6069 12.716 76.2329 12.716C75.8662 12.716 75.5326 12.7857 75.2319 12.925C74.9312 13.0643 74.6709 13.2843 74.4509 13.585C74.2382 13.8783 74.0732 14.256 73.9559 14.718C73.8386 15.18 73.7799 15.73 73.7799 16.368C73.7799 16.9987 73.8276 17.534 73.9229 17.974C74.0182 18.414 74.1539 18.7697 74.3299 19.041C74.5132 19.3123 74.7332 19.5103 74.9899 19.635C75.2466 19.7523 75.5326 19.811 75.8479 19.811C76.3832 19.811 76.8306 19.7047 77.1899 19.492C77.5566 19.2793 77.9012 18.9787 78.2239 18.59V13.607ZM81.2599 5.599V22H79.3899C79.0012 22 78.7519 21.824 78.6419 21.472L78.3889 20.482C78.1616 20.7313 77.9196 20.9587 77.6629 21.164C77.4136 21.3693 77.1422 21.549 76.8489 21.703C76.5556 21.8497 76.2402 21.9633 75.9029 22.044C75.5656 22.1247 75.1989 22.165 74.8029 22.165C74.1942 22.165 73.6369 22.0367 73.1309 21.78C72.6249 21.5233 72.1849 21.1493 71.8109 20.658C71.4442 20.1593 71.1582 19.5507 70.9529 18.832C70.7476 18.1133 70.6449 17.292 70.6449 16.368C70.6449 15.5247 70.7586 14.74 70.9859 14.014C71.2206 13.288 71.5506 12.661 71.9759 12.133C72.4012 11.605 72.9146 11.1907 73.5159 10.89C74.1172 10.5893 74.7846 10.439 75.5179 10.439C76.1339 10.439 76.6509 10.5307 77.0689 10.714C77.4942 10.8973 77.8792 11.1467 78.2239 11.462V5.599H81.2599ZM90.9793 14.993C90.9793 14.6777 90.9353 14.377 90.8473 14.091C90.7666 13.805 90.6346 13.552 90.4513 13.332C90.2679 13.112 90.0369 12.9397 89.7583 12.815C89.4796 12.683 89.1459 12.617 88.7573 12.617C88.0313 12.617 87.4629 12.8223 87.0523 13.233C86.6416 13.6437 86.3739 14.2303 86.2493 14.993H90.9793ZM86.2053 16.797C86.3006 17.8603 86.6013 18.6377 87.1073 19.129C87.6206 19.6203 88.2879 19.866 89.1093 19.866C89.5273 19.866 89.8866 19.8183 90.1873 19.723C90.4953 19.6203 90.7629 19.5103 90.9903 19.393C91.2249 19.2683 91.4339 19.1583 91.6173 19.063C91.8079 18.9603 91.9949 18.909 92.1783 18.909C92.4129 18.909 92.5963 18.997 92.7283 19.173L93.6083 20.273C93.2856 20.647 92.9299 20.9587 92.5413 21.208C92.1526 21.45 91.7493 21.6443 91.3313 21.791C90.9133 21.9303 90.4916 22.0257 90.0663 22.077C89.6409 22.1357 89.2303 22.165 88.8343 22.165C88.0423 22.165 87.3016 22.0367 86.6123 21.78C85.9303 21.516 85.3326 21.131 84.8193 20.625C84.3133 20.1117 83.9136 19.4773 83.6203 18.722C83.3269 17.9667 83.1803 17.0903 83.1803 16.093C83.1803 15.323 83.3049 14.597 83.5543 13.915C83.8109 13.233 84.1776 12.639 84.6543 12.133C85.1309 11.627 85.7103 11.2273 86.3923 10.934C87.0743 10.6333 87.8443 10.483 88.7023 10.483C89.4283 10.483 90.0956 10.6003 90.7043 10.835C91.3203 11.0623 91.8483 11.396 92.2883 11.836C92.7356 12.276 93.0803 12.8187 93.3223 13.464C93.5716 14.102 93.6963 14.8317 93.6963 15.653C93.6963 15.8803 93.6853 16.0673 93.6633 16.214C93.6413 16.3607 93.6046 16.478 93.5533 16.566C93.5019 16.654 93.4323 16.7163 93.3443 16.753C93.2563 16.7823 93.1426 16.797 93.0033 16.797H86.2053ZM104.794 14.707C104.288 15.0737 103.925 15.477 103.705 15.917C103.485 16.357 103.375 16.8227 103.375 17.314C103.375 17.6953 103.437 18.04 103.562 18.348C103.687 18.6487 103.859 18.909 104.079 19.129C104.299 19.3417 104.559 19.5067 104.86 19.624C105.161 19.7413 105.483 19.8 105.828 19.8C106.4 19.8 106.928 19.7193 107.412 19.558C107.903 19.3893 108.351 19.151 108.754 18.843L104.794 14.707ZM115.563 22H112.582C112.428 22 112.289 21.9927 112.164 21.978C112.047 21.9633 111.937 21.934 111.834 21.89C111.731 21.846 111.632 21.7873 111.537 21.714C111.442 21.6407 111.343 21.549 111.24 21.439L110.338 20.493C109.634 21.0283 108.857 21.4427 108.006 21.736C107.163 22.0293 106.257 22.176 105.289 22.176C104.666 22.176 104.053 22.0697 103.452 21.857C102.851 21.637 102.315 21.329 101.846 20.933C101.377 20.5297 100.999 20.0457 100.713 19.481C100.427 18.909 100.284 18.2673 100.284 17.556C100.284 17.0647 100.361 16.599 100.515 16.159C100.669 15.719 100.885 15.312 101.164 14.938C101.45 14.564 101.784 14.223 102.165 13.915C102.554 13.607 102.979 13.343 103.441 13.123C103.067 12.5803 102.796 12.0523 102.627 11.539C102.466 11.0183 102.385 10.505 102.385 9.999C102.385 9.44167 102.488 8.91367 102.693 8.415C102.898 7.909 103.195 7.469 103.584 7.095C103.973 6.71367 104.449 6.413 105.014 6.193C105.586 5.973 106.235 5.863 106.961 5.863C107.636 5.863 108.237 5.96567 108.765 6.171C109.293 6.369 109.74 6.63667 110.107 6.974C110.474 7.31133 110.76 7.69633 110.965 8.129C111.178 8.56167 111.306 9.01267 111.35 9.482L109.414 9.878C109.055 9.95133 108.794 9.80467 108.633 9.438C108.486 9.05667 108.281 8.745 108.017 8.503C107.76 8.25367 107.408 8.129 106.961 8.129C106.682 8.129 106.433 8.18033 106.213 8.283C105.993 8.37833 105.806 8.51033 105.652 8.679C105.505 8.84767 105.392 9.04567 105.311 9.273C105.238 9.493 105.201 9.72767 105.201 9.977C105.201 10.1823 105.219 10.3803 105.256 10.571C105.3 10.7617 105.366 10.956 105.454 11.154C105.549 11.3447 105.674 11.5427 105.828 11.748C105.982 11.9533 106.169 12.1733 106.389 12.408L110.492 16.698C110.719 16.2507 110.899 15.7813 111.031 15.29C111.163 14.7913 111.251 14.2817 111.295 13.761C111.317 13.5703 111.379 13.42 111.482 13.31C111.592 13.2 111.739 13.145 111.922 13.145H113.825C113.825 14.157 113.682 15.114 113.396 16.016C113.117 16.918 112.725 17.7467 112.219 18.502L115.563 22ZM58.983 32.014C58.983 33.18 58.785 34.2543 58.389 35.237C58.0003 36.2123 57.4467 37.052 56.728 37.756C56.0167 38.46 55.1587 39.01 54.154 39.406C53.1493 39.802 52.0347 40 50.81 40H44.672V24.039H50.81C52.0347 24.039 53.1493 24.237 54.154 24.633C55.1587 25.029 56.0167 25.5827 56.728 26.294C57.4467 26.998 58.0003 27.8377 58.389 28.813C58.785 29.7883 58.983 30.8553 58.983 32.014ZM55.595 32.014C55.595 31.178 55.485 30.4263 55.265 29.759C55.045 29.0917 54.7297 28.527 54.319 28.065C53.9083 27.603 53.406 27.2473 52.812 26.998C52.2253 26.7487 51.558 26.624 50.81 26.624H47.994V37.415H50.81C51.558 37.415 52.2253 37.294 52.812 37.052C53.406 36.8027 53.9083 36.447 54.319 35.985C54.7297 35.5157 55.045 34.9473 55.265 34.28C55.485 33.6127 55.595 32.8573 55.595 32.014ZM68.0554 32.993C68.0554 32.6777 68.0114 32.377 67.9234 32.091C67.8428 31.805 67.7108 31.552 67.5274 31.332C67.3441 31.112 67.1131 30.9397 66.8344 30.815C66.5558 30.683 66.2221 30.617 65.8334 30.617C65.1074 30.617 64.5391 30.8223 64.1284 31.233C63.7178 31.6437 63.4501 32.2303 63.3254 32.993H68.0554ZM63.2814 34.797C63.3768 35.8603 63.6774 36.6377 64.1834 37.129C64.6968 37.6203 65.3641 37.866 66.1854 37.866C66.6034 37.866 66.9628 37.8183 67.2634 37.723C67.5714 37.6203 67.8391 37.5103 68.0664 37.393C68.3011 37.2683 68.5101 37.1583 68.6934 37.063C68.8841 36.9603 69.0711 36.909 69.2544 36.909C69.4891 36.909 69.6724 36.997 69.8044 37.173L70.6844 38.273C70.3618 38.647 70.0061 38.9587 69.6174 39.208C69.2288 39.45 68.8254 39.6443 68.4074 39.791C67.9894 39.9303 67.5678 40.0257 67.1424 40.077C66.7171 40.1357 66.3064 40.165 65.9104 40.165C65.1184 40.165 64.3778 40.0367 63.6884 39.78C63.0064 39.516 62.4088 39.131 61.8954 38.625C61.3894 38.1117 60.9898 37.4773 60.6964 36.722C60.4031 35.9667 60.2564 35.0903 60.2564 34.093C60.2564 33.323 60.3811 32.597 60.6304 31.915C60.8871 31.233 61.2538 30.639 61.7304 30.133C62.2071 29.627 62.7864 29.2273 63.4684 28.934C64.1504 28.6333 64.9204 28.483 65.7784 28.483C66.5044 28.483 67.1718 28.6003 67.7804 28.835C68.3964 29.0623 68.9244 29.396 69.3644 29.836C69.8118 30.276 70.1564 30.8187 70.3984 31.464C70.6478 32.102 70.7724 32.8317 70.7724 33.653C70.7724 33.8803 70.7614 34.0673 70.7394 34.214C70.7174 34.3607 70.6808 34.478 70.6294 34.566C70.5781 34.654 70.5084 34.7163 70.4204 34.753C70.3324 34.7823 70.2188 34.797 70.0794 34.797H63.2814ZM79.7073 30.991C79.6267 31.1157 79.5423 31.2073 79.4543 31.266C79.3737 31.3173 79.26 31.343 79.1133 31.343C78.9667 31.343 78.8163 31.3063 78.6623 31.233C78.5083 31.1597 78.336 31.0827 78.1453 31.002C77.9547 30.914 77.7347 30.8333 77.4853 30.76C77.2433 30.6867 76.961 30.65 76.6383 30.65C76.147 30.65 75.7657 30.7527 75.4943 30.958C75.223 31.156 75.0873 31.42 75.0873 31.75C75.0873 31.9773 75.1643 32.168 75.3183 32.322C75.4723 32.476 75.674 32.6117 75.9233 32.729C76.18 32.839 76.4697 32.9453 76.7923 33.048C77.115 33.1433 77.445 33.2497 77.7823 33.367C78.127 33.4843 78.4607 33.62 78.7833 33.774C79.106 33.928 79.392 34.1223 79.6413 34.357C79.898 34.5843 80.1033 34.863 80.2573 35.193C80.4113 35.5157 80.4883 35.908 80.4883 36.37C80.4883 36.92 80.3857 37.4297 80.1803 37.899C79.9823 38.361 79.689 38.7607 79.3003 39.098C78.9117 39.4353 78.4277 39.6993 77.8483 39.89C77.269 40.0807 76.6017 40.176 75.8463 40.176C75.4577 40.176 75.0727 40.1393 74.6913 40.066C74.31 40 73.947 39.9047 73.6023 39.78C73.2577 39.648 72.935 39.4977 72.6343 39.329C72.3337 39.1603 72.0733 38.977 71.8533 38.779L72.5573 37.646C72.638 37.514 72.737 37.4113 72.8543 37.338C72.979 37.2647 73.1367 37.228 73.3273 37.228C73.5107 37.228 73.6793 37.2757 73.8333 37.371C73.9873 37.459 74.1597 37.558 74.3503 37.668C74.541 37.7707 74.7647 37.8697 75.0213 37.965C75.2853 38.053 75.6117 38.097 76.0003 38.097C76.2937 38.097 76.5467 38.064 76.7593 37.998C76.972 37.932 77.1443 37.844 77.2763 37.734C77.4083 37.6167 77.5037 37.4883 77.5623 37.349C77.6283 37.2023 77.6613 37.052 77.6613 36.898C77.6613 36.6487 77.5807 36.447 77.4193 36.293C77.2653 36.1317 77.06 35.9923 76.8033 35.875C76.554 35.7577 76.2643 35.6513 75.9343 35.556C75.6043 35.4607 75.267 35.3543 74.9223 35.237C74.585 35.1197 74.2513 34.9803 73.9213 34.819C73.5987 34.6577 73.309 34.456 73.0523 34.214C72.803 33.9647 72.5977 33.6603 72.4363 33.301C72.2823 32.9417 72.2053 32.5053 72.2053 31.992C72.2053 31.5227 72.297 31.079 72.4803 30.661C72.6637 30.2357 72.9387 29.8617 73.3053 29.539C73.672 29.2163 74.1267 28.9597 74.6693 28.769C75.2193 28.5783 75.8537 28.483 76.5723 28.483C77.379 28.483 78.1123 28.615 78.7723 28.879C79.4323 29.143 79.975 29.4877 80.4003 29.913L79.7073 30.991ZM85.5128 28.659V40H82.4768V28.659H85.5128ZM85.8758 25.436C85.8758 25.6927 85.8244 25.931 85.7218 26.151C85.6191 26.371 85.4798 26.5653 85.3038 26.734C85.1351 26.9027 84.9334 27.0347 84.6988 27.13C84.4714 27.2253 84.2258 27.273 83.9618 27.273C83.7124 27.273 83.4741 27.2253 83.2468 27.13C83.0268 27.0347 82.8324 26.9027 82.6638 26.734C82.4951 26.5653 82.3594 26.371 82.2568 26.151C82.1614 25.931 82.1138 25.6927 82.1138 25.436C82.1138 25.1793 82.1614 24.941 82.2568 24.721C82.3594 24.4937 82.4951 24.2957 82.6638 24.127C82.8324 23.9583 83.0268 23.8263 83.2468 23.731C83.4741 23.6357 83.7124 23.588 83.9618 23.588C84.2258 23.588 84.4714 23.6357 84.6988 23.731C84.9334 23.8263 85.1351 23.9583 85.3038 24.127C85.4798 24.2957 85.6191 24.4937 85.7218 24.721C85.8244 24.941 85.8758 25.1793 85.8758 25.436ZM92.3276 33.906C92.9509 33.906 93.4093 33.7483 93.7026 33.433C94.0033 33.1177 94.1536 32.7107 94.1536 32.212C94.1536 31.6913 94.0033 31.2843 93.7026 30.991C93.4093 30.6903 92.9509 30.54 92.3276 30.54C91.7043 30.54 91.2459 30.6903 90.9526 30.991C90.6593 31.2843 90.5126 31.6913 90.5126 32.212C90.5126 32.7033 90.6593 33.1103 90.9526 33.433C91.2533 33.7483 91.7116 33.906 92.3276 33.906ZM95.1986 40.462C95.1986 40.264 95.1363 40.1027 95.0116 39.978C94.8869 39.8533 94.7183 39.7543 94.5056 39.681C94.3003 39.6077 94.0546 39.5563 93.7686 39.527C93.4826 39.4903 93.1783 39.4647 92.8556 39.45C92.5329 39.428 92.1993 39.4097 91.8546 39.395C91.5099 39.3803 91.1726 39.3547 90.8426 39.318C90.5859 39.472 90.3733 39.6553 90.2046 39.868C90.0433 40.0733 89.9626 40.308 89.9626 40.572C89.9626 40.7553 90.0029 40.924 90.0836 41.078C90.1716 41.232 90.3146 41.364 90.5126 41.474C90.7106 41.584 90.9709 41.6683 91.2936 41.727C91.6163 41.793 92.0196 41.826 92.5036 41.826C93.0023 41.826 93.4239 41.793 93.7686 41.727C94.1133 41.661 94.3919 41.5657 94.6046 41.441C94.8173 41.3237 94.9676 41.1807 95.0556 41.012C95.1509 40.8433 95.1986 40.66 95.1986 40.462ZM98.2126 29.033V30.144C98.2126 30.32 98.1613 30.4593 98.0586 30.562C97.9633 30.6647 97.8019 30.7417 97.5746 30.793L96.6506 30.98C96.7753 31.3393 96.8376 31.7243 96.8376 32.135C96.8376 32.6997 96.7203 33.2093 96.4856 33.664C96.2583 34.1113 95.9429 34.4963 95.5396 34.819C95.1363 35.1343 94.6596 35.38 94.1096 35.556C93.5596 35.7247 92.9656 35.809 92.3276 35.809C91.9243 35.809 91.5466 35.776 91.1946 35.71C90.8866 35.9007 90.7326 36.1097 90.7326 36.337C90.7326 36.5497 90.8353 36.7037 91.0406 36.799C91.2533 36.8943 91.5283 36.964 91.8656 37.008C92.2103 37.0447 92.5989 37.0703 93.0316 37.085C93.4716 37.0923 93.9153 37.1143 94.3626 37.151C94.8173 37.1877 95.2609 37.2537 95.6936 37.349C96.1336 37.437 96.5223 37.5873 96.8596 37.8C97.2043 38.0053 97.4793 38.2803 97.6846 38.625C97.8973 38.9697 98.0036 39.4133 98.0036 39.956C98.0036 40.462 97.8789 40.9533 97.6296 41.43C97.3803 41.9067 97.0173 42.332 96.5406 42.706C96.0713 43.08 95.4919 43.3807 94.8026 43.608C94.1133 43.8353 93.3286 43.949 92.4486 43.949C91.5759 43.949 90.8169 43.8647 90.1716 43.696C89.5336 43.5347 89.0019 43.3147 88.5766 43.036C88.1586 42.7647 87.8469 42.4493 87.6416 42.09C87.4363 41.7307 87.3336 41.3567 87.3336 40.968C87.3336 40.462 87.4876 40.033 87.7956 39.681C88.1036 39.329 88.5289 39.0467 89.0716 38.834C88.7856 38.6727 88.5546 38.4637 88.3786 38.207C88.2099 37.943 88.1256 37.602 88.1256 37.184C88.1256 36.8467 88.2466 36.491 88.4886 36.117C88.7379 35.743 89.1193 35.4313 89.6326 35.182C89.0533 34.874 88.5949 34.4633 88.2576 33.95C87.9203 33.4293 87.7516 32.8243 87.7516 32.135C87.7516 31.5703 87.8653 31.0607 88.0926 30.606C88.3273 30.1513 88.6499 29.7663 89.0606 29.451C89.4713 29.1283 89.9553 28.8827 90.5126 28.714C91.0699 28.5453 91.6749 28.461 92.3276 28.461C93.2956 28.461 94.1499 28.6517 94.8906 29.033H98.2126ZM102.607 29.979C102.834 29.759 103.069 29.5573 103.311 29.374C103.56 29.1907 103.821 29.033 104.092 28.901C104.371 28.769 104.668 28.6663 104.983 28.593C105.306 28.5197 105.654 28.483 106.028 28.483C106.644 28.483 107.19 28.5893 107.667 28.802C108.144 29.0147 108.543 29.3117 108.866 29.693C109.196 30.0743 109.442 30.529 109.603 31.057C109.772 31.585 109.856 32.1643 109.856 32.795V40H106.831V32.795C106.831 32.1643 106.684 31.6767 106.391 31.332C106.098 30.98 105.665 30.804 105.093 30.804C104.668 30.804 104.268 30.8957 103.894 31.079C103.52 31.2623 103.164 31.519 102.827 31.849V40H99.7911V28.659H101.661C102.042 28.659 102.295 28.835 102.42 29.187L102.607 29.979Z" fill="#1205A9"/>
</svg>
