<svg viewBox="0 0 1440 234" fill="none" xmlns="http://www.w3.org/2000/svg">
<rect width="1440" height="234" fill="#1205A9"/>
<path d="M955 229C955 229 1006.73 141.3 1061.2 106.43C1126.4 64.6952 1191.19 99.2927 1257.43 58.9981C1284.95 42.2539 1291.11 20.2673 1321.15 7.80969C1363.53 -9.76211 1440 7.80969 1440 7.80969V229H955Z" fill="#1C0BE1"/>
<path d="M485 229C485 229 433.268 141.3 378.796 106.43C313.602 64.6952 248.806 99.2927 182.57 58.9981C155.046 42.2539 148.893 20.2673 118.848 7.80969C76.4676 -9.76211 -3.05176e-05 7.80969 -3.05176e-05 7.80969V229H485Z" fill="#1C0BE1"/>
</svg>
