<svg viewBox="0 0 1440 544" fill="none" xmlns="http://www.w3.org/2000/svg">
<rect width="1440" height="544" fill="#1205A9"/>
<path d="M824.127 343.998C824.127 343.998 889.819 256.299 958.99 221.429C1041.78 179.695 1124.06 214.292 1208.16 173.998C1243.12 157.254 1250.93 135.267 1289.08 122.81C1342.9 105.238 1440 122.81 1440 122.81V343.998H824.127Z" fill="#1C0BE1"/>
<path d="M1440 343.998H824.127C824.127 343.998 685.389 415.254 584.762 435.998C455.232 462.7 374.831 423.342 241.905 435.998C146.073 445.122 0 475.998 0 475.998C0 475.998 355.848 508.333 584.762 507.997C920.656 507.505 1440 435.998 1440 435.998V343.998Z" fill="#1C0BE1"/>
<path d="M56 106.31C56 106.31 613.793 34.5014 623.404 183.4C627.23 242.665 529.066 267.333 543.499 325.884C553.657 367.09 759 395 759 395" stroke="#1C0BE1" stroke-width="20"/>
</svg>
