<svg width="100" height="100" viewBox="0 0 100 100" fill="none" xmlns="http://www.w3.org/2000/svg">
<g filter="url(#filter0_d)">
<circle cx="50" cy="46" r="30" fill="#1205A9"/>
<path d="M60.5283 52.6689C60.3934 52.6689 60.2586 52.6196 60.1533 52.5198L53.8449 46.6017C53.6245 46.3956 53.6136 46.0481 53.8208 45.8277C54.028 45.6051 54.3734 45.5953 54.5959 45.8036L60.9043 51.7217C61.1247 51.9278 61.1356 52.2753 60.9284 52.4957C60.8199 52.6108 60.6752 52.6689 60.5283 52.6689Z" fill="#F2F2F2"/>
<path d="M39.4707 52.6686C39.3248 52.6686 39.179 52.6105 39.0705 52.4954C38.8633 52.2751 38.8742 51.9275 39.0946 51.7214L45.4052 45.8033C45.6267 45.5972 45.9742 45.606 46.1803 45.8274C46.3875 46.0478 46.3766 46.3953 46.1562 46.6014L39.8456 52.5195C39.7404 52.6193 39.6055 52.6686 39.4707 52.6686Z" fill="#F2F2F2"/>
<path d="M64.2591 58.1712H35.7409C34.2301 58.1712 33 56.9422 33 55.4303V36.7409C33 35.229 34.2301 34 35.7409 34H64.2591C65.7699 34 67 35.229 67 36.7409V55.4303C67 56.9422 65.7699 58.1712 64.2591 58.1712ZM35.7409 35.0963C34.8342 35.0963 34.0963 35.8342 34.0963 36.7409V55.4303C34.0963 56.337 34.8342 57.0749 35.7409 57.0749H64.2591C65.1658 57.0749 65.9037 56.337 65.9037 55.4303V36.7409C65.9037 35.8342 65.1658 35.0963 64.2591 35.0963H35.7409Z" fill="#F2F2F2"/>
<path d="M50 48.8402C49.2709 48.8402 48.5419 48.5979 47.9871 48.1144L33.91 35.8342C33.6819 35.6357 33.6578 35.2893 33.8563 35.0601C34.0569 34.8321 34.4022 34.8113 34.6303 35.0075L48.7074 47.2866C49.408 47.8973 50.592 47.8973 51.2915 47.2866L65.3511 35.0273C65.578 34.8288 65.9234 34.8507 66.1251 35.0799C66.3236 35.309 66.3005 35.6544 66.0725 35.8539L52.0129 48.1133C51.4571 48.5979 50.7291 48.8402 50 48.8402Z" fill="#F2F2F2"/>
</g>
<defs>
<filter id="filter0_d" x="0" y="0" width="100" height="100" filterUnits="userSpaceOnUse" color-interpolation-filters="sRGB">
<feFlood flood-opacity="0" result="BackgroundImageFix"/>
<feColorMatrix in="SourceAlpha" type="matrix" values="0 0 0 0 0 0 0 0 0 0 0 0 0 0 0 0 0 0 127 0"/>
<feOffset dy="4"/>
<feGaussianBlur stdDeviation="10"/>
<feColorMatrix type="matrix" values="0 0 0 0 0.0709926 0 0 0 0 0.0193818 0 0 0 0 0.664518 0 0 0 0.5 0"/>
<feBlend mode="normal" in2="BackgroundImageFix" result="effect1_dropShadow"/>
<feBlend mode="normal" in="SourceGraphic" in2="effect1_dropShadow" result="shape"/>
</filter>
</defs>
</svg>
