<svg width="139" height="150" viewBox="0 0 139 150" fill="none" xmlns="http://www.w3.org/2000/svg">
<g clip-path="url(#clip0)">
<path d="M74.9783 150C110.337 150 139 121.278 139 85.8483C139 50.4182 110.337 21.6965 74.9783 21.6965C39.6201 21.6965 10.9567 50.4182 10.9567 85.8483C10.9567 121.278 39.6201 150 74.9783 150Z" fill="#F2F2F2"/>
<path d="M37.5925 74.504C38.0492 73.7052 38.2852 72.7989 38.2761 71.8784C38.2761 69.5055 36.8097 67.582 35.0008 67.582C33.1919 67.582 31.7255 69.5055 31.7255 71.8784C31.7164 72.7989 31.9524 73.7052 32.4091 74.504C31.9608 75.3062 31.7255 76.2102 31.7255 77.1295C31.7255 78.0489 31.9608 78.9529 32.4091 79.7551C31.9608 80.5573 31.7255 81.4613 31.7255 82.3807C31.7255 83.3001 31.9608 84.2041 32.4091 85.0063C31.9608 85.8085 31.7255 86.7125 31.7255 87.6319C31.7255 88.5513 31.9608 89.4553 32.4091 90.2575C31.9524 91.0562 31.7164 91.9625 31.7255 92.883C31.7255 95.2559 33.1919 97.1795 35.0008 97.1795C36.8097 97.1795 38.2761 95.2559 38.2761 92.883C38.2852 91.9625 38.0492 91.0562 37.5925 90.2575C38.0408 89.4553 38.2761 88.5513 38.2761 87.6319C38.2761 86.7125 38.0408 85.8085 37.5925 85.0063C38.0408 84.2041 38.2761 83.3001 38.2761 82.3807C38.2761 81.4613 38.0408 80.5573 37.5925 79.7551C38.0408 78.9529 38.2761 78.0489 38.2761 77.1295C38.2761 76.2102 38.0408 75.3062 37.5925 74.504Z" fill="#3F3D56"/>
<path d="M35.001 70.9236C36.8099 70.9236 38.2763 69.0001 38.2763 66.6272C38.2763 64.2544 36.8099 62.3308 35.001 62.3308C33.1921 62.3308 31.7256 64.2544 31.7256 66.6272C31.7256 69.0001 33.1921 70.9236 35.001 70.9236Z" fill="#3F3D56"/>
<path d="M35.001 65.6724C36.8099 65.6724 38.2763 63.7489 38.2763 61.376C38.2763 59.0032 36.8099 57.0796 35.001 57.0796C33.1921 57.0796 31.7256 59.0032 31.7256 61.376C31.7256 63.7489 33.1921 65.6724 35.001 65.6724Z" fill="#3F3D56"/>
<path d="M47.2621 25.4406C47.7096 24.8697 48.1172 24.2686 48.4819 23.6414L39.8757 22.2251L49.1835 22.2945C50.0764 20.3478 50.5636 18.239 50.6151 16.0972C50.6666 13.9554 50.2814 11.8255 49.4832 9.83801L36.9956 16.3291L48.512 7.84646C47.4331 5.97822 45.9818 4.35261 44.2485 3.07091C42.5153 1.78921 40.5372 0.878863 38.4375 0.396591C36.3379 -0.0856815 34.1616 -0.129551 32.0442 0.267715C29.9269 0.664981 27.9139 1.49487 26.1306 2.70569C24.3473 3.91651 22.8319 5.48231 21.6789 7.30556C20.5258 9.12881 19.7598 11.1704 19.4285 13.3033C19.0973 15.4361 19.2078 17.6144 19.7534 19.7026C20.2989 21.7907 21.2677 23.7439 22.5994 25.4406C21.9019 26.329 21.302 27.2902 20.8101 28.3075L31.9816 34.1232L20.0697 30.1173C19.2333 32.5948 19.0266 35.2421 19.4683 37.8198C19.91 40.3975 20.9862 42.8242 22.5994 44.8802C20.7791 47.1991 19.6468 49.9844 19.3319 52.9177C19.017 55.851 19.5321 58.814 20.8185 61.4677C22.1048 64.1215 24.1105 66.359 26.6061 67.9244C29.1017 69.4899 31.9865 70.32 34.9308 70.32C37.875 70.32 40.7599 69.4899 43.2555 67.9244C45.7511 66.359 47.7567 64.1215 49.043 61.4677C50.3294 58.814 50.8445 55.851 50.5296 52.9177C50.2147 49.9844 49.0824 47.1991 47.2621 44.8802C49.4372 42.1091 50.6196 38.6859 50.6196 35.1604C50.6196 31.6349 49.4372 28.2117 47.2621 25.4406L47.2621 25.4406Z" fill="#1205A9"/>
<path opacity="0.1" d="M19.2419 35.1604C19.2365 38.6868 20.4195 42.1117 22.5994 44.8802C20.7792 47.1991 19.6468 49.9844 19.3319 52.9177C19.017 55.8511 19.5321 58.814 20.8185 61.4678C22.1048 64.1215 24.1105 66.359 26.6061 67.9245C29.1017 69.4899 31.9865 70.3201 34.9308 70.3201C37.875 70.3201 40.7599 69.4899 43.2555 67.9245C45.7511 66.359 47.7567 64.1215 49.0431 61.4678C50.3294 58.814 50.8446 55.8511 50.5296 52.9177C50.2147 49.9844 49.0824 47.1991 47.2622 44.8802C49.3649 42.2053 19.2419 33.396 19.2419 35.1604Z" fill="black"/>
<path d="M121.106 128.225C117.046 142.721 85.7199 156.167 52.407 146.799C19.0941 137.431 -3.59037 108.798 0.469533 94.3018C4.52943 79.8053 33.7963 84.9351 67.1092 94.3027C100.422 103.67 125.166 113.729 121.106 128.225Z" fill="#3F3D56"/>
<path opacity="0.1" d="M121.106 128.225C117.046 142.721 85.7199 156.167 52.407 146.799C19.0941 137.431 -3.59037 108.798 0.469533 94.3018C4.52943 79.8053 33.7963 84.9351 67.1092 94.3027C100.422 103.67 125.166 113.729 121.106 128.225Z" fill="black"/>
<path d="M121.106 128.225C125.166 113.729 101.452 94.383 68.1391 85.0153C34.8261 75.6477 4.52945 79.8053 0.469548 94.3018C-3.59036 108.798 20.1239 128.144 53.4369 137.512C86.7498 146.879 117.046 142.722 121.106 128.225Z" fill="#3F3D56"/>
<path opacity="0.1" d="M50.6055 117.494C60.7485 117.494 68.971 115.107 68.971 112.162C68.971 109.218 60.7485 106.831 50.6055 106.831C40.4626 106.831 32.2401 109.218 32.2401 112.162C32.2401 115.107 40.4626 117.494 50.6055 117.494Z" fill="black"/>
<path d="M73.22 81.4806L49.9915 104.756L40.2284 94.9733C39.6025 94.3462 38.7537 93.9938 37.8685 93.9938C36.9834 93.9938 36.1345 94.3462 35.5086 94.9733L35.1579 94.4477C33.8545 95.7536 34.2053 98.3967 35.5086 99.7027L48.1761 112.396C48.6535 112.874 49.3009 113.143 49.976 113.143C50.6512 113.143 51.2988 112.875 51.7764 112.397L77.9374 86.21C79.2416 84.9045 79.7147 82.5107 78.4112 81.2046C77.1082 79.8989 74.523 80.1749 73.22 81.4806Z" fill="#57B894"/>
<path opacity="0.1" d="M73.22 81.4806L49.9915 104.756L40.2284 94.9733C39.6025 94.3462 38.7537 93.9938 37.8685 93.9938C36.9834 93.9938 36.1345 94.3462 35.5086 94.9733L35.1579 94.4477C33.8545 95.7536 34.2053 98.3967 35.5086 99.7027L48.1761 112.396C48.6535 112.874 49.3009 113.143 49.976 113.143C50.6512 113.143 51.2988 112.875 51.7764 112.397L77.9374 86.21C79.2416 84.9045 79.7147 82.5107 78.4112 81.2046C77.1082 79.8989 74.523 80.1749 73.22 81.4806Z" fill="black"/>
<path d="M73.22 80.4486L49.9915 103.724L40.2284 93.9414C39.6025 93.3142 38.7537 92.9619 37.8685 92.9619C36.9834 92.9619 36.1345 93.3142 35.5086 93.9414C35.1987 94.2519 34.9529 94.6206 34.7852 95.0263C34.6175 95.4321 34.5311 95.8669 34.5311 96.3061C34.5311 96.7453 34.6175 97.1801 34.7852 97.5859C34.9529 97.9916 35.1987 98.3602 35.5086 98.6708L48.1761 111.364C48.6535 111.842 49.3009 112.111 49.9761 112.111C50.6512 112.111 51.2988 111.843 51.7764 111.365L77.9374 85.178C78.2475 84.8676 78.4935 84.4991 78.6614 84.0934C78.8293 83.6876 78.9158 83.2528 78.9159 82.8136C78.916 82.3744 78.8298 81.9394 78.6621 81.5336C78.4944 81.1279 78.2486 80.7591 77.9386 80.4486C77.3129 79.8216 76.4642 79.4694 75.5793 79.4694C74.6944 79.4694 73.8457 79.8216 73.22 80.4486Z" fill="#00FC9E"/>
<path d="M84.5313 120.07C84.5313 120.07 82.454 120.694 81.4153 121.943C81.4153 121.943 79.5457 122.776 78.4032 122.568C77.2606 122.359 75.1833 124.441 76.8452 125.065C78.507 125.69 88.686 127.355 88.8937 126.835C89.1015 126.314 89.1014 121.006 89.1014 121.006L84.5313 120.07Z" fill="#1205A9"/>
<path d="M100.849 119.176C100.849 119.176 98.9086 120.147 98.0981 121.555C98.0981 121.555 96.3979 122.695 95.2367 122.686C94.0755 122.676 92.3835 125.083 94.1274 125.414C95.8713 125.745 106.184 125.643 106.3 125.095C106.416 124.547 105.512 119.317 105.512 119.317L100.849 119.176Z" fill="#1205A9"/>
<path d="M87.907 48.6202C90.4884 48.6202 92.581 46.5233 92.581 43.9367C92.581 41.3501 90.4884 39.2532 87.907 39.2532C85.3256 39.2532 83.233 41.3501 83.233 43.9367C83.233 46.5233 85.3256 48.6202 87.907 48.6202Z" fill="#FFB9B9"/>
<path d="M91.6981 44.7173C91.6981 44.7173 92.2175 48.2559 93.1523 48.6722C93.8027 48.993 94.3985 49.4145 94.918 49.9212L92.3213 51.1701L87.2319 50.8579C87.2319 50.8579 87.6474 48.5682 86.9203 47.4233C86.1932 46.2785 91.6981 44.7173 91.6981 44.7173Z" fill="#FFB9B9"/>
<path d="M101.358 61.4738C101.358 61.4738 103.747 67.6144 101.358 73.5468C98.9689 79.4793 97.9302 80.416 97.9302 80.416L97.2031 72.6101L98.0392 71.8501C98.0392 71.8501 98.5454 69.482 98.1339 68.0798C97.7225 66.6777 98.3457 62.3064 98.3457 62.3064L101.358 61.4738Z" fill="#FFB9B9"/>
<path d="M83.4927 74.7958C83.4927 74.7958 80.4806 81.665 80.7922 84.9955C81.1038 88.326 83.4927 102.376 83.4927 102.376C83.4927 102.376 83.1811 120.486 84.1159 120.486C85.0507 120.486 89.517 122.151 89.517 121.006C89.517 119.862 90.4518 92.385 90.4518 92.385C90.4518 92.385 95.749 104.458 96.2683 105.395C96.7877 106.331 100.111 121.006 101.254 121.006C102.396 121.006 105.928 119.966 105.616 119.237C105.305 118.509 101.773 102.272 99.7998 98.1093C97.8263 93.9462 98.2418 78.2304 98.2418 78.2304L94.9181 70.9449L83.4927 74.7958Z" fill="#2F2E41"/>
<path d="M86.5048 41.8031C86.5048 41.8031 83.5966 41.595 83.3888 40.8664C83.1811 40.1379 82.7656 39.5134 82.9734 39.5134C83.1811 39.5134 83.285 38.993 83.285 38.993C83.285 38.993 83.4927 38.8889 83.5966 38.993C83.7004 39.0971 83.8043 38.2645 83.8043 38.2645C83.8043 38.2645 83.9082 37.9522 84.012 38.1604C84.1159 38.3685 84.1159 38.2645 84.2198 37.9522C84.3236 37.64 84.843 37.4318 84.843 37.4318C84.843 37.4318 86.8164 37.5359 87.128 37.1196C87.4396 36.7033 90.9711 37.0155 91.6982 37.5359C92.4253 38.0563 95.6451 39.9297 95.1258 41.4909C94.6065 43.052 92.7368 46.4866 92.7368 47.007C92.7368 47.5274 92.0098 47.4233 91.802 46.9029C91.5943 46.3825 89.9324 45.7581 89.9324 45.4458C89.9324 45.1336 88.9976 42.2194 88.4783 42.4276C87.959 42.6357 87.3358 44.301 87.128 43.9887C86.9203 43.6765 86.5048 41.8031 86.5048 41.8031Z" fill="#3F3D56"/>
<path d="M100.838 56.0617C100.838 56.0617 96.5799 49.8171 95.3335 49.5048C94.0871 49.1926 91.2827 48.36 91.2827 48.36C91.2827 48.36 88.4783 48.7763 87.6473 49.1926C86.8164 49.6089 83.7004 50.3375 83.5965 51.5864C83.4927 52.8353 84.4275 64.8043 83.9081 65.9492C83.3888 67.094 81.6231 78.0222 82.454 77.814C83.2849 77.6059 82.6617 74.8999 86.2971 74.7958C89.9324 74.6917 91.9059 72.5061 93.2562 75.108C94.6064 77.71 98.4495 79.6874 98.4495 79.6874C98.5461 78.8484 98.6848 78.0147 98.865 77.1896C99.1766 75.7325 98.034 72.1938 98.034 72.1938C98.034 72.1938 98.1379 63.9717 98.5534 63.035C98.9688 62.0983 100.838 56.0617 100.838 56.0617Z" fill="#575A89"/>
<path d="M99.2804 55.8536L100.838 56.0618C100.838 56.0618 100.735 58.1433 101.15 58.7678C101.565 59.3923 102.293 62.6187 101.877 62.7228C101.462 62.8268 97.7224 63.4513 97.7224 63.4513L97.5146 58.6637L99.2804 55.8536Z" fill="#575A89"/>
<path d="M82.4539 59.6004C82.4539 59.6004 81.4152 66.3655 80.8959 67.1981C80.3766 68.0307 77.7799 79.6874 77.7799 79.6874C77.7799 79.6874 73.5099 85.6376 75.5872 85.5335C77.6646 85.4294 79.8572 80.1038 79.8572 80.1038C79.8572 80.1038 86.297 68.3429 86.297 67.094C86.297 65.8451 87.855 59.6004 87.855 59.6004H82.4539Z" fill="#FFB9B9"/>
<path d="M85.4661 50.4416L83.5965 51.1701C83.5965 51.1701 81.2076 59.7045 81.7269 60.4331C82.2462 61.1616 88.4782 60.1208 88.5821 59.8086C88.686 59.4964 87.4396 50.4416 85.4661 50.4416Z" fill="#575A89"/>
<path d="M1.95538 72.3716C1.95538 79.6244 6.49619 85.4933 12.1077 85.4933L1.95538 72.3716Z" fill="#3F3D56"/>
<path d="M12.1077 85.4933C12.1077 78.1591 17.1749 72.2242 23.4371 72.2242L12.1077 85.4933Z" fill="#6C63FF"/>
<path d="M5.63373 73.0292C5.63373 79.9186 8.52931 85.4934 12.1077 85.4934L5.63373 73.0292Z" fill="#6C63FF"/>
<path d="M12.1077 85.4933C12.1077 76.1217 17.9646 68.5383 25.2027 68.5383L12.1077 85.4933Z" fill="#3F3D56"/>
<path d="M9.97186 85.5859C9.97186 85.5859 11.4116 85.5415 11.8455 85.2318C12.2795 84.9222 14.0603 84.5526 14.1679 85.0491C14.2756 85.5456 16.3316 87.5187 14.7061 87.5318C13.0806 87.5449 10.9292 87.2781 10.4961 87.0138C10.0631 86.7494 9.97186 85.5859 9.97186 85.5859Z" fill="#A8A8A8"/>
<path opacity="0.2" d="M14.7352 87.3589C13.1097 87.3721 10.9583 87.1052 10.5252 86.8409C10.1954 86.6396 10.064 85.9172 10.02 85.584C9.98953 85.5853 9.97192 85.5859 9.97192 85.5859C9.97192 85.5859 10.0631 86.7494 10.4962 87.0138C10.9293 87.2781 13.0807 87.5449 14.7062 87.5318C15.1754 87.528 15.3375 87.3607 15.3286 87.113C15.2634 87.2627 15.0844 87.3561 14.7352 87.3589Z" fill="black"/>
</g>
<defs>
<clipPath id="clip0">
<rect width="139" height="150" fill="white"/>
</clipPath>
</defs>
</svg>
