<svg width="100" height="100" viewBox="0 0 100 100" fill="none" xmlns="http://www.w3.org/2000/svg">
<circle cx="50" cy="50" r="50" fill="#1205A9"/>
<path d="M50.0001 57.1423L43.8144 51.728L26.1287 66.8887C26.7715 67.4852 27.6394 67.8566 28.5965 67.8566H71.4037C72.3573 67.8566 73.2215 67.4852 73.8608 66.8887L56.1858 51.728L50.0001 57.1423Z" fill="#F2F2F2"/>
<path d="M73.8714 33.1104C73.2286 32.5104 72.3643 32.1426 71.4036 32.1426H28.5964C27.6428 32.1426 26.7786 32.514 26.1357 33.1176L50 53.5712L73.8714 33.1104Z" fill="#F2F2F2"/>
<path d="M25 35.2783V64.9497L42.2607 50.2819L25 35.2783Z" fill="#F2F2F2"/>
<path d="M57.7393 50.2819L75 64.9497V35.2676L57.7393 50.2819Z" fill="#F2F2F2"/>
</svg>
